<svg width="18" height="17" viewBox="0 0 18 17" fill="none" xmlns="http://www.w3.org/2000/svg">
<path d="M16.6457 6.22024L11.431 1.00487C10.7856 0.36136 9.9114 0 9.00001 0C8.08862 0 7.2144 0.36136 6.56901 1.00487L1.35432 6.22024C1.16211 6.41122 1.00973 6.63845 0.90599 6.88876C0.802255 7.13907 0.749237 7.40748 0.750008 7.67843V14.4276C0.750008 14.9746 0.967307 15.4992 1.3541 15.886C1.74089 16.2728 2.2655 16.4901 2.81251 16.4901H15.1875C15.7345 16.4901 16.2591 16.2728 16.6459 15.886C17.0327 15.4992 17.25 14.9746 17.25 14.4276V7.67843C17.2508 7.40748 17.1978 7.13907 17.094 6.88876C16.9903 6.63845 16.8379 6.41122 16.6457 6.22024ZM11.0625 15.1151H6.93751V12.4105C6.93751 11.8635 7.15481 11.3389 7.5416 10.9521C7.92839 10.5653 8.453 10.348 9.00001 10.348C9.54702 10.348 10.0716 10.5653 10.4584 10.9521C10.8452 11.3389 11.0625 11.8635 11.0625 12.4105V15.1151ZM15.875 14.4276C15.875 14.61 15.8026 14.7848 15.6736 14.9138C15.5447 15.0427 15.3698 15.1151 15.1875 15.1151H12.4375V12.4105C12.4375 11.4988 12.0753 10.6245 11.4307 9.97981C10.786 9.33516 9.91169 8.97299 9.00001 8.97299C8.08833 8.97299 7.21399 9.33516 6.56933 9.97981C5.92467 10.6245 5.56251 11.4988 5.56251 12.4105V15.1151H2.81251C2.63017 15.1151 2.4553 15.0427 2.32637 14.9138C2.19744 14.7848 2.12501 14.61 2.12501 14.4276V7.67843C2.12565 7.49623 2.19801 7.32161 2.32645 7.19237L7.54113 1.97906C7.92868 1.59332 8.45322 1.37677 9.00001 1.37677C9.5468 1.37677 10.0713 1.59332 10.4589 1.97906L15.6736 7.19443C15.8015 7.32316 15.8738 7.49694 15.875 7.67843V14.4276Z" fill="#8D004B"/>
</svg>
