<svg width="237" height="188" viewBox="0 0 237 188" fill="none" xmlns="http://www.w3.org/2000/svg">
<g clip-path="url(#clip0_2513_7203)">
<path d="M94.8355 38.9869H93.9709V14.2925C93.9709 12.4156 93.6163 10.557 92.9274 8.82298C92.2385 7.08894 91.2287 5.51335 89.9558 4.18617C88.6829 2.85899 87.1717 1.80622 85.5085 1.08795C83.8453 0.369689 82.0628 1.59027e-06 80.2626 0H30.0824C26.4467 -7.22617e-06 22.9599 1.50579 20.3891 4.18614C17.8183 6.86649 16.374 10.5018 16.374 14.2924V149.768C16.374 151.645 16.7286 153.503 17.4175 155.237C18.1064 156.971 19.1162 158.547 20.3891 159.874C21.662 161.201 23.1732 162.254 24.8364 162.972C26.4996 163.691 28.2821 164.06 30.0823 164.06H80.2625C83.8982 164.06 87.3849 162.555 89.9558 159.874C92.5266 157.194 93.9708 153.559 93.9709 149.768V56.5648H94.8355V38.9869Z" fill="#3F3D56"/>
<path d="M80.8158 3.71838H74.2656C74.5669 4.48836 74.6818 5.32376 74.6005 6.15098C74.5191 6.97821 74.2438 7.77187 73.7989 8.46205C73.3541 9.15224 72.7532 9.71776 72.0493 10.1088C71.3454 10.4998 70.5601 10.7044 69.7625 10.7045H41.0149C40.2174 10.7044 39.432 10.4999 38.7282 10.1088C38.0243 9.71776 37.4234 9.15224 36.9785 8.46206C36.5337 7.77187 36.2584 6.97821 36.177 6.15099C36.0956 5.32376 36.2106 4.48836 36.5118 3.71838H30.394C29.0496 3.71838 27.7184 3.99446 26.4763 4.53085C25.2343 5.06724 24.1058 5.85344 23.1552 6.84456C22.2045 7.83568 21.4505 9.01231 20.936 10.3073C20.4215 11.6022 20.1567 12.9902 20.1567 14.3918V149.669C20.1567 151.07 20.4215 152.458 20.936 153.753C21.4505 155.048 22.2045 156.225 23.1551 157.216C24.1058 158.207 25.2343 158.993 26.4763 159.53C27.7184 160.066 29.0496 160.342 30.3939 160.342H80.8158C82.1602 160.342 83.4914 160.066 84.7334 159.53C85.9755 158.993 87.104 158.207 88.0546 157.216C89.0052 156.225 89.7593 155.048 90.2738 153.753C90.7882 152.458 91.053 151.07 91.053 149.669V14.3918C91.053 12.9902 90.7882 11.6022 90.2738 10.3073C89.7593 9.01231 89.0052 7.83568 88.0546 6.84456C87.104 5.85344 85.9755 5.06724 84.7334 4.53085C83.4914 3.99446 82.1602 3.71838 80.8158 3.71838Z" fill="white"/>
<path d="M110.919 164.084H0.290365C0.213355 164.084 0.1395 164.052 0.0850456 163.995C0.0305917 163.938 0 163.861 0 163.781C0 163.701 0.0305917 163.624 0.0850456 163.567C0.1395 163.51 0.213355 163.478 0.290365 163.478H110.919C110.996 163.478 111.07 163.51 111.125 163.567C111.179 163.624 111.21 163.701 111.21 163.781C111.21 163.861 111.179 163.938 111.125 163.995C111.07 164.052 110.996 164.084 110.919 164.084Z" fill="#CBCBCB"/>
<path d="M55.6049 104.65C69.147 104.65 80.1251 93.2044 80.1251 79.0852C80.1251 64.9661 69.147 53.5202 55.6049 53.5202C42.0628 53.5202 31.0847 64.9661 31.0847 79.0852C31.0847 93.2044 42.0628 104.65 55.6049 104.65Z" fill="#FFD682"/>
<path d="M53.175 88.8375C52.6233 88.8385 52.0864 88.6524 51.645 88.3074L51.6176 88.286L45.8551 83.69C45.5882 83.4767 45.3642 83.2106 45.1959 82.907C45.0277 82.6035 44.9184 82.2683 44.8743 81.9207C44.8303 81.5731 44.8524 81.2198 44.9393 80.8811C45.0262 80.5424 45.1762 80.2249 45.3808 79.9466C45.5854 79.6683 45.8406 79.4348 46.1318 79.2594C46.4229 79.0839 46.7444 78.97 47.0778 78.9241C47.4112 78.8782 47.75 78.9012 48.0749 78.9918C48.3997 79.0824 48.7043 79.2388 48.9712 79.4521L52.7037 82.4364L61.5239 70.4392C61.7284 70.161 61.9835 69.9276 62.2745 69.7522C62.5656 69.5769 62.8869 69.463 63.2202 69.4171C63.5534 69.3712 63.8921 69.3942 64.2168 69.4848C64.5416 69.5753 64.846 69.7317 65.1128 69.9449L65.1136 69.9455L65.0588 70.0248L65.115 69.9455C65.6533 70.3768 66.0054 71.0131 66.0942 71.7147C66.1829 72.4164 66.0011 73.1261 65.5885 73.6881L55.2141 87.7932C54.9741 88.1182 54.6655 88.3811 54.3122 88.5617C53.959 88.7423 53.5706 88.8356 53.1772 88.8344L53.175 88.8375Z" fill="white"/>
<path d="M201.584 166.596C201.882 166.094 202.234 165.627 202.631 165.205C202.795 165.028 202.968 164.861 203.146 164.699C204.23 163.692 205.552 163.006 206.975 162.709C208.398 162.412 209.872 162.515 211.244 163.009C212.616 163.502 213.837 164.368 214.782 165.516C215.727 166.665 216.361 168.055 216.62 169.545C217.817 164.927 214.7 160.379 211.566 156.885C208.43 153.393 204.846 149.562 204.864 144.776C204.873 142.114 206.122 139.738 208.008 137.977C208.066 137.923 208.125 137.87 208.184 137.819C210.464 135.781 213.397 134.715 216.398 134.834C221.973 135.146 226.84 139.052 230.22 143.686C235.662 151.141 238.046 161.607 234.237 170.094C230.886 177.558 223.74 181.991 216.447 185.554C215.429 186.052 214.413 186.535 213.398 187.002C213.392 187.004 213.384 187.009 213.378 187.011C213.329 187.033 213.28 187.056 213.234 187.079C213.025 187.175 212.816 187.271 212.608 187.366L212.704 187.432L213.004 187.634C212.9 187.569 212.797 187.505 212.693 187.439C212.662 187.42 212.63 187.401 212.599 187.381C209.017 185.14 205.385 182.77 202.911 179.271C200.344 175.639 199.312 170.436 201.584 166.596Z" fill="#F1F1F1"/>
<path d="M225.482 158.161C226.275 160.042 226.801 162.034 227.043 164.074C227.233 165.892 227.162 167.73 226.83 169.527C226.119 173.218 224.568 176.678 222.307 179.615C220.602 181.844 218.633 183.84 216.447 185.554C215.429 186.052 214.413 186.535 213.398 187.002C213.392 187.004 213.384 187.009 213.378 187.011C213.329 187.033 213.28 187.056 213.234 187.079C213.025 187.175 212.815 187.271 212.608 187.366L212.704 187.432L213.004 187.634C212.9 187.569 212.797 187.505 212.693 187.439C212.662 187.42 212.629 187.401 212.599 187.381C213.387 184.506 213.503 181.476 212.937 178.545C212.37 175.614 211.139 172.867 209.344 170.535C207.541 168.232 205.24 166.405 202.631 165.205C202.795 165.028 202.968 164.861 203.146 164.699C204.151 165.18 205.113 165.753 206.022 166.411C209.27 168.751 211.71 172.121 212.978 176.019C214.111 179.556 214.253 183.357 213.386 186.975C213.566 186.852 213.747 186.727 213.922 186.602C217.259 184.255 220.334 181.438 222.651 177.982C224.649 175.062 225.927 171.674 226.374 168.118C226.818 164.232 225.885 160.412 224.222 156.945C222.384 153.236 220.069 149.807 217.341 146.752C214.601 143.613 211.502 140.835 208.114 138.481C208.038 138.427 207.984 138.345 207.965 138.251C207.945 138.157 207.96 138.059 208.008 137.977C208.044 137.902 208.108 137.845 208.184 137.819C208.223 137.808 208.263 137.807 208.302 137.816C208.341 137.824 208.378 137.841 208.41 137.867C208.828 138.158 209.243 138.451 209.653 138.753C213.064 141.272 216.162 144.223 218.876 147.537C221.498 150.733 223.885 154.283 225.482 158.161Z" fill="white"/>
<path d="M152.454 11.8705C155.329 11.8705 157.661 9.43968 157.661 6.44115C157.661 3.44263 155.329 1.01184 152.454 1.01184C149.578 1.01184 147.246 3.44263 147.246 6.44115C147.246 9.43968 149.578 11.8705 152.454 11.8705Z" fill="#F1F1F1"/>
<path d="M217.205 84.5275C218.958 84.5275 220.38 83.0455 220.38 81.2174C220.38 79.3892 218.958 77.9072 217.205 77.9072C215.451 77.9072 214.03 79.3892 214.03 81.2174C214.03 83.0455 215.451 84.5275 217.205 84.5275Z" fill="#F1F1F1"/>
<path d="M124.288 93.6096C126.042 93.6096 127.463 92.1276 127.463 90.2995C127.463 88.4713 126.042 86.9893 124.288 86.9893C122.535 86.9893 121.113 88.4713 121.113 90.2995C121.113 92.1276 122.535 93.6096 124.288 93.6096Z" fill="#F1F1F1"/>
<path d="M126.081 188H236.71C236.787 188 236.86 187.968 236.915 187.911C236.969 187.855 237 187.778 237 187.697C237 187.617 236.969 187.54 236.915 187.483C236.86 187.426 236.787 187.395 236.71 187.395H126.081C126.004 187.395 125.93 187.426 125.875 187.483C125.821 187.54 125.79 187.617 125.79 187.697C125.79 187.778 125.821 187.855 125.875 187.911C125.93 187.968 126.004 188 126.081 188Z" fill="#CBCBCB"/>
<path d="M224.501 29.255C224.646 28.1797 224.408 27.0862 223.832 26.1817C223.256 25.2773 222.381 24.6246 221.374 24.3475C220.367 24.0704 219.297 24.188 218.368 24.6782C217.439 25.1683 216.714 25.9969 216.331 27.0068L207.354 37.7372L209.988 45.4076L219.016 32.8696C219.606 33.0663 220.229 33.126 220.843 33.0444C221.456 32.9629 222.045 32.742 222.568 32.3974C223.091 32.0527 223.535 31.5928 223.869 31.0499C224.203 30.5069 224.419 29.8943 224.501 29.255Z" fill="#FFB7B7"/>
<path d="M187.289 71.0068L217.089 37.8483L213.069 31.1856L175.693 64.1428L187.289 71.0068Z" fill="#3F3D56"/>
<path d="M180.638 50.8599C186.411 50.8599 191.091 45.9805 191.091 39.9614C191.091 33.9423 186.411 29.0628 180.638 29.0628C174.865 29.0628 170.185 33.9423 170.185 39.9614C170.185 45.9805 174.865 50.8599 180.638 50.8599Z" fill="#2F2E41"/>
<path d="M181.478 33.8046C183.728 31.4265 186.45 29.5913 189.453 28.4283C191.38 27.6837 193.478 27.2237 195.494 27.6465C197.509 28.0694 199.415 29.5229 199.977 31.5845C200.437 33.2702 199.962 35.0853 199.248 36.6721C198.535 38.259 197.583 39.7305 197.006 41.3766C196.417 43.0562 196.24 44.8625 196.49 46.6316C196.741 48.4006 197.412 50.0763 198.441 51.5067C199.47 52.937 200.826 54.0766 202.385 54.8221C203.944 55.5676 205.657 55.8953 207.368 55.7755C205.388 56.0523 203.563 57.0225 201.628 57.5389C199.692 58.0553 197.408 58.0203 195.97 56.5746C194.448 55.0451 194.417 52.5582 194.491 50.3557C194.6 47.0816 194.71 43.8075 194.819 40.5333C194.875 38.8636 194.922 37.1404 194.345 35.5819C193.767 34.0235 192.395 32.6588 190.792 32.673C189.578 32.6837 188.503 33.4508 187.529 34.2072C186.555 34.9637 185.524 35.7708 184.315 35.8833C183.105 35.9958 181.724 35.0625 181.814 33.7997L181.478 33.8046Z" fill="#2F2E41"/>
<path d="M140.936 113.14C139.933 113.431 138.862 113.327 137.926 112.85C136.991 112.372 136.256 111.554 135.861 110.549C135.466 109.544 135.438 108.423 135.783 107.398C136.127 106.374 136.82 105.516 137.731 104.989L146.761 94.3071L154.399 96.0276L143.657 106.998C143.921 107.581 144.059 108.218 144.062 108.863C144.064 109.508 143.931 110.146 143.672 110.731C143.412 111.317 143.033 111.836 142.56 112.252C142.088 112.668 141.533 112.971 140.936 113.14Z" fill="#FFB7B7"/>
<path d="M161.368 75.7695L138.861 105.226L132 101.942L158.455 59L161.368 75.7695Z" fill="#3F3D56"/>
<path d="M152.688 163.845L147.323 163.757L147.969 182.819H152.687L152.688 163.845Z" fill="#FFB7B7"/>
<path d="M153.89 181.213L144.598 181.213H144.598C143.027 181.213 141.521 181.863 140.411 183.021C139.3 184.179 138.676 185.749 138.676 187.387V187.587L153.89 187.588L153.89 181.213Z" fill="#2F2E41"/>
<path d="M188.204 158.789L182.344 162.711L194.066 177.414L198.036 174.756L188.204 158.789Z" fill="#FFB7B7"/>
<path d="M198.217 172.727L190.398 177.961L190.397 177.961C189.076 178.846 188.145 180.241 187.811 181.841C187.476 183.441 187.765 185.114 188.614 186.492L188.718 186.66L201.52 178.091L198.217 172.727Z" fill="#2F2E41"/>
<path d="M190.292 100.582C190.292 100.582 177.272 55.4956 173.088 54.8864C168.903 54.2771 162.162 66.4549 162.162 66.4549C153.421 78.0825 144.408 115.747 144.408 115.747C144.408 115.747 159.433 116.727 170.417 122.82C181.4 128.913 194.362 122.511 194.362 122.511L190.292 100.582Z" fill="#3F3D56"/>
<path opacity="0.1" d="M190.292 100.582C190.292 100.582 177.272 55.4956 173.088 54.8863C168.903 54.2771 163.874 66.5784 163.874 66.5784C159.519 85.3482 144.408 115.747 144.408 115.747C144.408 115.747 159.433 116.727 170.417 122.82C181.4 128.913 194.362 122.511 194.362 122.511L190.292 100.582Z" fill="black"/>
<path d="M179.61 87.0921V109.747L182.167 142.565L194.943 167.39L188.846 171.931L171.424 148.317L164.533 124.871L153.712 176.775L145.581 176.169L151.228 104.205L161.942 83.9491L179.61 87.0921Z" fill="#2F2E41"/>
<path d="M166.483 65.1793C162.417 69.4176 166.192 73.9587 166.192 73.9587L161.546 84.8572L179.839 90.0038L186.232 60.221L181.877 55.3772C173.166 55.0745 173.161 54.8862 173.161 54.8862C171.635 56.4435 166.483 65.1793 166.483 65.1793Z" fill="#FFD682"/>
<path d="M186.969 57.1355C186.138 56.4961 185.194 56.0349 184.191 55.7787C183.188 55.5224 182.146 55.4762 181.126 55.6427C180.106 55.8092 179.127 56.1851 178.247 56.7486C177.367 57.3122 176.603 58.0521 176 58.9256C171.401 65.6017 167.149 76.3818 173.008 89.8266C182.415 111.415 190.602 122.466 193.93 122.465C194.075 122.466 194.22 122.442 194.358 122.395C196.406 121.67 199.368 118.056 199.904 114.871C200.096 113.731 200.051 112.143 198.743 111.053C194.987 107.921 188.244 98.1678 186.141 85.331C184.978 78.238 187.232 71.7769 189.328 67.6058C190.213 65.88 190.472 63.8793 190.058 61.9705C189.643 60.0617 188.582 58.3727 187.07 57.2131L186.969 57.1355Z" fill="#3F3D56"/>
<path d="M181.176 49.7893C184.905 47.664 186.275 42.7895 184.237 38.9017C182.198 35.0139 177.523 33.5851 173.794 35.7104C170.065 37.8356 168.695 42.7101 170.733 46.5979C172.771 50.4857 177.447 51.9145 181.176 49.7893Z" fill="#FFB7B7"/>
<path d="M166.663 42.1432H177.774L177.888 40.48L178.458 42.1432H180.169L180.395 38.8468L181.524 42.1432H184.834V41.9799C184.832 39.685 183.956 37.4848 182.4 35.8621C180.843 34.2394 178.733 33.3266 176.532 33.324H174.965C172.764 33.3266 170.654 34.2394 169.098 35.8621C167.541 37.4848 166.666 39.685 166.663 41.9799V42.1432Z" fill="#2F2E41"/>
<path d="M183.155 48.1214L187.897 46.5173V34.5121H178.941L179.163 34.7429C182.248 37.9552 185.679 49.3521 183.155 48.1214Z" fill="#2F2E41"/>
</g>
<defs>
<clipPath id="clip0_2513_7203">
<rect width="237" height="188" fill="white"/>
</clipPath>
</defs>
</svg>
