<svg width="225" height="138" viewBox="0 0 225 138" fill="none" xmlns="http://www.w3.org/2000/svg">
<g clip-path="url(#clip0_2513_6251)">
<g opacity="0.1">
<path d="M165.427 135.965C167.829 135.965 169.776 133.273 169.776 129.954C169.776 126.634 167.829 123.943 165.427 123.943C163.026 123.943 161.079 126.634 161.079 129.954C161.079 133.273 163.026 135.965 165.427 135.965Z" fill="#3F3D56"/>
<path d="M168.868 104.239C169.477 103.122 169.793 101.854 169.783 100.565C169.783 97.2381 167.837 94.5539 165.435 94.5539C163.033 94.5539 161.089 97.2443 161.089 100.565C161.076 101.853 161.39 103.121 161.996 104.239C161.401 105.361 161.089 106.625 161.089 107.911C161.089 109.198 161.401 110.462 161.996 111.584C161.401 112.707 161.089 113.972 161.089 115.258C161.089 116.545 161.401 117.81 161.996 118.932C161.39 120.05 161.076 121.318 161.089 122.606C161.089 125.933 163.035 128.617 165.435 128.617C167.835 128.617 169.783 125.926 169.783 122.606C169.796 121.318 169.482 120.05 168.876 118.932C169.471 117.81 169.783 116.545 169.783 115.258C169.783 113.972 169.471 112.707 168.876 111.584C169.471 110.462 169.783 109.198 169.783 107.911C169.783 106.625 169.471 105.361 168.876 104.239H168.868Z" fill="#3F3D56"/>
<path d="M165.427 99.2299C167.829 99.2299 169.776 96.5388 169.776 93.2191C169.776 89.8994 167.829 87.2083 165.427 87.2083C163.026 87.2083 161.079 89.8994 161.079 93.2191C161.079 96.5388 163.026 99.2299 165.427 99.2299Z" fill="#3F3D56"/>
<path d="M165.427 91.8822C167.829 91.8822 169.776 89.1911 169.776 85.8714C169.776 82.5517 167.829 79.8605 165.427 79.8605C163.026 79.8605 161.079 82.5517 161.079 85.8714C161.079 89.1911 163.026 91.8822 165.427 91.8822Z" fill="#3F3D56"/>
<path d="M181.703 35.5931C182.296 34.794 182.837 33.9528 183.321 33.0753L171.904 31.0938L184.26 31.1916C185.444 28.4676 186.09 25.5172 186.157 22.5207C186.225 19.5241 185.713 16.5445 184.654 13.7641L168.075 22.8417L183.366 10.978C181.933 8.36591 180.006 6.09335 177.706 4.30174C175.406 2.51013 172.781 1.23784 169.994 0.564047C167.208 -0.109743 164.321 -0.170603 161.511 0.385257C158.702 0.941116 156.031 2.1018 153.665 3.79505C151.298 5.4883 149.287 7.67787 147.757 10.2275C146.226 12.7771 145.209 15.6321 144.768 18.6149C144.328 21.5977 144.473 24.6444 145.195 27.5653C145.917 30.4863 147.201 33.2189 148.967 35.5931C148.041 36.8362 147.245 38.1809 146.593 39.6038L161.421 47.7417L145.61 42.1279C144.498 45.593 144.221 49.2965 144.805 52.903C145.39 56.5095 146.817 59.9051 148.957 62.7823C146.541 66.0267 145.038 69.9237 144.619 74.0279C144.201 78.132 144.885 82.2775 146.593 85.9905C148.3 89.7035 150.962 92.8341 154.275 95.0243C157.587 97.2146 161.417 98.3761 165.325 98.3761C169.233 98.3761 173.062 97.2146 176.375 95.0243C179.687 92.8341 182.349 89.7035 184.057 85.9905C185.764 82.2775 186.448 78.132 186.03 74.0279C185.612 69.9237 184.109 66.0267 181.693 62.7823C184.58 58.9054 186.15 54.1161 186.15 49.1836C186.15 44.251 184.58 39.4617 181.693 35.5848L181.703 35.5931Z" fill="#FFD682"/>
<path opacity="0.1" d="M144.51 49.1929C144.503 54.1263 146.073 58.9178 148.967 62.7906C146.55 66.035 145.047 69.932 144.629 74.0361C144.211 78.1403 144.895 82.2858 146.603 85.9988C148.31 89.7118 150.972 92.8424 154.285 95.0326C157.597 97.2229 161.427 98.3844 165.335 98.3844C169.243 98.3844 173.072 97.2229 176.385 95.0326C179.697 92.8424 182.359 89.7118 184.067 85.9988C185.774 82.2858 186.458 78.1403 186.04 74.0361C185.622 69.932 184.119 66.035 181.703 62.7906C184.494 59.0481 144.51 46.7229 144.51 49.1929Z" fill="black"/>
</g>
<g opacity="0.1">
<path d="M43.4665 129.536C44.9277 129.536 46.1122 127.897 46.1122 125.876C46.1122 123.855 44.9277 122.217 43.4665 122.217C42.0054 122.217 40.8209 123.855 40.8209 125.876C40.8209 127.897 42.0054 129.536 43.4665 129.536Z" fill="#3F3D56"/>
<path d="M45.5709 110.222C45.9402 109.542 46.1311 108.77 46.124 107.985C46.124 105.964 44.9429 104.326 43.4764 104.326C42.0099 104.326 40.8307 105.964 40.8307 107.985C40.823 108.769 41.0133 109.542 41.3819 110.222C41.0206 110.906 40.8309 111.676 40.8309 112.459C40.8309 113.241 41.0206 114.011 41.3819 114.695C41.0206 115.378 40.8309 116.148 40.8309 116.931C40.8309 117.714 41.0206 118.483 41.3819 119.167C41.013 119.847 40.8227 120.618 40.8307 121.402C40.8307 123.425 42.0118 125.063 43.4764 125.063C44.941 125.063 46.124 123.425 46.124 121.402C46.1314 120.618 45.9405 119.847 45.5709 119.167C45.9333 118.484 46.1236 117.714 46.1236 116.931C46.1236 116.148 45.9333 115.378 45.5709 114.695C45.9333 114.012 46.1236 113.242 46.1236 112.459C46.1236 111.676 45.9333 110.906 45.5709 110.222Z" fill="#3F3D56"/>
<path d="M43.4665 107.172C44.9277 107.172 46.1122 105.534 46.1122 103.513C46.1122 101.492 44.9277 99.8537 43.4665 99.8537C42.0054 99.8537 40.8209 101.492 40.8209 103.513C40.8209 105.534 42.0054 107.172 43.4665 107.172Z" fill="#3F3D56"/>
<path d="M43.4665 102.7C44.9277 102.7 46.1122 101.062 46.1122 99.0407C46.1122 97.0197 44.9277 95.3814 43.4665 95.3814C42.0054 95.3814 40.8209 97.0197 40.8209 99.0407C40.8209 101.062 42.0054 102.7 43.4665 102.7Z" fill="#3F3D56"/>
<path d="M33.563 68.4314C33.2017 67.9453 32.8728 67.4333 32.5787 66.899L39.5335 65.6931L32.0118 65.7534C31.2917 64.096 30.8989 62.301 30.8572 60.4779C30.8156 58.6548 31.1261 56.8419 31.7697 55.1497L41.8543 60.6823L32.5492 53.4469C33.422 51.8578 34.595 50.4754 35.9953 49.3857C37.3956 48.296 38.9932 47.5223 40.6887 47.1128C42.3843 46.7032 44.1415 46.6666 45.851 47.0051C47.5605 47.3437 49.1858 48.0501 50.6257 49.0806C52.0657 50.111 53.2894 51.4434 54.2209 52.9949C55.1524 54.5463 55.7716 56.2836 56.0401 58.0987C56.3086 59.9137 56.2206 61.7677 55.7816 63.5453C55.3426 65.3229 54.5619 66.9861 53.4882 68.4314C54.0514 69.1871 54.5359 70.0048 54.9331 70.8702L45.9055 75.8269L55.5315 72.415C56.2075 74.5252 56.3747 76.7802 56.018 78.9758C55.6612 81.1714 54.7917 83.2384 53.4882 84.9898C54.9589 86.9649 55.8737 89.3372 56.1281 91.8355C56.3825 94.3339 55.9662 96.8574 54.9267 99.1176C53.8873 101.378 52.2667 103.283 50.2501 104.617C48.2336 105.95 45.9026 106.657 43.5236 106.657C41.1446 106.657 38.8136 105.95 36.7971 104.617C34.7806 103.283 33.16 101.378 32.1205 99.1176C31.0811 96.8574 30.6648 94.3339 30.9191 91.8355C31.1735 89.3372 32.0884 86.9649 33.5591 84.9898C31.8017 82.6293 30.8463 79.7135 30.8463 76.7106C30.8463 73.7077 31.8017 70.7919 33.5591 68.4314H33.563Z" fill="#FFD682"/>
<path opacity="0.1" d="M56.2008 76.7106C56.205 79.7142 55.2492 82.6314 53.4882 84.9898C54.9589 86.9649 55.8737 89.3372 56.1281 91.8355C56.3825 94.3339 55.9662 96.8574 54.9267 99.1176C53.8873 101.378 52.2666 103.283 50.2501 104.617C48.2336 105.95 45.9026 106.657 43.5236 106.657C41.1446 106.657 38.8136 105.95 36.7971 104.617C34.7806 103.283 33.16 101.378 32.1205 99.1176C31.0811 96.8574 30.6647 94.3339 30.9191 91.8355C31.1735 89.3372 32.0883 86.9649 33.559 84.9898C31.8602 82.7214 56.2008 75.2073 56.2008 76.7106Z" fill="black"/>
</g>
<g opacity="0.1">
<path d="M103.112 132.721C105.068 132.721 106.654 130.529 106.654 127.825C106.654 125.12 105.068 122.928 103.112 122.928C101.156 122.928 99.5709 125.12 99.5709 127.825C99.5709 130.529 101.156 132.721 103.112 132.721Z" fill="#3F3D56"/>
<path d="M105.915 106.875C106.409 105.964 106.664 104.931 106.654 103.881C106.654 101.178 105.079 98.9846 103.11 98.9846C101.142 98.9846 99.5669 101.178 99.5669 103.881C99.5565 104.931 99.8121 105.965 100.307 106.875C99.8219 107.789 99.5671 108.82 99.5671 109.868C99.5671 110.916 99.8219 111.947 100.307 112.861C99.8219 113.775 99.567 114.805 99.567 115.853C99.567 116.901 99.8219 117.931 100.307 118.845C99.8121 119.755 99.5565 120.789 99.5669 121.839C99.5669 124.542 101.154 126.735 103.11 126.735C105.067 126.735 106.654 124.542 106.654 121.839C106.664 120.789 106.409 119.756 105.915 118.845C106.399 117.93 106.654 116.9 106.654 115.853C106.654 114.805 106.399 113.775 105.915 112.861C106.399 111.946 106.654 110.916 106.654 109.868C106.654 108.82 106.399 107.79 105.915 106.875Z" fill="#3F3D56"/>
<path d="M103.112 102.794C105.068 102.794 106.654 100.601 106.654 97.8972C106.654 95.1929 105.068 93.0007 103.112 93.0007C101.156 93.0007 99.5709 95.1929 99.5709 97.8972C99.5709 100.601 101.156 102.794 103.112 102.794Z" fill="#3F3D56"/>
<path d="M103.112 96.8077C105.068 96.8077 106.654 94.6155 106.654 91.9113C106.654 89.2071 105.068 87.0149 103.112 87.0149C101.156 87.0149 99.5709 89.2071 99.5709 91.9113C99.5709 94.6155 101.156 96.8077 103.112 96.8077Z" fill="#3F3D56"/>
<path d="M89.8622 50.9519C89.3782 50.3016 88.9375 49.6166 88.5433 48.9018L97.8484 47.2884L87.7854 47.3674C86.8199 45.1485 86.2931 42.7448 86.2372 40.3035C86.1814 37.8621 86.5977 35.4344 87.4606 33.1688L100.965 40.5665L88.5098 30.8984C89.6734 28.7626 91.2416 26.9032 93.1163 25.4364C94.9909 23.9696 97.1319 22.927 99.4053 22.3736C101.679 21.8202 104.036 21.768 106.329 22.2203C108.623 22.6725 110.803 23.6194 112.734 25.0019C114.666 26.3844 116.306 28.1727 117.553 30.2551C118.801 32.3375 119.628 34.6692 119.984 37.1046C120.339 39.5399 120.216 42.0266 119.62 44.4092C119.025 46.7917 117.971 49.019 116.524 50.9519C117.277 51.9649 117.925 53.0607 118.457 54.2203L106.378 60.8487L119.258 56.2745C120.163 59.0982 120.386 62.1156 119.909 65.0537C119.432 67.9918 118.268 70.7577 116.524 73.1011C118.492 75.7442 119.716 78.9188 120.056 82.2621C120.397 85.6054 119.84 88.9823 118.449 92.0069C117.058 95.0315 114.889 97.5817 112.19 99.3658C109.492 101.15 106.373 102.096 103.189 102.096C100.005 102.096 96.8861 101.15 94.1876 99.3658C91.4891 97.5817 89.3204 95.0315 87.9294 92.0069C86.5384 88.9823 85.9813 85.6054 86.3217 82.2621C86.6621 78.9188 87.8863 75.7442 89.8543 73.1011C87.5029 69.9423 86.2246 66.0406 86.2246 62.0223C86.2246 58.0041 87.5029 54.1024 89.8543 50.9435L89.8622 50.9519Z" fill="#FFD682"/>
<path opacity="0.1" d="M120.154 62.0317C120.159 66.0507 118.88 69.9541 116.524 73.1095C118.492 75.7525 119.716 78.9271 120.056 82.2704C120.397 85.6137 119.84 88.9906 118.449 92.0152C117.058 95.0398 114.889 97.59 112.19 99.3741C109.492 101.158 106.373 102.104 103.189 102.104C100.005 102.104 96.8861 101.158 94.1876 99.3741C91.4891 97.59 89.3204 95.0398 87.9294 92.0152C86.5384 88.9906 85.9813 85.6137 86.3217 82.2704C86.6621 78.9271 87.8863 75.7525 89.8543 73.1095C87.5807 70.0614 120.154 60.0191 120.154 62.0317Z" fill="black"/>
</g>
<path d="M225 132.28C225 133.709 215.114 135.014 198.77 136.023C195.797 136.204 192.612 136.376 189.234 136.538C186.316 136.677 183.257 136.808 180.057 136.931C176.957 137.048 173.739 137.156 170.402 137.256C159.862 137.574 148.211 137.803 135.833 137.917C132.829 137.946 129.785 137.968 126.701 137.983C123.488 137.999 120.239 138.006 116.953 138.004C57.2795 138.004 8.90747 135.445 8.90747 132.287C8.90747 129.128 57.2795 126.569 116.953 126.569C142.644 126.569 166.236 127.045 184.78 127.835L186.807 127.922H186.819C210.177 128.968 225 130.542 225 132.28Z" fill="#3F3D56"/>
<path opacity="0.15" d="M225 132.28C225 133.709 215.114 135.014 198.77 136.023C195.797 136.204 192.612 136.376 189.234 136.538C186.316 136.677 183.257 136.808 180.057 136.931C176.957 137.048 173.739 137.156 170.402 137.256C159.862 137.574 148.211 137.803 135.833 137.917C132.829 137.946 129.785 137.968 126.701 137.983C123.488 137.999 120.239 138.006 116.953 138.004C57.2795 138.004 8.90747 135.445 8.90747 132.287C8.90747 129.128 57.2795 126.569 116.953 126.569C142.644 126.569 166.236 127.045 184.78 127.835L186.807 127.922H186.819C210.177 128.968 225 130.542 225 132.28Z" fill="black"/>
<path d="M216.093 131.274C216.093 132.467 206.207 133.561 189.862 134.393C186.892 134.544 183.705 134.688 180.329 134.823C177.409 134.939 174.35 135.049 171.152 135.152C168.052 135.249 164.833 135.339 161.496 135.424C150.955 135.69 139.303 135.881 126.925 135.977C123.924 136.001 120.88 136.019 117.793 136.031C114.581 136.043 111.332 136.05 108.047 136.05C48.374 136.05 0 133.91 0 131.268C0 128.625 48.374 126.486 108.047 126.486C133.736 126.486 157.329 126.883 175.872 127.544L177.9 127.617H177.913C201.28 128.504 216.093 129.812 216.093 131.274Z" fill="#3F3D56"/>
<path d="M27.9055 87.8341L25.1929 79.0621L90.1535 78.3115L92.8149 86.9962L27.9055 87.8341Z" fill="#3F3D56"/>
<path opacity="0.15" d="M27.9055 87.8341L25.1929 79.0621L90.1535 78.3115L92.8149 86.9962L27.9055 87.8341Z" fill="black"/>
<path d="M23.5748 87.8341L20.8622 79.0621L85.8228 78.3115L88.4843 86.9962L23.5748 87.8341Z" fill="#3F3D56"/>
<path d="M134.47 74.3549C127.754 74.3549 122.461 71.539 118.591 65.9072C114.72 60.2755 112.785 53.4531 112.785 45.44C112.785 37.3729 114.657 30.5643 118.4 25.0143C122.142 19.4644 127.422 16.6922 134.238 16.6977C141.467 16.6977 146.913 19.6217 150.577 25.4697C154.241 31.3177 156.073 38.086 156.075 45.7747C156.075 53.408 154.178 60.0807 150.386 65.7929C146.593 71.505 141.288 74.359 134.47 74.3549ZM134.667 68.0197C139.086 68.0197 142.388 65.9855 144.575 61.9173C146.761 57.8491 147.854 52.7205 147.854 46.5316C147.854 39.6426 146.736 34.0018 144.498 29.6093C142.26 25.2167 138.829 23.0197 134.203 23.0183C125.41 23.0183 121.014 30.3952 121.014 45.1489C121.014 60.3975 125.564 68.021 134.663 68.0197H134.667ZM136.88 128.687H127.165L190.764 17.8267H200.295L136.88 128.687ZM193.144 129.825C186.326 129.825 181.011 126.983 177.199 121.3C173.386 115.617 171.472 108.794 171.457 100.831C171.457 92.8178 173.315 86.0363 177.031 80.4863C180.748 74.9363 186.041 72.1641 192.909 72.1697C200.087 72.1697 205.495 75.0936 209.134 80.9416C212.773 86.7896 214.593 93.5573 214.594 101.245C214.594 108.828 212.711 115.488 208.943 121.225C205.175 126.962 199.907 129.829 193.14 129.825H193.144ZM193.258 123.327C197.656 123.327 200.94 121.328 203.112 117.329C205.284 113.33 206.37 108.222 206.37 102.006C206.37 95.3523 205.271 89.7725 203.073 85.2663C200.875 80.76 197.45 78.5035 192.799 78.4965C183.955 78.4965 179.533 85.8734 179.533 100.627C179.531 115.762 184.104 123.329 193.254 123.327H193.258Z" fill="#3F3D56"/>
<path d="M134.47 74.3549C127.754 74.3549 122.461 71.539 118.591 65.9072C114.72 60.2755 112.785 53.4531 112.785 45.44C112.785 37.3729 114.657 30.5643 118.4 25.0143C122.142 19.4644 127.422 16.6922 134.238 16.6977C141.467 16.6977 146.913 19.6217 150.577 25.4697C154.241 31.3177 156.073 38.086 156.075 45.7747C156.075 53.408 154.178 60.0807 150.386 65.7929C146.593 71.505 141.288 74.359 134.47 74.3549ZM134.667 68.0197C139.086 68.0197 142.388 65.9855 144.575 61.9173C146.761 57.8491 147.854 52.7205 147.854 46.5316C147.854 39.6426 146.736 34.0018 144.498 29.6093C142.26 25.2167 138.829 23.0197 134.203 23.0183C125.41 23.0183 121.014 30.3952 121.014 45.1489C121.014 60.3975 125.564 68.021 134.663 68.0197H134.667ZM136.88 128.687H127.165L190.764 17.8267H200.295L136.88 128.687ZM193.144 129.825C186.326 129.825 181.011 126.983 177.199 121.3C173.386 115.617 171.472 108.794 171.457 100.831C171.457 92.8178 173.315 86.0363 177.031 80.4863C180.748 74.9363 186.041 72.1641 192.909 72.1697C200.087 72.1697 205.495 75.0936 209.134 80.9416C212.773 86.7896 214.593 93.5573 214.594 101.245C214.594 108.828 212.711 115.488 208.943 121.225C205.175 126.962 199.907 129.829 193.14 129.825H193.144ZM193.258 123.327C197.656 123.327 200.94 121.328 203.112 117.329C205.284 113.33 206.37 108.222 206.37 102.006C206.37 95.3523 205.271 89.7725 203.073 85.2663C200.875 80.76 197.45 78.5035 192.799 78.4965C183.955 78.4965 179.533 85.8734 179.533 100.627C179.531 115.762 184.104 123.329 193.254 123.327H193.258Z" fill="#3F3D56"/>
<path opacity="0.15" d="M134.47 74.3549C127.754 74.3549 122.461 71.539 118.591 65.9072C114.72 60.2755 112.785 53.4531 112.785 45.44C112.785 37.3729 114.657 30.5643 118.4 25.0143C122.142 19.4644 127.422 16.6922 134.238 16.6977C141.467 16.6977 146.913 19.6217 150.577 25.4697C154.241 31.3177 156.073 38.086 156.075 45.7747C156.075 53.408 154.178 60.0807 150.386 65.7929C146.593 71.505 141.288 74.359 134.47 74.3549ZM134.667 68.0197C139.086 68.0197 142.388 65.9855 144.575 61.9173C146.761 57.8491 147.854 52.7205 147.854 46.5316C147.854 39.6426 146.736 34.0018 144.498 29.6093C142.26 25.2167 138.829 23.0197 134.203 23.0183C125.41 23.0183 121.014 30.3952 121.014 45.1489C121.014 60.3975 125.564 68.021 134.663 68.0197H134.667ZM136.88 128.687H127.165L190.764 17.8267H200.295L136.88 128.687ZM193.144 129.825C186.326 129.825 181.011 126.983 177.199 121.3C173.386 115.617 171.472 108.794 171.457 100.831C171.457 92.8178 173.315 86.0363 177.031 80.4863C180.748 74.9363 186.041 72.1641 192.909 72.1697C200.087 72.1697 205.495 75.0936 209.134 80.9416C212.773 86.7896 214.593 93.5573 214.594 101.245C214.594 108.828 212.711 115.488 208.943 121.225C205.175 126.962 199.907 129.829 193.14 129.825H193.144ZM193.258 123.327C197.656 123.327 200.94 121.328 203.112 117.329C205.284 113.33 206.37 108.222 206.37 102.006C206.37 95.3523 205.271 89.7725 203.073 85.2663C200.875 80.76 197.45 78.5035 192.799 78.4965C183.955 78.4965 179.533 85.8734 179.533 100.627C179.531 115.762 184.104 123.329 193.254 123.327H193.258Z" fill="black"/>
<path d="M128.368 74.3549C121.652 74.3549 116.358 71.539 112.488 65.9072C108.618 60.2755 106.683 53.4531 106.683 45.44C106.683 37.3729 108.554 30.5643 112.297 25.0143C116.04 19.4644 121.32 16.6922 128.136 16.6977C135.364 16.6977 140.81 19.6217 144.474 25.4697C148.138 31.3177 149.971 38.086 149.972 45.7747C149.972 53.408 148.076 60.0807 144.283 65.7929C140.491 71.505 135.186 74.359 128.368 74.3549ZM128.565 68.0197C132.984 68.0197 136.286 65.9855 138.472 61.9173C140.659 57.8491 141.752 52.7205 141.752 46.5316C141.752 39.6426 140.633 34.0018 138.396 29.6093C136.158 25.2167 132.726 23.0197 128.1 23.0183C119.308 23.0183 114.911 30.3952 114.911 45.1489C114.911 60.3975 119.461 68.021 128.561 68.0197H128.565ZM130.778 128.687H121.063L184.661 17.8267H194.193L130.778 128.687ZM187.041 129.825C180.224 129.825 174.909 126.983 171.096 121.3C167.284 115.617 165.37 108.794 165.354 100.831C165.354 92.8178 167.213 86.0363 170.929 80.4863C174.646 74.9363 179.938 72.1641 186.807 72.1697C193.984 72.1697 199.392 75.0936 203.032 80.9416C206.671 86.7896 208.491 93.5573 208.492 101.245C208.492 108.828 206.608 115.488 202.841 121.225C199.073 126.962 193.805 129.829 187.037 129.825H187.041ZM187.156 123.327C191.553 123.327 194.838 121.328 197.01 117.329C199.182 113.33 200.268 108.222 200.268 102.006C200.268 95.3523 199.169 89.7725 196.97 85.2663C194.772 80.76 191.346 78.5035 186.693 78.4965C177.849 78.4965 173.427 85.8734 173.427 100.627C173.427 115.762 178.002 123.329 187.152 123.327H187.156Z" fill="#3F3D56"/>
<path d="M149.62 131.469C150.431 129.881 149.51 127.935 148.451 126.517C147.392 125.099 146.1 123.627 146.128 121.82C146.167 119.227 148.774 117.695 150.852 116.319C152.398 115.298 153.824 114.088 155.1 112.713C155.635 112.184 156.077 111.559 156.405 110.867C156.837 109.852 156.823 108.698 156.799 107.588C156.709 103.884 156.535 100.186 156.28 96.4938" stroke="#3F3D56" stroke-width="4" stroke-miterlimit="10"/>
<path d="M160.24 96.29C160.211 95.6125 160.02 94.9538 159.686 94.3746C159.352 93.7954 158.885 93.3144 158.329 92.9758L157.47 94.7681L157.496 92.5974C157.087 92.4711 156.66 92.417 156.234 92.4373C155.477 92.4748 154.748 92.7485 154.139 93.2237C153.529 93.6989 153.067 94.3544 152.81 95.1072C152.553 95.86 152.513 96.6764 152.696 97.453C152.878 98.2297 153.274 98.9318 153.835 99.4706C154.395 100.009 155.094 100.361 155.843 100.48C156.592 100.599 157.358 100.481 158.043 100.141C158.729 99.8001 159.304 99.2526 159.695 98.5672C160.086 97.8818 160.276 97.0894 160.24 96.29Z" fill="#FFD682"/>
<path d="M153.409 123.681C153.008 124.506 152.349 125.16 151.545 125.533C150.741 125.906 149.84 125.976 148.993 125.73C148.146 125.485 147.404 124.939 146.893 124.185C146.381 123.431 146.131 122.514 146.183 121.588C146.236 120.662 146.588 119.783 147.182 119.099C147.775 118.415 148.573 117.967 149.441 117.83C150.31 117.694 151.197 117.877 151.953 118.349C152.709 118.821 153.289 119.553 153.595 120.423L151.201 122.479L153.839 121.83C153.838 122.475 153.69 123.109 153.409 123.681Z" fill="#FFD682"/>
<path d="M151.518 115.82C151.015 115.844 150.513 115.764 150.04 115.584C149.566 115.404 149.131 115.127 148.759 114.77C148.387 114.412 148.086 113.98 147.872 113.499C147.658 113.018 147.535 112.498 147.512 111.967C147.482 111.333 147.595 110.701 147.843 110.123C148.071 109.582 148.41 109.101 148.833 108.714C149.257 108.326 149.756 108.041 150.295 107.879L150.274 109.543L151.142 107.73C152.157 107.679 153.149 108.057 153.9 108.78C154.651 109.502 155.1 110.51 155.148 111.582C155.195 112.654 154.838 113.702 154.153 114.496C153.469 115.289 152.515 115.763 151.5 115.813L151.518 115.82Z" fill="#FFD682"/>
<path d="M160.817 109.285C160.308 109.32 159.798 109.249 159.316 109.074C158.834 108.898 158.39 108.624 158.01 108.265C157.63 107.907 157.322 107.472 157.102 106.986C156.883 106.5 156.758 105.972 156.734 105.435C156.711 104.897 156.789 104.36 156.964 103.854C157.139 103.349 157.408 102.885 157.754 102.491C158.101 102.096 158.519 101.779 158.983 101.557C159.448 101.335 159.949 101.214 160.459 101.199C161.175 101.162 161.886 101.34 162.51 101.712L161.833 103.671L163.226 102.259C163.974 102.979 164.421 103.984 164.468 105.052C164.486 105.426 164.453 105.801 164.37 106.166C164.18 107.023 163.73 107.792 163.088 108.354C162.447 108.917 161.65 109.244 160.817 109.285Z" fill="#FFD682"/>
<path opacity="0.1" d="M159.724 97.3691C158.841 97.471 157.982 97.762 157.094 97.8203C156.207 97.8785 155.232 97.6539 154.671 96.9241C154.368 96.5333 154.218 96.0363 153.963 95.608C153.721 95.2093 153.39 94.88 152.998 94.6495C152.752 95.1624 152.613 95.7247 152.589 96.299C152.564 96.8733 152.657 97.4464 152.859 97.9802C153.061 98.5139 153.368 98.9961 153.761 99.3944C154.153 99.7928 154.621 100.098 155.134 100.291C155.647 100.483 156.193 100.557 156.736 100.509C157.278 100.461 157.804 100.292 158.28 100.012C158.755 99.7323 159.169 99.3487 159.493 98.8869C159.817 98.425 160.044 97.8956 160.159 97.3337C160.014 97.3421 159.87 97.3524 159.724 97.3691Z" fill="black"/>
<path opacity="0.1" d="M160.817 109.285C160.157 109.317 159.5 109.168 158.911 108.852C158.321 108.537 157.819 108.066 157.452 107.486C157.085 106.905 156.867 106.234 156.818 105.538C156.769 104.842 156.892 104.144 157.173 103.513C157.477 103.73 157.738 104.007 157.943 104.328C158.217 104.763 158.382 105.266 158.703 105.665C159.293 106.407 160.319 106.648 161.242 106.605C162.165 106.561 163.059 106.282 163.98 106.189C164.108 106.176 164.238 106.168 164.374 106.164C164.184 107.022 163.733 107.791 163.091 108.355C162.449 108.918 161.651 109.245 160.817 109.285Z" fill="black"/>
<path opacity="0.1" d="M151.518 115.82C151.015 115.844 150.513 115.764 150.04 115.584C149.566 115.404 149.131 115.127 148.759 114.77C148.387 114.412 148.086 113.98 147.872 113.499C147.658 113.018 147.535 112.498 147.512 111.967C147.482 111.333 147.595 110.701 147.843 110.123C148.158 110.345 148.433 110.627 148.652 110.954C148.949 111.397 149.136 111.909 149.484 112.318C150.13 113.077 151.217 113.345 152.195 113.32C153.173 113.295 154.057 113.054 155 112.977C154.766 113.772 154.307 114.47 153.684 114.979C153.061 115.487 152.304 115.781 151.518 115.82Z" fill="black"/>
<path opacity="0.1" d="M153.409 123.681C152.964 124.606 152.198 125.315 151.271 125.661C150.345 126.007 149.328 125.963 148.43 125.539C147.533 125.115 146.825 124.343 146.452 123.382C146.078 122.422 146.069 121.347 146.425 120.379C146.741 120.598 147.024 120.865 147.266 121.171C147.63 121.641 147.87 122.173 148.291 122.61C149.079 123.421 150.339 123.756 151.465 123.787C152.114 123.792 152.764 123.757 153.409 123.681Z" fill="black"/>
<path d="M208.872 131.261C209.683 129.673 208.762 127.727 207.703 126.309C206.644 124.891 205.352 123.419 205.38 121.612C205.419 119.019 208.026 117.487 210.104 116.111C211.65 115.091 213.076 113.88 214.352 112.505C214.887 111.976 215.329 111.351 215.657 110.659C216.089 109.644 216.075 108.49 216.051 107.38C215.961 103.677 215.787 99.9784 215.532 96.2858" stroke="#3F3D56" stroke-width="4" stroke-miterlimit="10"/>
<path d="M219.492 96.0821C219.463 95.4046 219.272 94.7459 218.938 94.1667C218.604 93.5875 218.137 93.1064 217.581 92.7679L216.722 94.5601L216.748 92.3895C216.339 92.2632 215.912 92.2091 215.486 92.2294C214.729 92.2669 214 92.5405 213.391 93.0157C212.781 93.491 212.319 94.1464 212.062 94.8993C211.805 95.6521 211.765 96.4684 211.948 97.2451C212.13 98.0218 212.526 98.7239 213.087 99.2626C213.647 99.8014 214.346 100.153 215.095 100.272C215.844 100.391 216.61 100.273 217.295 99.9326C217.981 99.5922 218.556 99.0447 218.947 98.3593C219.338 97.6739 219.528 96.8814 219.492 96.0821Z" fill="#FFD682"/>
<path d="M212.661 123.473C212.259 124.298 211.601 124.952 210.797 125.325C209.993 125.698 209.092 125.768 208.245 125.522C207.398 125.277 206.656 124.732 206.145 123.977C205.633 123.223 205.383 122.306 205.435 121.38C205.488 120.454 205.84 119.575 206.433 118.891C207.027 118.207 207.825 117.759 208.693 117.622C209.562 117.486 210.449 117.669 211.205 118.141C211.961 118.613 212.541 119.345 212.846 120.215L210.453 122.271L213.091 121.622C213.089 122.267 212.942 122.901 212.661 123.473Z" fill="#FFD682"/>
<path d="M210.77 115.612C210.267 115.637 209.765 115.557 209.292 115.376C208.818 115.196 208.383 114.919 208.011 114.562C207.639 114.204 207.338 113.772 207.124 113.291C206.91 112.81 206.787 112.29 206.764 111.759C206.734 111.125 206.847 110.493 207.094 109.915C207.323 109.374 207.662 108.893 208.085 108.506C208.509 108.118 209.008 107.833 209.547 107.671L209.526 109.335L210.394 107.522H210.404C210.906 107.497 211.408 107.577 211.882 107.757C212.355 107.937 212.79 108.214 213.162 108.572C213.534 108.929 213.836 109.361 214.05 109.842C214.264 110.323 214.386 110.844 214.409 111.374C214.433 111.905 214.357 112.436 214.187 112.935C214.016 113.435 213.754 113.895 213.415 114.288C213.077 114.681 212.668 114.999 212.213 115.225C211.757 115.451 211.264 115.581 210.762 115.605L210.77 115.612Z" fill="#FFD682"/>
<path d="M220.069 109.077C219.56 109.112 219.05 109.041 218.568 108.866C218.086 108.691 217.642 108.416 217.262 108.057C216.882 107.699 216.574 107.264 216.355 106.778C216.135 106.292 216.01 105.764 215.986 105.227C215.963 104.689 216.041 104.152 216.216 103.646C216.391 103.141 216.66 102.677 217.006 102.283C217.353 101.889 217.771 101.571 218.235 101.349C218.7 101.127 219.201 101.006 219.711 100.991C220.427 100.954 221.138 101.132 221.762 101.505L221.085 103.463L222.478 102.051C223.226 102.771 223.673 103.776 223.721 104.844C223.738 105.218 223.705 105.593 223.622 105.958C223.432 106.815 222.982 107.584 222.34 108.146C221.699 108.709 220.902 109.036 220.069 109.077Z" fill="#FFD682"/>
<path opacity="0.1" d="M218.976 97.1612C218.093 97.2631 217.234 97.5542 216.347 97.6124C215.459 97.6706 214.484 97.446 213.923 96.7163C213.62 96.3254 213.471 95.8284 213.215 95.4001C212.973 95.0014 212.642 94.6721 212.25 94.4417C212.004 94.9545 211.865 95.5168 211.841 96.0911C211.817 96.6654 211.909 97.2385 212.111 97.7723C212.313 98.306 212.62 98.7882 213.013 99.1866C213.405 99.5849 213.873 99.8904 214.386 100.083C214.899 100.275 215.445 100.35 215.988 100.302C216.53 100.253 217.056 100.084 217.532 99.8042C218.007 99.5244 218.421 99.1408 218.745 98.679C219.069 98.2172 219.296 97.6877 219.411 97.1259C219.266 97.1342 219.122 97.1446 218.976 97.1612Z" fill="black"/>
<path opacity="0.1" d="M220.069 109.077C219.409 109.109 218.752 108.96 218.163 108.644C217.573 108.329 217.07 107.858 216.704 107.278C216.337 106.697 216.119 106.026 216.07 105.33C216.021 104.634 216.144 103.936 216.425 103.305C216.729 103.522 216.99 103.799 217.195 104.12C217.469 104.555 217.634 105.058 217.955 105.457C218.545 106.199 219.571 106.44 220.494 106.397C221.417 106.353 222.311 106.074 223.232 105.981C223.36 105.968 223.49 105.96 223.626 105.956C223.436 106.814 222.985 107.584 222.343 108.147C221.701 108.71 220.903 109.037 220.069 109.077Z" fill="black"/>
<path opacity="0.1" d="M210.77 115.612C210.267 115.637 209.765 115.557 209.292 115.376C208.818 115.196 208.383 114.919 208.011 114.562C207.639 114.204 207.338 113.772 207.124 113.291C206.91 112.81 206.787 112.29 206.764 111.759C206.734 111.125 206.847 110.493 207.094 109.915C207.41 110.137 207.685 110.419 207.904 110.746C208.201 111.189 208.388 111.701 208.736 112.11C209.382 112.869 210.468 113.137 211.447 113.112C212.396 113.092 213.309 112.846 214.252 112.769C214.018 113.564 213.559 114.263 212.936 114.771C212.312 115.28 211.556 115.573 210.77 115.612Z" fill="black"/>
<path opacity="0.1" d="M212.661 123.473C212.216 124.398 211.45 125.107 210.523 125.453C209.597 125.799 208.579 125.755 207.682 125.331C206.785 124.907 206.077 124.135 205.703 123.174C205.33 122.214 205.321 121.139 205.677 120.171C205.993 120.39 206.276 120.657 206.518 120.963C206.882 121.433 207.122 121.966 207.543 122.402C208.331 123.213 209.591 123.548 210.717 123.579C211.366 123.585 212.016 123.549 212.661 123.473Z" fill="black"/>
<path d="M21.6398 128.559C20.8287 126.97 21.75 125.024 22.8091 123.606C23.8681 122.188 25.1595 120.716 25.1319 118.909C25.0925 116.316 22.4862 114.784 20.4075 113.408C18.8615 112.388 17.4355 111.177 16.1595 109.802C15.6251 109.273 15.1833 108.648 14.8543 107.956C14.4232 106.942 14.437 105.788 14.4606 104.677C14.5512 100.974 14.7244 97.2755 14.9803 93.5829" stroke="#3F3D56" stroke-width="4" stroke-miterlimit="10"/>
<path d="M11.0197 93.3792C11.0493 92.7017 11.2399 92.043 11.5739 91.4638C11.908 90.8846 12.3747 90.4036 12.9311 90.065L13.7894 91.8572L13.7638 89.6866C14.1732 89.5603 14.5995 89.5062 15.0256 89.5265C15.7824 89.564 16.5117 89.8376 17.1212 90.3129C17.7307 90.7881 18.1932 91.4436 18.45 92.1964C18.7069 92.9492 18.7466 93.7655 18.5642 94.5422C18.3818 95.3189 17.9855 96.021 17.4253 96.5597C16.8651 97.0985 16.1663 97.4497 15.4171 97.569C14.668 97.6882 13.9021 97.5702 13.2165 97.2297C12.5309 96.8893 11.9562 96.3418 11.5652 95.6564C11.1741 94.971 10.9843 94.1785 11.0197 93.3792Z" fill="#FFD682"/>
<path d="M17.8504 120.77C18.2523 121.595 18.9106 122.249 19.7147 122.622C20.5189 122.995 21.4201 123.065 22.2672 122.819C23.1142 122.574 23.8557 122.029 24.3672 121.275C24.8787 120.52 25.1292 119.603 25.0766 118.677C25.024 117.751 24.6715 116.872 24.0783 116.188C23.4851 115.504 22.6873 115.056 21.8185 114.92C20.9497 114.783 20.0629 114.966 19.3067 115.438C18.5506 115.91 17.9711 116.642 17.6654 117.512L20.0591 119.568L17.4213 118.92C17.4224 119.564 17.5695 120.198 17.8504 120.77Z" fill="#FFD682"/>
<path d="M19.7421 112.909C20.2447 112.934 20.7469 112.854 21.2202 112.674C21.6935 112.493 22.1286 112.216 22.5006 111.859C22.8726 111.501 23.1742 111.069 23.3882 110.588C23.6023 110.108 23.7245 109.587 23.748 109.056C23.7778 108.422 23.6645 107.79 23.4173 107.212C23.1885 106.671 22.8503 106.19 22.4265 105.803C22.0028 105.415 21.5037 105.13 20.9646 104.968L20.9862 106.632L20.1181 104.819C19.1032 104.769 18.111 105.146 17.3597 105.869C16.6084 106.591 16.1597 107.599 16.1122 108.671C16.0647 109.743 16.4223 110.791 17.1064 111.585C17.7904 112.378 18.7449 112.852 19.7598 112.902L19.7421 112.909Z" fill="#FFD682"/>
<path d="M10.4429 106.374C10.9514 106.41 11.4615 106.338 11.9435 106.163C12.4254 105.988 12.8694 105.713 13.2495 105.354C13.6297 104.996 13.9383 104.561 14.1574 104.075C14.3764 103.589 14.5015 103.062 14.5254 102.524C14.5492 101.986 14.4712 101.449 14.2961 100.944C14.121 100.438 13.8521 99.9745 13.5054 99.5801C13.1586 99.1857 12.7408 98.8683 12.2765 98.6464C11.8122 98.4246 11.3106 98.3028 10.8012 98.2881C10.0886 98.2533 9.38108 98.4312 8.75985 98.8017L9.43702 100.76L8.03347 99.3547C7.28687 100.073 6.84024 101.075 6.79135 102.141C6.77391 102.515 6.80705 102.891 6.88977 103.255C7.08028 104.112 7.53024 104.881 8.17145 105.444C8.81265 106.006 9.61011 106.333 10.4429 106.374Z" fill="#FFD682"/>
<path opacity="0.1" d="M11.5354 94.4583C12.4193 94.5601 13.2776 94.8512 14.1654 94.9094C15.0532 94.9676 16.0276 94.7431 16.5886 94.0133C16.8917 93.6224 17.0413 93.1255 17.2973 92.6972C17.5389 92.2985 17.8703 91.9692 18.2618 91.7387C18.5077 92.2516 18.6473 92.8139 18.6713 93.3882C18.6953 93.9625 18.6032 94.5356 18.4011 95.0693C18.1989 95.6031 17.8914 96.0852 17.499 96.4836C17.1067 96.882 16.6384 97.1875 16.1255 97.3797C15.6125 97.572 15.0667 97.6466 14.5243 97.5986C13.982 97.5506 13.4555 97.381 12.98 97.1012C12.5046 96.8214 12.091 96.4379 11.7669 95.976C11.4428 95.5142 11.2156 94.9848 11.1004 94.4229C11.2461 94.4312 11.3898 94.4416 11.5354 94.4583Z" fill="black"/>
<path opacity="0.1" d="M10.4429 106.374C11.103 106.406 11.7597 106.257 12.3493 105.942C12.9389 105.626 13.4413 105.156 13.8079 104.575C14.1745 103.994 14.3928 103.323 14.4417 102.627C14.4905 101.931 14.3682 101.234 14.0866 100.602C13.7831 100.819 13.5219 101.096 13.3169 101.417C13.0433 101.852 12.878 102.355 12.5571 102.754C11.9665 103.496 10.941 103.738 10.0177 103.694C9.0945 103.65 8.2008 103.372 7.27954 103.278C7.15158 103.266 7.02166 103.257 6.88583 103.253C7.07616 104.111 7.52655 104.881 8.16857 105.444C8.8106 106.007 9.60916 106.334 10.4429 106.374Z" fill="black"/>
<path opacity="0.1" d="M19.7421 112.909C20.2447 112.934 20.7469 112.854 21.2202 112.674C21.6935 112.493 22.1286 112.216 22.5006 111.859C22.8726 111.501 23.1742 111.069 23.3882 110.588C23.6023 110.108 23.7245 109.587 23.748 109.056C23.7778 108.422 23.6645 107.79 23.4173 107.212C23.1015 107.434 22.8272 107.716 22.6083 108.043C22.311 108.486 22.124 108.998 21.7756 109.407C21.1299 110.166 20.0433 110.434 19.0649 110.41C18.1161 110.389 17.2027 110.143 16.2598 110.066C16.4935 110.861 16.9532 111.56 17.5763 112.068C18.1993 112.577 18.9555 112.87 19.7421 112.909Z" fill="black"/>
<path opacity="0.1" d="M17.8504 120.77C18.2962 121.695 19.0616 122.404 19.9884 122.75C20.9151 123.096 21.9323 123.052 22.8295 122.628C23.7266 122.204 24.4351 121.432 24.8083 120.471C25.1816 119.511 25.191 118.436 24.8347 117.468C24.5193 117.688 24.2361 117.954 23.9941 118.26C23.6299 118.73 23.3898 119.263 22.9685 119.699C22.1811 120.51 20.9213 120.845 19.7953 120.876C19.1456 120.882 18.4961 120.846 17.8504 120.77Z" fill="black"/>
<path d="M132.579 109.075C132.582 108.571 132.474 108.073 132.263 107.621C132.052 107.169 131.743 106.775 131.362 106.472C131.315 104.565 130.028 103.008 128.372 102.767C128.244 102.119 127.957 101.518 127.54 101.025C127.122 100.531 126.589 100.162 125.994 99.9556C125.849 99.9071 125.701 99.8703 125.551 99.8454H125.508L125.431 99.835H125.366H125.301H125.217H125.165H125.026C123.337 99.835 121.931 101.199 121.642 102.997C120.549 102.731 119.547 103.076 119.368 103.806C119.322 104 119.332 104.203 119.398 104.39C119.583 104.956 120.185 105.497 121.002 105.765L121.108 105.798C121.161 105.815 121.215 105.827 121.268 105.84H121.303C121.003 106.516 120.96 107.288 121.184 107.997C121.408 108.706 121.881 109.296 122.506 109.647C122.481 109.661 122.458 109.677 122.435 109.694C122.334 109.792 122.254 109.911 122.199 110.044C122.001 110.409 121.848 110.8 121.742 111.206C121.663 111.553 121.65 111.917 121.545 112.26C121.366 112.884 120.906 113.431 120.852 114.094C120.829 114.389 120.874 114.736 120.675 114.938C120.626 114.983 120.573 115.024 120.518 115.061C120.378 115.161 120.26 115.292 120.171 115.443C120.113 115.569 120.035 115.682 119.941 115.78C119.762 115.923 119.467 115.909 119.378 116.129C119.289 116.35 119.518 116.61 119.465 116.851C119.421 117.046 119.219 117.136 119.071 117.267C118.906 117.456 118.79 117.687 118.736 117.938C118.442 117.998 118.139 117.989 117.849 117.911C117.559 117.833 117.288 117.688 117.057 117.487C117.136 117.701 117.194 117.923 117.23 118.15C116.996 117.886 116.61 117.809 116.325 117.672C115.957 117.494 115.628 117.236 115.36 116.915L115.876 116.84L113.593 113.181L112.919 113.036L113.524 114.26C113.474 114.285 113.431 114.322 113.397 114.367C113.363 114.413 113.339 114.466 113.327 114.522C113.294 114.658 113.286 114.799 113.303 114.938C113.335 115.266 113.387 115.592 113.459 115.913L113.634 116.774C113.649 116.855 113.668 116.934 113.691 117.013C113.463 117.004 113.234 117.032 113.014 117.094C112.561 116.917 112.09 116.799 111.61 116.743C111.505 116.723 111.396 116.729 111.293 116.759C111.176 116.816 111.075 116.904 110.998 117.013C110.604 117.494 110.255 118.013 109.955 118.564C108.728 120.818 107.091 122.785 105.557 124.822C104.498 125.278 103.431 125.71 102.362 126.138L100.065 127.064C99.6063 127.249 99.1299 127.438 98.6417 127.405C98.4213 127.39 98.1536 127.355 98.0295 127.552C97.9692 127.65 97.9221 127.757 97.8898 127.868C97.8091 127.868 97.7284 127.889 97.6536 127.893H97.6398C97.4941 127.511 97.3681 127.101 97.0886 126.822C97.0323 126.832 96.9791 126.855 96.9338 126.892C96.8884 126.928 96.8523 126.976 96.8288 127.03C96.7736 127.138 96.7402 127.257 96.6772 127.357C96.5532 127.548 96.3386 127.642 96.185 127.804C96.0315 127.966 95.9351 128.22 95.7697 128.378C95.5381 128.555 95.2668 128.666 94.9823 128.7C94.5561 128.806 94.1451 128.971 93.7598 129.191C93.6178 129.283 93.4658 129.357 93.3071 129.411C93.1326 129.446 92.9539 129.453 92.7776 129.43L91.561 129.336C91.4528 129.321 91.3429 129.326 91.2362 129.351C91.1109 129.399 91.0043 129.49 90.9331 129.609C90.8619 129.729 90.83 129.869 90.8425 130.01C90.8574 130.149 90.8991 130.284 90.9651 130.405C91.0311 130.527 91.12 130.633 91.2264 130.717C91.4376 130.88 91.6713 131.009 91.9193 131.097C92.9764 131.53 94.0663 131.867 95.1772 132.106V132.365C95.9472 132.775 96.7973 132.989 97.6595 132.989C97.723 132.994 97.7867 132.982 97.8445 132.954C97.9242 132.891 97.9795 132.799 98 132.696C98.2581 131.881 98.4214 131.035 98.4862 130.178C98.6383 130.168 98.7871 130.128 98.9252 130.06C99.3445 129.939 99.7598 130.243 100.191 130.293C100.722 130.353 101.217 130.026 101.719 129.825C101.791 129.796 101.864 129.771 101.937 129.746C101.794 129.941 101.625 130.114 101.435 130.259C101.226 130.417 100.992 130.534 100.787 130.698C100.617 130.862 100.435 131.012 100.242 131.145C100.106 131.212 99.9661 131.269 99.8228 131.315C99.6151 131.396 99.4169 131.501 99.2323 131.629C99.0669 131.732 98.9267 131.875 98.8228 132.045C98.7705 132.125 98.7384 132.217 98.7294 132.314C98.7205 132.41 98.7351 132.507 98.7718 132.596C98.8085 132.685 98.8661 132.762 98.9391 132.821C99.0121 132.88 99.0982 132.917 99.189 132.931C99.3534 132.962 99.5212 132.967 99.687 132.946C100.344 132.894 101 132.829 101.656 132.767C101.933 132.747 102.209 132.706 102.48 132.642C102.624 132.605 102.766 132.555 102.909 132.515C103.155 132.447 103.406 132.407 103.659 132.397C103.733 132.391 103.807 132.398 103.878 132.42C104.032 132.472 104.14 132.627 104.295 132.669C104.396 132.679 104.498 132.664 104.593 132.625C105.072 132.515 105.562 132.46 106.053 132.461C106.268 132.449 106.52 132.405 106.62 132.195C106.742 131.935 106.537 131.644 106.457 131.363C106.416 131.185 106.393 131.002 106.39 130.819C106.352 130.366 106.229 129.925 106.028 129.523C105.92 129.336 105.83 129.138 105.758 128.933C106.699 128.555 107.599 128.073 108.443 127.494C108.927 127.176 109.427 126.833 109.974 126.716C110.612 126.581 111.27 126.76 111.898 126.951C113.393 127.408 114.865 127.95 116.305 128.575C116.994 128.872 117.683 129.189 118.388 129.407C118.594 129.7 118.843 129.957 119.126 130.168C119.598 130.49 120.175 130.584 120.73 130.629C121.48 130.702 122.233 130.732 122.986 130.719C123.561 130.708 124.154 130.667 124.667 130.39C124.793 130.322 124.911 130.24 125.02 130.145C125.413 130.22 125.817 129.997 126.126 129.712C126.535 129.345 126.83 128.856 126.972 128.309C127.154 127.558 127.014 126.683 127.451 126.07C127.567 125.906 127.719 125.772 127.833 125.606C127.973 125.383 128.042 125.119 128.03 124.851L128.049 124.82C128.148 124.579 128.214 124.324 128.246 124.063C128.298 123.86 128.364 123.66 128.443 123.467C128.665 122.887 128.858 122.295 129.022 121.693C129.135 121.294 129.225 120.888 129.289 120.477C129.337 120.148 129.364 119.818 129.39 119.487C129.421 118.97 129.517 118.459 129.673 117.967C130.062 116.794 130.281 115.566 130.325 114.325C130.325 114.3 130.325 114.277 130.325 114.252C130.896 114.186 131.424 113.897 131.804 113.441C132.185 112.986 132.391 112.397 132.382 111.79C132.382 111.424 132.31 111.062 132.169 110.728C132.441 110.224 132.582 109.654 132.579 109.075ZM121.447 123.361C121.48 123.487 121.52 123.614 121.559 123.741C121.378 123.552 121.199 123.356 121.016 123.169C121.089 123.192 121.161 123.217 121.232 123.244C121.308 123.276 121.38 123.315 121.449 123.361H121.447ZM120.565 122.737C119.49 121.751 118.246 120.986 117.146 120.034C117.736 120.348 118.327 120.712 118.917 121.061C119.605 121.477 120.301 121.875 121.004 122.255C120.889 122.439 120.742 122.6 120.571 122.729L120.565 122.737ZM121.024 120.254L121.075 120.198C121.075 120.338 121.075 120.469 121.075 120.587C120.978 120.554 120.878 120.521 120.785 120.483C120.87 120.41 120.951 120.331 121.026 120.246L121.024 120.254ZM111.561 122.924C112.004 122.395 112.389 121.816 112.709 121.196C113.134 121.984 113.827 122.552 114.417 123.211C113.469 123.07 112.518 122.959 111.563 122.916L111.561 122.924Z" fill="url(#paint0_linear_2513_6251)"/>
<path d="M113.096 113.339L113.776 113.485L116.089 117.094L115.067 117.24L113.096 113.339Z" fill="#2F2E41"/>
<path d="M96.6496 127.989C96.8327 128.629 97.0583 129.254 97.3248 129.86C98.0912 129.691 98.8451 129.463 99.5807 129.18C99.4383 128.946 99.2818 128.722 99.1122 128.509C98.9314 128.296 98.7152 128.121 98.4744 127.991C98.2402 127.883 97.9508 127.964 97.7008 127.978C97.3504 127.992 97 127.996 96.6496 127.989Z" fill="#FBBEBE"/>
<path d="M98.4784 128.954C98.0965 128.827 97.8622 128.419 97.7067 128.026C97.5512 127.633 97.4252 127.205 97.1299 126.916C97.0737 126.925 97.0206 126.949 96.9753 126.985C96.9299 127.022 96.8938 127.069 96.8701 127.124C96.813 127.228 96.7795 127.346 96.7146 127.446C96.5925 127.633 96.376 127.725 96.2205 127.885C96.065 128.045 95.9685 128.288 95.8012 128.448C95.5691 128.625 95.2979 128.735 95.0138 128.769C94.5847 128.871 94.1703 129.033 93.7815 129.251C93.6376 129.339 93.4843 129.409 93.3248 129.459C93.149 129.494 92.969 129.5 92.7914 129.478L91.565 129.384C91.456 129.37 91.3454 129.375 91.2382 129.401C91.1133 129.447 91.0066 129.535 90.9352 129.653C90.8638 129.771 90.8319 129.91 90.8445 130.049C90.8608 130.188 90.9042 130.321 90.972 130.441C91.0397 130.561 91.1304 130.665 91.2382 130.746C91.4514 130.907 91.6863 131.033 91.9351 131.12C93.0035 131.544 94.103 131.876 95.2225 132.112V132.368C96.0005 132.774 96.8563 132.988 97.7244 132.991C97.7918 132.998 97.8596 132.985 97.9213 132.956C98.001 132.894 98.057 132.804 98.0788 132.702C98.373 131.794 98.5446 130.846 98.5886 129.887C98.6112 129.645 98.5939 129.4 98.5374 129.164C98.4705 128.931 98.6988 129.028 98.4862 128.937" fill="#2F2E41"/>
<path d="M121.99 124.072C118.354 124.305 114.764 123.178 111.122 123.057C110.67 123.028 110.216 123.059 109.772 123.149C109.308 123.28 108.859 123.464 108.433 123.697C106.482 124.656 104.463 125.45 102.445 126.244L100.13 127.155C99.6653 127.336 99.187 127.521 98.6929 127.49C98.4724 127.475 98.2027 127.44 98.0768 127.635C97.7008 128.224 97.8799 129.091 98.1279 129.752C98.2086 129.96 98.3445 130.199 98.561 130.224C98.7142 130.213 98.8642 130.173 99.0039 130.105C99.4252 129.987 99.8464 130.286 100.28 130.334C100.817 130.394 101.315 130.072 101.821 129.875C102.659 129.548 103.577 129.559 104.459 129.403C105.939 129.143 107.309 128.417 108.593 127.59C109.081 127.276 109.577 126.939 110.136 126.825C110.78 126.691 111.443 126.866 112.075 127.055C113.581 127.506 115.064 128.039 116.518 128.654C117.274 129.001 118.05 129.3 118.841 129.548C120.564 130.027 122.386 129.915 124.045 129.228C124.636 128.985 125.258 128.556 125.291 127.893C125.311 127.515 125.033 127.182 124.848 126.854C124.728 126.646 124.61 126.438 124.48 126.24C123.854 125.276 123.094 124.001 121.99 124.072Z" fill="#2F2E41"/>
<path opacity="0.1" d="M121.99 124.072C118.354 124.305 114.764 123.178 111.122 123.057C110.67 123.028 110.216 123.059 109.772 123.149C109.308 123.28 108.859 123.464 108.433 123.697C106.482 124.656 104.463 125.45 102.445 126.244L100.13 127.155C99.6653 127.336 99.187 127.521 98.6929 127.49C98.4724 127.475 98.2027 127.44 98.0768 127.635C97.7008 128.224 97.8799 129.091 98.1279 129.752C98.2086 129.96 98.3445 130.199 98.561 130.224C98.7142 130.213 98.8642 130.173 99.0039 130.105C99.4252 129.987 99.8464 130.286 100.28 130.334C100.817 130.394 101.315 130.072 101.821 129.875C102.659 129.548 103.577 129.559 104.459 129.403C105.939 129.143 107.309 128.417 108.593 127.59C109.081 127.276 109.577 126.939 110.136 126.825C110.78 126.691 111.443 126.866 112.075 127.055C113.581 127.506 115.064 128.039 116.518 128.654C117.274 129.001 118.05 129.3 118.841 129.548C120.564 130.027 122.386 129.915 124.045 129.228C124.636 128.985 125.258 128.556 125.291 127.893C125.311 127.515 125.033 127.182 124.848 126.854C124.728 126.646 124.61 126.438 124.48 126.24C123.854 125.276 123.094 124.001 121.99 124.072Z" fill="black"/>
<path d="M103.628 128.176C104.198 128.38 104.771 128.568 105.348 128.742C105.673 128.178 106.28 127.787 106.417 127.145C106.425 127.117 106.425 127.087 106.417 127.059C106.402 127.032 106.38 127.01 106.352 126.997C105.937 126.755 105.477 126.613 105.004 126.581C104.63 126.556 104.461 126.968 104.291 127.257C104.232 127.373 103.78 128.23 103.628 128.176Z" fill="#FBBEBE"/>
<path d="M104.429 127.764C104.259 127.734 104.097 127.667 103.953 127.568C103.809 127.468 103.686 127.337 103.593 127.184C103.512 127.037 103.427 126.837 103.266 126.847C103.104 126.858 103.049 127.045 103.016 127.201C102.907 127.783 102.749 128.355 102.545 128.908C102.34 129.463 101.991 129.946 101.539 130.303C101.329 130.457 101.095 130.573 100.888 130.735C100.716 130.898 100.531 131.045 100.337 131.176C100.2 131.242 100.058 131.298 99.9134 131.343C99.7013 131.421 99.4985 131.525 99.3091 131.652C99.143 131.755 99.0021 131.898 98.8977 132.068C98.8473 132.155 98.8177 132.253 98.8115 132.355C98.8053 132.456 98.8227 132.558 98.8622 132.65C98.9046 132.726 98.9616 132.791 99.0295 132.841C99.0973 132.892 99.1745 132.927 99.2559 132.944C99.4218 132.973 99.5908 132.977 99.7579 132.956C100.421 132.904 101.083 132.842 101.744 132.779C102.024 132.761 102.302 132.721 102.577 132.659C102.722 132.621 102.864 132.571 103.008 132.532C103.256 132.465 103.51 132.426 103.766 132.415C103.84 132.409 103.915 132.417 103.986 132.438C104.14 132.49 104.248 132.646 104.406 132.684C104.507 132.695 104.609 132.681 104.705 132.642C105.189 132.534 105.682 132.479 106.177 132.48C106.394 132.467 106.65 132.424 106.748 132.218C106.872 131.962 106.667 131.675 106.585 131.401C106.544 131.225 106.521 131.045 106.516 130.864C106.478 130.418 106.355 129.984 106.152 129.59C105.982 129.261 105.758 128.9 105.87 128.55C105.93 128.441 105.969 128.32 105.982 128.195C105.955 127.631 104.728 127.839 104.429 127.764Z" fill="#2F2E41"/>
<path d="M116.539 117.913C115.895 117.613 115.379 117.072 115.091 116.393C115.031 116.248 114.98 116.096 114.923 115.948C114.732 115.46 114.435 115.026 114.057 114.68C114.017 114.633 113.967 114.596 113.912 114.571C113.856 114.546 113.796 114.535 113.736 114.537C113.678 114.555 113.626 114.589 113.584 114.636C113.543 114.683 113.514 114.74 113.5 114.803C113.466 114.938 113.458 115.08 113.474 115.219C113.508 115.541 113.561 115.861 113.632 116.177L113.809 117.025C113.831 117.156 113.868 117.283 113.919 117.404C113.995 117.546 114.095 117.672 114.215 117.776C114.376 117.934 114.539 118.086 114.705 118.233C114.796 118.321 114.896 118.397 115.002 118.462C115.177 118.55 115.363 118.607 115.555 118.633C116.278 118.774 117.012 118.978 117.62 119.464C117.62 119.464 117.62 118.897 117.606 118.841C117.599 118.676 117.545 118.518 117.453 118.385C117.224 118.125 116.831 118.048 116.539 117.913Z" fill="#FBBEBE"/>
<path opacity="0.1" d="M116.539 117.913C115.895 117.613 115.379 117.072 115.091 116.393C115.031 116.248 114.98 116.096 114.923 115.948C114.732 115.46 114.435 115.026 114.057 114.68C114.017 114.633 113.967 114.596 113.912 114.571C113.856 114.546 113.796 114.535 113.736 114.537C113.678 114.555 113.626 114.589 113.584 114.636C113.543 114.683 113.514 114.74 113.5 114.803C113.466 114.938 113.458 115.08 113.474 115.219C113.508 115.541 113.561 115.861 113.632 116.177L113.809 117.025C113.831 117.156 113.868 117.283 113.919 117.404C113.995 117.546 114.095 117.672 114.215 117.776C114.376 117.934 114.539 118.086 114.705 118.233C114.796 118.321 114.896 118.397 115.002 118.462C115.177 118.55 115.363 118.607 115.555 118.633C116.278 118.774 117.012 118.978 117.62 119.464C117.62 119.464 117.62 118.897 117.606 118.841C117.599 118.676 117.545 118.518 117.453 118.385C117.224 118.125 116.831 118.048 116.539 117.913Z" fill="black"/>
<path d="M123.941 111.426C124.429 111.426 124.825 111.006 124.825 110.486C124.825 109.967 124.429 109.547 123.941 109.547C123.453 109.547 123.057 109.967 123.057 110.486C123.057 111.006 123.453 111.426 123.941 111.426Z" fill="#2F2E41"/>
<path d="M123.394 109.919C123.156 109.862 122.907 109.9 122.695 110.025C122.593 110.12 122.511 110.238 122.457 110.37C122.258 110.729 122.103 111.113 121.996 111.514C121.917 111.857 121.904 112.214 121.799 112.553C121.618 113.177 121.154 113.707 121.1 114.358C121.077 114.649 121.122 114.992 120.921 115.19C120.871 115.234 120.818 115.273 120.762 115.308C120.622 115.407 120.503 115.536 120.413 115.686C120.353 115.821 120.27 115.943 120.167 116.046C119.986 116.188 119.689 116.173 119.6 116.391C119.512 116.61 119.74 116.863 119.687 117.1C119.644 117.294 119.439 117.383 119.293 117.516C119.127 117.702 119.011 117.931 118.957 118.179C118.661 118.238 118.357 118.229 118.065 118.152C117.773 118.074 117.5 117.931 117.266 117.732C117.512 118.375 117.518 119.084 117.528 119.776C117.556 119.998 117.5 120.222 117.372 120.4C118.077 120.417 118.762 120.608 119.449 120.78C119.743 120.884 120.061 120.884 120.354 120.78C120.511 120.691 120.652 120.573 120.77 120.431C121.144 120.03 121.535 119.599 121.626 119.04C121.65 118.725 121.655 118.41 121.642 118.094C121.678 117.705 121.754 117.321 121.868 116.949C122.066 116.176 122.198 115.386 122.262 114.589C122.303 114.096 122.705 113.701 122.917 113.26C123.311 112.428 123.724 111.566 123.756 110.634C123.783 110.331 123.685 109.958 123.394 109.919Z" fill="#2F2E41"/>
<path opacity="0.1" d="M123.394 109.919C123.156 109.862 122.907 109.9 122.695 110.025C122.593 110.12 122.511 110.238 122.457 110.37C122.258 110.729 122.103 111.113 121.996 111.514C121.917 111.857 121.904 112.214 121.799 112.553C121.618 113.177 121.154 113.707 121.1 114.358C121.077 114.649 121.122 114.992 120.921 115.19C120.871 115.234 120.818 115.273 120.762 115.308C120.622 115.407 120.503 115.536 120.413 115.686C120.353 115.821 120.27 115.943 120.167 116.046C119.986 116.188 119.689 116.173 119.6 116.391C119.512 116.61 119.74 116.863 119.687 117.1C119.644 117.294 119.439 117.383 119.293 117.516C119.127 117.702 119.011 117.931 118.957 118.179C118.661 118.238 118.357 118.229 118.065 118.152C117.773 118.074 117.5 117.931 117.266 117.732C117.512 118.375 117.518 119.084 117.528 119.776C117.556 119.998 117.5 120.222 117.372 120.4C118.077 120.417 118.762 120.608 119.449 120.78C119.743 120.884 120.061 120.884 120.354 120.78C120.511 120.691 120.652 120.573 120.77 120.431C121.144 120.03 121.535 119.599 121.626 119.04C121.65 118.725 121.655 118.41 121.642 118.094C121.678 117.705 121.754 117.321 121.868 116.949C122.066 116.176 122.198 115.386 122.262 114.589C122.303 114.096 122.705 113.701 122.917 113.26C123.311 112.428 123.724 111.566 123.756 110.634C123.783 110.331 123.685 109.958 123.394 109.919Z" fill="black"/>
<path d="M122.567 124.881C121.809 124.5 121.256 123.791 120.644 123.184C119.474 122.024 118.045 121.205 116.817 120.117C116.004 119.398 115.276 118.56 114.38 117.957C113.592 117.426 112.699 117.095 111.77 116.99C111.664 116.971 111.555 116.976 111.451 117.007C111.333 117.062 111.231 117.148 111.154 117.256C110.757 117.729 110.404 118.24 110.1 118.784C108.543 121.575 106.333 123.922 104.5 126.519C104.441 126.58 104.406 126.662 104.402 126.749C104.398 126.836 104.425 126.922 104.478 126.989L104.85 127.76C105.059 128.191 105.394 128.694 105.835 128.608C106.037 128.547 106.218 128.425 106.356 128.257L108.03 126.567L109.783 124.795C110.811 123.756 111.856 122.695 112.528 121.369C113.051 122.327 113.98 122.955 114.618 123.835C114.86 124.167 115.057 124.535 115.274 124.889C115.622 125.456 116.016 125.989 116.409 126.519L118.423 129.232C118.677 129.619 118.992 129.956 119.354 130.23C119.831 130.548 120.411 130.634 120.972 130.686C121.728 130.758 122.487 130.787 123.246 130.773C123.825 130.762 124.427 130.723 124.939 130.451C125.451 130.178 125.886 129.619 125.858 129.01C125.827 128.69 125.728 128.383 125.569 128.109C124.858 126.716 123.917 125.552 122.567 124.881Z" fill="#2F2E41"/>
<path d="M124.484 111.859C124.859 111.859 125.163 111.536 125.163 111.137C125.163 110.739 124.859 110.416 124.484 110.416C124.109 110.416 123.805 110.739 123.805 111.137C123.805 111.536 124.109 111.859 124.484 111.859Z" fill="#E8E8F0"/>
<path d="M124.335 110.595C124.488 110.917 124.515 111.291 124.409 111.634C124.304 111.972 124.158 112.294 123.972 112.591C123.813 112.897 123.622 113.185 123.404 113.447C124.453 113.501 125.47 113.067 126.396 112.539C127.142 112.123 127.886 111.593 128.283 110.8C128.165 110.83 128.042 110.834 127.923 110.81C127.803 110.787 127.689 110.738 127.589 110.665C127.388 110.518 127.209 110.342 127.055 110.141L126.53 109.518C126.405 109.381 126.296 109.229 126.205 109.066C126.09 108.845 126.041 108.592 126.065 108.341C125.856 108.572 125.622 108.777 125.368 108.952C124.992 109.212 124.581 109.399 124.201 109.655C124.067 109.746 123.77 109.894 123.846 110.071C123.923 110.247 124.228 110.395 124.335 110.595Z" fill="#FBBEBE"/>
<path opacity="0.1" d="M124.335 110.595C124.488 110.917 124.515 111.291 124.409 111.634C124.304 111.972 124.158 112.294 123.972 112.591C123.813 112.897 123.622 113.185 123.404 113.447C124.453 113.501 125.47 113.067 126.396 112.539C127.142 112.123 127.886 111.593 128.283 110.8C128.165 110.83 128.042 110.834 127.923 110.81C127.803 110.787 127.689 110.738 127.589 110.665C127.388 110.518 127.209 110.342 127.055 110.141L126.53 109.518C126.405 109.381 126.296 109.229 126.205 109.066C126.09 108.845 126.041 108.592 126.065 108.341C125.856 108.572 125.622 108.777 125.368 108.952C124.992 109.212 124.581 109.399 124.201 109.655C124.067 109.746 123.77 109.894 123.846 110.071C123.923 110.247 124.228 110.395 124.335 110.595Z" fill="black"/>
<path d="M124.348 110.703C124.242 110.861 124.185 111.05 124.185 111.244C124.185 111.438 124.242 111.628 124.348 111.786C124.378 111.825 124.49 112.073 124.545 112.075C124.592 112.071 124.635 112.048 124.665 112.01C124.903 111.748 125.125 111.47 125.331 111.179C125.538 110.884 125.838 110.676 126.177 110.593C126.589 110.524 126.984 110.755 127.344 110.975C127.499 111.056 127.634 111.174 127.738 111.32C127.814 111.465 127.859 111.625 127.87 111.79C127.973 112.781 128.013 113.779 127.988 114.776C128.007 115.495 127.963 116.214 127.854 116.924C127.787 117.289 127.687 117.647 127.64 118.017C127.605 118.343 127.591 118.671 127.598 118.999V120.371C127.59 120.622 127.607 120.874 127.65 121.121C127.731 121.417 127.826 121.707 127.935 121.993C128.031 122.332 128.097 122.68 128.132 123.032L128.309 124.452C128.366 124.901 128.407 125.39 128.15 125.75C128.035 125.914 127.882 126.043 127.756 126.205C127.313 126.8 127.461 127.662 127.264 128.401C127.118 128.942 126.82 129.424 126.409 129.783C126.096 130.064 125.691 130.286 125.285 130.199C124.74 130.091 124.411 129.49 124.262 128.922C124.112 128.355 124.065 127.735 123.736 127.259C123.472 126.866 123.065 126.621 122.697 126.34C122.329 126.059 121.967 125.7 121.886 125.226C121.85 125.018 121.872 124.81 121.852 124.602C121.823 124.337 121.727 124.085 121.574 123.873C121.421 123.661 121.216 123.496 120.982 123.396C120.703 123.282 120.356 123.24 120.195 122.98C120.596 122.714 120.888 122.3 121.014 121.818C121.136 121.343 121.202 120.854 121.211 120.362L121.305 118.712C121.346 117.974 121.366 117.242 121.673 116.578C121.811 116.283 121.982 116.005 122.124 115.711C122.314 115.3 122.476 114.875 122.608 114.439C122.831 113.763 123.055 113.085 123.254 112.401C123.333 112.07 123.453 111.751 123.608 111.451C123.791 111.139 124.033 110.765 124.348 110.703Z" fill="#E8E8F0"/>
<path d="M120.878 121.429L121.291 121.444L121.38 120.785C121.392 120.653 121.421 120.523 121.467 120.4C121.535 120.27 121.615 120.147 121.705 120.032C122.112 119.425 122.083 118.618 122.183 117.88C122.317 116.897 122.707 115.973 123.093 115.067L123.896 113.177C123.967 113.022 124.025 112.859 124.067 112.692C124.102 112.508 124.119 112.321 124.116 112.133C124.116 111.842 124.207 110.78 124.213 110.486C124.213 110.378 123.988 110.439 123.941 110.343C123.841 110.135 123.703 110.701 123.514 110.825C123.336 110.969 123.206 111.17 123.144 111.397C122.97 111.873 122.864 112.374 122.703 112.853C122.561 113.342 122.303 113.785 121.953 114.14C121.789 114.293 121.598 114.414 121.443 114.576C120.943 115.098 120.896 115.921 120.878 116.655C120.866 117.111 120.785 121.429 120.878 121.429Z" fill="#2F2E41"/>
<path d="M126.833 109.915C126.439 110.081 126.211 110.538 126.098 110.983C125.986 111.428 125.939 111.898 125.722 112.293C125.219 113.221 123.933 113.491 123.577 114.493C123.486 114.831 123.438 115.181 123.433 115.533C123.37 116.25 123.146 116.944 123.079 117.662C123.044 118.22 123.057 118.78 123.116 119.335L123.567 124.997C123.654 125.831 123.608 126.674 123.431 127.492C123.893 127.562 124.365 127.48 124.782 127.257C125.205 127.049 125.591 126.775 125.996 126.538C126.695 126.122 127.467 125.841 128.077 125.29C128.187 125.199 128.283 125.089 128.358 124.964C128.456 124.726 128.522 124.474 128.555 124.217C128.607 124.017 128.673 123.821 128.752 123.631C128.978 123.06 129.175 122.477 129.343 121.884C129.457 121.491 129.547 121.09 129.612 120.685C129.661 120.363 129.687 120.036 129.715 119.712C129.746 119.202 129.842 118.698 130 118.215C130.39 117.062 130.612 115.852 130.656 114.628C130.669 114.451 130.658 114.273 130.622 114.1C130.554 113.89 130.463 113.689 130.35 113.501C130.163 113.129 130.051 112.72 129.874 112.343C129.48 111.491 128.774 110.844 128.035 110.301C127.657 110.037 127.242 109.75 126.833 109.915Z" fill="#2F2E41"/>
<path d="M117.435 119.152C117.115 118.976 116.826 118.744 116.579 118.466C116.467 118.327 116.382 118.171 116.26 118.034C115.971 117.708 115.596 117.482 115.183 117.385C114.773 117.29 114.354 117.247 113.935 117.258C113.655 117.238 113.374 117.274 113.106 117.364C112.972 117.411 112.851 117.492 112.755 117.601C112.658 117.71 112.59 117.843 112.555 117.988C112.494 118.342 112.713 118.685 112.974 118.909C113.218 119.119 113.504 119.267 113.811 119.34C114.061 119.385 114.314 119.417 114.567 119.433C116.055 119.597 117.384 120.452 118.687 121.232C119.833 121.915 121.001 122.555 122.191 123.151C122.238 122.774 122.258 122.395 122.25 122.015C122.25 121.733 122.23 121.3 121.976 121.134C121.681 120.938 121.189 120.895 120.862 120.778C120.095 120.514 119.346 120.194 118.62 119.822C118.209 119.612 117.815 119.389 117.435 119.152Z" fill="#FBBEBE"/>
<path d="M123.941 110.272C125.405 110.272 126.593 109.011 126.593 107.455C126.593 105.899 125.405 104.638 123.941 104.638C122.477 104.638 121.289 105.899 121.289 107.455C121.289 109.011 122.477 110.272 123.941 110.272Z" fill="#FBBEBE"/>
<path d="M127.591 113.108C127.38 113.422 127.207 113.762 127.077 114.121C126.748 114.834 126.234 115.445 125.978 116.2C125.707 116.984 125.717 117.917 125.191 118.535C125.085 118.629 125.006 118.751 124.961 118.888C124.957 118.974 124.948 119.06 124.933 119.144C124.858 119.369 124.51 119.379 124.445 119.608C124.427 119.674 124.445 119.747 124.413 119.816C124.36 119.963 124.177 119.984 124.053 120.073C123.795 120.259 123.856 120.687 123.659 120.953C123.579 121.052 123.476 121.126 123.36 121.17C123.244 121.213 123.119 121.223 122.998 121.198C122.757 121.145 122.524 121.053 122.309 120.926C122.233 120.881 122.15 120.853 122.063 120.845C121.96 120.847 121.861 120.883 121.778 120.947C121.287 121.275 121.057 121.928 121.061 122.544C121.096 123.159 121.234 123.763 121.469 124.327C121.496 124.425 121.542 124.516 121.604 124.594C121.766 124.774 122.049 124.745 122.266 124.643C122.469 124.517 122.685 124.415 122.909 124.34C123.319 124.261 123.72 124.56 124.136 124.535C124.44 124.487 124.726 124.353 124.965 124.149C125.386 123.878 125.764 123.538 126.083 123.14C126.264 122.889 126.398 122.602 126.557 122.334C126.761 122.004 126.984 121.689 127.226 121.39L128.756 119.412C128.909 119.225 129.047 119.024 129.167 118.811C129.305 118.524 129.413 118.221 129.488 117.909C129.652 117.388 129.758 116.849 129.805 116.302C129.813 115.849 129.775 115.397 129.693 114.953C129.642 114.511 129.531 114.079 129.364 113.67C129.024 112.942 128.215 112.339 127.591 113.108Z" fill="#2F2E41"/>
<path d="M132.917 109.439C132.919 108.939 132.809 108.446 132.596 108.001C132.382 107.555 132.071 107.169 131.689 106.875C131.677 105.988 131.368 105.135 130.816 104.466C130.264 103.798 129.505 103.359 128.675 103.226C128.515 102.386 128.079 101.633 127.444 101.099C126.809 100.566 126.016 100.286 125.205 100.309C124.394 100.332 123.617 100.657 123.011 101.226C122.404 101.795 122.007 102.572 121.89 103.419C120.787 103.157 119.78 103.498 119.596 104.216C119.4 104.966 120.187 105.844 121.352 106.176C121.718 106.285 122.098 106.326 122.476 106.295C122.747 106.715 123.099 107.071 123.507 107.34C123.916 107.608 124.374 107.783 124.85 107.854C124.99 108.532 125.307 109.156 125.764 109.654C126.222 110.153 126.802 110.507 127.439 110.676C127.615 111.126 127.889 111.526 128.238 111.844C128.238 111.932 128.224 112.021 128.224 112.112C128.212 112.432 128.26 112.751 128.367 113.05C128.475 113.35 128.638 113.623 128.847 113.854C129.057 114.085 129.309 114.268 129.587 114.394C129.866 114.519 130.166 114.584 130.469 114.584C130.771 114.584 131.071 114.519 131.35 114.394C131.628 114.268 131.88 114.085 132.09 113.854C132.299 113.623 132.462 113.35 132.57 113.05C132.677 112.751 132.725 112.432 132.713 112.112C132.713 111.754 132.639 111.399 132.498 111.073C132.775 110.578 132.92 110.013 132.917 109.439Z" fill="#F86D70"/>
<path opacity="0.1" d="M120.344 104.359C120.528 103.642 121.526 103.301 122.638 103.563C122.767 102.702 123.18 101.917 123.805 101.346C124.429 100.775 125.224 100.456 126.049 100.444C126.126 100.444 126.203 100.444 126.278 100.444C125.959 100.341 125.627 100.289 125.293 100.29C124.468 100.302 123.673 100.621 123.049 101.192C122.425 101.763 122.011 102.548 121.882 103.409C120.78 103.147 119.772 103.488 119.589 104.205C119.392 104.956 120.179 105.833 121.344 106.166C121.561 106.229 121.783 106.27 122.008 106.287C120.902 105.946 120.157 105.093 120.344 104.359Z" fill="black"/>
<path opacity="0.1" d="M128.972 112.258C128.972 112.166 128.972 112.077 128.986 111.988C128.637 111.67 128.363 111.271 128.187 110.821C127.55 110.65 126.971 110.296 126.514 109.797C126.056 109.299 125.74 108.676 125.598 107.998C125.122 107.927 124.664 107.752 124.255 107.484C123.846 107.215 123.495 106.859 123.224 106.438C123.004 106.457 122.782 106.451 122.563 106.42C122.835 106.807 123.177 107.133 123.57 107.38C123.963 107.626 124.398 107.787 124.85 107.854C124.99 108.532 125.307 109.156 125.764 109.654C126.222 110.153 126.802 110.507 127.439 110.676C127.615 111.126 127.889 111.526 128.238 111.844C128.238 111.932 128.224 112.021 128.224 112.112C128.214 112.75 128.443 113.366 128.862 113.825C129.28 114.285 129.853 114.551 130.457 114.566C130.016 114.386 129.638 114.069 129.373 113.657C129.108 113.245 128.968 112.756 128.972 112.258Z" fill="black"/>
<path d="M125.154 108.487C125.334 108.343 125.332 108.02 125.15 107.767C124.968 107.514 124.674 107.426 124.494 107.57C124.314 107.715 124.316 108.037 124.498 108.29C124.68 108.544 124.974 108.632 125.154 108.487Z" fill="#FBBEBE"/>
<path d="M61.7716 122.506L64.3937 120.878C64.0393 120.238 63.5862 119.666 63.0531 119.184L58.1083 120.807L61.9823 118.402C61.023 117.847 59.9434 117.566 58.8498 117.585C57.7563 117.605 56.6864 117.925 55.7454 118.514C54.8045 119.103 54.0249 119.94 53.4835 120.944C52.9421 121.948 52.6574 123.083 52.6575 124.238C52.6575 127.912 55.4783 128.039 58.9567 128.039C62.435 128.039 65.2559 127.912 65.2559 124.238C65.258 123.307 65.0735 122.386 64.7146 121.535L61.7716 122.506Z" fill="#FFD682"/>
<path opacity="0.1" d="M62.439 126.078C62.1597 125.783 61.8478 125.524 61.5098 125.307C61.0354 124.972 60.5413 124.631 59.9803 124.519C59.4882 124.419 58.9803 124.504 58.4783 124.473C57.6067 124.417 56.7863 124.019 56.1772 123.359C55.8189 122.968 55.5374 122.487 55.1063 122.188C54.6245 121.886 54.0559 121.776 53.5039 121.878C53.3439 121.902 53.1855 121.936 53.0295 121.98C52.7828 122.704 52.6569 123.468 52.6575 124.238C52.6575 127.912 55.4783 128.039 58.9567 128.039C60.6457 128.039 62.1772 128.01 63.309 127.558L63.1122 127.186C62.9334 126.788 62.7072 126.416 62.439 126.078Z" fill="black"/>
<path d="M2.736 26.368L7.28 21.856C7.44 21.7067 7.59467 21.5467 7.744 21.376C7.89333 21.1947 8.02667 21.008 8.144 20.816C8.26133 20.624 8.352 20.4213 8.416 20.208C8.49067 19.9947 8.528 19.7707 8.528 19.536C8.528 19.2587 8.47467 19.008 8.368 18.784C8.272 18.56 8.13333 18.3733 7.952 18.224C7.78133 18.064 7.57333 17.9413 7.328 17.856C7.09333 17.7707 6.84267 17.728 6.576 17.728C6.02133 17.728 5.56267 17.8827 5.2 18.192C4.83733 18.5013 4.608 18.928 4.512 19.472L2.848 19.328C2.92267 18.8267 3.06667 18.3947 3.28 18.032C3.504 17.6587 3.776 17.3493 4.096 17.104C4.42667 16.8587 4.8 16.6773 5.216 16.56C5.64267 16.4427 6.10133 16.384 6.592 16.384C7.08267 16.384 7.54133 16.4533 7.968 16.592C8.40533 16.72 8.784 16.9173 9.104 17.184C9.43467 17.44 9.69067 17.7653 9.872 18.16C10.064 18.544 10.16 18.9973 10.16 19.52C10.16 19.8933 10.1013 20.2453 9.984 20.576C9.87733 20.896 9.73333 21.2 9.552 21.488C9.37067 21.776 9.16267 22.048 8.928 22.304C8.69333 22.56 8.448 22.8107 8.192 23.056L4.464 26.656H10.16V28H2.736V26.368ZM11.4346 22.336C11.4346 21.92 11.456 21.488 11.4986 21.04C11.5413 20.592 11.616 20.1547 11.7226 19.728C11.84 19.2907 11.9893 18.8747 12.1706 18.48C12.3626 18.0853 12.6026 17.744 12.8906 17.456C13.1893 17.1573 13.536 16.9227 13.9306 16.752C14.336 16.5707 14.8053 16.48 15.3386 16.48C15.872 16.48 16.336 16.5707 16.7306 16.752C17.136 16.9227 17.4826 17.1573 17.7706 17.456C18.0693 17.744 18.3093 18.0853 18.4906 18.48C18.6826 18.8747 18.832 19.2907 18.9386 19.728C19.056 20.1547 19.136 20.592 19.1786 21.04C19.2213 21.488 19.2426 21.92 19.2426 22.336C19.2426 22.9333 19.1893 23.5733 19.0826 24.256C18.976 24.9387 18.7786 25.5733 18.4906 26.16C18.2026 26.7467 17.8026 27.232 17.2906 27.616C16.7893 28 16.1386 28.192 15.3386 28.192C14.5386 28.192 13.8826 28 13.3706 27.616C12.8693 27.232 12.4746 26.7467 12.1866 26.16C11.8986 25.5733 11.7013 24.9387 11.5946 24.256C11.488 23.5733 11.4346 22.9333 11.4346 22.336ZM12.9706 22.336C12.9706 22.7093 12.992 23.152 13.0346 23.664C13.088 24.176 13.1946 24.672 13.3546 25.152C13.5146 25.6213 13.7493 26.0213 14.0586 26.352C14.3786 26.6827 14.8053 26.848 15.3386 26.848C15.872 26.848 16.2933 26.6827 16.6026 26.352C16.9226 26.0213 17.1626 25.6213 17.3226 25.152C17.4826 24.672 17.584 24.176 17.6266 23.664C17.68 23.152 17.7066 22.7093 17.7066 22.336C17.7066 22.08 17.696 21.792 17.6746 21.472C17.664 21.1413 17.6266 20.8107 17.5626 20.48C17.5093 20.1387 17.4293 19.8133 17.3226 19.504C17.216 19.184 17.072 18.9013 16.8906 18.656C16.72 18.4 16.5066 18.1973 16.2506 18.048C15.9946 17.8987 15.6906 17.824 15.3386 17.824C14.9866 17.824 14.6826 17.8987 14.4266 18.048C14.1706 18.1973 13.952 18.4 13.7706 18.656C13.6 18.9013 13.4613 19.184 13.3546 19.504C13.248 19.8133 13.1626 20.1387 13.0986 20.48C13.0453 20.8107 13.008 21.1413 12.9866 21.472C12.976 21.792 12.9706 22.08 12.9706 22.336ZM27.9944 28.496L27.0344 28L34.1544 16.16L35.1144 16.656L27.9944 28.496ZM24.8264 19.216C24.8264 18.8213 24.901 18.4533 25.0504 18.112C25.1997 17.7707 25.4024 17.472 25.6584 17.216C25.9144 16.96 26.213 16.7573 26.5544 16.608C26.8957 16.4587 27.2637 16.384 27.6584 16.384C28.053 16.384 28.421 16.4587 28.7624 16.608C29.1037 16.7573 29.4024 16.96 29.6584 17.216C29.9144 17.472 30.117 17.7707 30.2664 18.112C30.4157 18.4533 30.4904 18.8213 30.4904 19.216C30.4904 19.6107 30.4157 19.9787 30.2664 20.32C30.117 20.6613 29.9144 20.96 29.6584 21.216C29.4024 21.472 29.1037 21.6747 28.7624 21.824C28.421 21.9733 28.053 22.048 27.6584 22.048C27.2637 22.048 26.8957 21.9733 26.5544 21.824C26.213 21.6747 25.9144 21.472 25.6584 21.216C25.4024 20.96 25.1997 20.6613 25.0504 20.32C24.901 19.9787 24.8264 19.6107 24.8264 19.216ZM26.0744 19.216C26.0744 19.664 26.2237 20.0427 26.5224 20.352C26.8317 20.6507 27.2104 20.8 27.6584 20.8C28.1064 20.8 28.4797 20.6507 28.7784 20.352C29.0877 20.0427 29.2424 19.664 29.2424 19.216C29.2424 18.768 29.0877 18.3947 28.7784 18.096C28.4797 17.7867 28.1064 17.632 27.6584 17.632C27.2104 17.632 26.8317 17.7867 26.5224 18.096C26.2237 18.3947 26.0744 18.768 26.0744 19.216ZM31.6104 25.456C31.6104 25.0613 31.685 24.6933 31.8344 24.352C31.9837 24.0107 32.1864 23.712 32.4424 23.456C32.6984 23.2 32.997 22.9973 33.3384 22.848C33.6797 22.6987 34.0477 22.624 34.4424 22.624C34.837 22.624 35.205 22.6987 35.5464 22.848C35.8877 22.9973 36.1864 23.2 36.4424 23.456C36.6984 23.712 36.901 24.0107 37.0504 24.352C37.1997 24.6933 37.2744 25.0613 37.2744 25.456C37.2744 25.8507 37.1997 26.2187 37.0504 26.56C36.901 26.9013 36.6984 27.2 36.4424 27.456C36.1864 27.712 35.8877 27.9147 35.5464 28.064C35.205 28.2133 34.837 28.288 34.4424 28.288C34.0477 28.288 33.6797 28.2133 33.3384 28.064C32.997 27.9147 32.6984 27.712 32.4424 27.456C32.1864 27.2 31.9837 26.9013 31.8344 26.56C31.685 26.2187 31.6104 25.8507 31.6104 25.456ZM32.8584 25.456C32.8584 25.904 33.0077 26.2827 33.3064 26.592C33.6157 26.8907 33.9944 27.04 34.4424 27.04C34.8904 27.04 35.2637 26.8907 35.5624 26.592C35.8717 26.2827 36.0264 25.904 36.0264 25.456C36.0264 25.008 35.8717 24.6347 35.5624 24.336C35.2637 24.0267 34.8904 23.872 34.4424 23.872C33.9944 23.872 33.6157 24.0267 33.3064 24.336C33.0077 24.6347 32.8584 25.008 32.8584 25.456ZM48.9685 28.288C48.1045 28.288 47.3098 28.1387 46.5845 27.84C45.8592 27.5307 45.2352 27.1093 44.7125 26.576C44.2005 26.0427 43.7952 25.4133 43.4965 24.688C43.2085 23.9627 43.0645 23.1787 43.0645 22.336C43.0645 21.4933 43.2085 20.7093 43.4965 19.984C43.7952 19.2587 44.2005 18.6293 44.7125 18.096C45.2352 17.5627 45.8592 17.1467 46.5845 16.848C47.3098 16.5387 48.1045 16.384 48.9685 16.384C49.8325 16.384 50.6272 16.5387 51.3525 16.848C52.0778 17.1467 52.6965 17.5627 53.2085 18.096C53.7312 18.6293 54.1365 19.2587 54.4245 19.984C54.7232 20.7093 54.8725 21.4933 54.8725 22.336C54.8725 23.1787 54.7232 23.9627 54.4245 24.688C54.1365 25.4133 53.7312 26.0427 53.2085 26.576C52.6965 27.1093 52.0778 27.5307 51.3525 27.84C50.6272 28.1387 49.8325 28.288 48.9685 28.288ZM48.9685 26.848C49.6192 26.848 50.2058 26.7307 50.7285 26.496C51.2512 26.2507 51.6992 25.9253 52.0725 25.52C52.4458 25.1147 52.7338 24.64 52.9365 24.096C53.1392 23.5413 53.2405 22.9547 53.2405 22.336C53.2405 21.7173 53.1392 21.136 52.9365 20.592C52.7338 20.0373 52.4458 19.5573 52.0725 19.152C51.6992 18.7467 51.2512 18.4267 50.7285 18.192C50.2058 17.9467 49.6192 17.824 48.9685 17.824C48.3178 17.824 47.7312 17.9467 47.2085 18.192C46.6858 18.4267 46.2378 18.7467 45.8645 19.152C45.4912 19.5573 45.2032 20.0373 45.0005 20.592C44.7978 21.136 44.6965 21.7173 44.6965 22.336C44.6965 22.9547 44.7978 23.5413 45.0005 24.096C45.2032 24.64 45.4912 25.1147 45.8645 25.52C46.2378 25.9253 46.6858 26.2507 47.2085 26.496C47.7312 26.7307 48.3178 26.848 48.9685 26.848ZM57.273 21.664H55.641V20.416H57.273V18.72C57.273 17.7067 57.465 16.9547 57.849 16.464C58.2437 15.9627 58.9157 15.712 59.865 15.712C60.025 15.712 60.1903 15.7173 60.361 15.728C60.5423 15.7387 60.7343 15.7707 60.937 15.824L60.777 17.104C60.6383 17.0507 60.505 17.0133 60.377 16.992C60.249 16.9707 60.1103 16.96 59.961 16.96C59.6943 16.96 59.481 17.0027 59.321 17.088C59.161 17.1627 59.033 17.2747 58.937 17.424C58.8517 17.5733 58.793 17.7547 58.761 17.968C58.7397 18.1707 58.729 18.4053 58.729 18.672V20.416H60.441V21.664H58.713V28H57.273V21.664ZM62.3199 21.664H60.6879V20.416H62.3199V18.72C62.3199 17.7067 62.5119 16.9547 62.8959 16.464C63.2905 15.9627 63.9625 15.712 64.9119 15.712C65.0719 15.712 65.2372 15.7173 65.4079 15.728C65.5892 15.7387 65.7812 15.7707 65.9839 15.824L65.8239 17.104C65.6852 17.0507 65.5519 17.0133 65.4239 16.992C65.2959 16.9707 65.1572 16.96 65.0079 16.96C64.7412 16.96 64.5279 17.0027 64.3679 17.088C64.2079 17.1627 64.0799 17.2747 63.9839 17.424C63.8985 17.5733 63.8399 17.7547 63.8079 17.968C63.7865 18.1707 63.7759 18.4053 63.7759 18.672V20.416H65.4879V21.664H63.7599V28H62.3199V21.664ZM72.7091 24.208C72.7091 24.592 72.7678 24.9493 72.8851 25.28C73.0025 25.6 73.1678 25.8773 73.3811 26.112C73.5945 26.336 73.8558 26.5173 74.1651 26.656C74.4745 26.784 74.8211 26.848 75.2051 26.848C75.5891 26.848 75.9358 26.784 76.2451 26.656C76.5545 26.5173 76.8158 26.336 77.0291 26.112C77.2425 25.8773 77.4078 25.6 77.5251 25.28C77.6425 24.9493 77.7011 24.592 77.7011 24.208C77.7011 23.824 77.6425 23.472 77.5251 23.152C77.4078 22.8213 77.2425 22.544 77.0291 22.32C76.8158 22.0853 76.5545 21.904 76.2451 21.776C75.9358 21.6373 75.5891 21.568 75.2051 21.568C74.8211 21.568 74.4745 21.6373 74.1651 21.776C73.8558 21.904 73.5945 22.0853 73.3811 22.32C73.1678 22.544 73.0025 22.8213 72.8851 23.152C72.7678 23.472 72.7091 23.824 72.7091 24.208ZM71.1731 24.208C71.1731 23.6533 71.2745 23.136 71.4771 22.656C71.6905 22.176 71.9785 21.7547 72.3411 21.392C72.7038 21.0293 73.1305 20.7467 73.6211 20.544C74.1118 20.3307 74.6398 20.224 75.2051 20.224C75.7705 20.224 76.2985 20.3307 76.7891 20.544C77.2798 20.7467 77.7065 21.0293 78.0691 21.392C78.4318 21.7547 78.7145 22.176 78.9171 22.656C79.1305 23.136 79.2371 23.6533 79.2371 24.208C79.2371 24.7627 79.1305 25.2853 78.9171 25.776C78.7145 26.256 78.4318 26.6773 78.0691 27.04C77.7065 27.392 77.2798 27.6747 76.7891 27.888C76.2985 28.0907 75.7705 28.192 75.2051 28.192C74.6398 28.192 74.1118 28.0907 73.6211 27.888C73.1305 27.6747 72.7038 27.392 72.3411 27.04C71.9785 26.6773 71.6905 26.256 71.4771 25.776C71.2745 25.2853 71.1731 24.7627 71.1731 24.208ZM81.0411 20.416H82.4811V21.584H82.5131C82.6945 21.1787 83.0091 20.8533 83.4571 20.608C83.9051 20.352 84.4225 20.224 85.0091 20.224C85.3718 20.224 85.7185 20.2827 86.0491 20.4C86.3905 20.5067 86.6838 20.6773 86.9291 20.912C87.1851 21.1467 87.3878 21.4507 87.5371 21.824C87.6865 22.1867 87.7611 22.6187 87.7611 23.12V28H86.3211V23.52C86.3211 23.168 86.2731 22.8693 86.1771 22.624C86.0811 22.368 85.9531 22.1653 85.7931 22.016C85.6331 21.856 85.4465 21.744 85.2331 21.68C85.0305 21.6053 84.8171 21.568 84.5931 21.568C84.2945 21.568 84.0171 21.616 83.7611 21.712C83.5051 21.808 83.2811 21.9627 83.0891 22.176C82.8971 22.3787 82.7478 22.64 82.6411 22.96C82.5345 23.28 82.4811 23.6587 82.4811 24.096V28H81.0411V20.416ZM3.12 43.344C3.52533 42.9707 3.99467 42.6933 4.528 42.512C5.06133 42.32 5.59467 42.224 6.128 42.224C6.68267 42.224 7.15733 42.2933 7.552 42.432C7.95733 42.5707 8.288 42.7573 8.544 42.992C8.8 43.2267 8.98667 43.4987 9.104 43.808C9.232 44.1067 9.296 44.4213 9.296 44.752V48.624C9.296 48.8907 9.30133 49.136 9.312 49.36C9.32267 49.584 9.33867 49.7973 9.36 50H8.08C8.048 49.616 8.032 49.232 8.032 48.848H8C7.68 49.3387 7.30133 49.6853 6.864 49.888C6.42667 50.0907 5.92 50.192 5.344 50.192C4.992 50.192 4.656 50.144 4.336 50.048C4.016 49.952 3.73333 49.808 3.488 49.616C3.25333 49.424 3.06667 49.1893 2.928 48.912C2.78933 48.624 2.72 48.2933 2.72 47.92C2.72 47.4293 2.82667 47.0187 3.04 46.688C3.264 46.3573 3.56267 46.0907 3.936 45.888C4.32 45.6747 4.76267 45.5253 5.264 45.44C5.776 45.344 6.32 45.296 6.896 45.296H7.952V44.976C7.952 44.784 7.91467 44.592 7.84 44.4C7.76533 44.208 7.65333 44.0373 7.504 43.888C7.35467 43.728 7.168 43.6053 6.944 43.52C6.72 43.424 6.45333 43.376 6.144 43.376C5.86667 43.376 5.62133 43.4027 5.408 43.456C5.20533 43.5093 5.01867 43.5787 4.848 43.664C4.67733 43.7387 4.52267 43.8293 4.384 43.936C4.24533 44.0427 4.112 44.144 3.984 44.24L3.12 43.344ZM7.184 46.352C6.84267 46.352 6.49067 46.3733 6.128 46.416C5.776 46.448 5.45067 46.5173 5.152 46.624C4.864 46.7307 4.624 46.88 4.432 47.072C4.25067 47.264 4.16 47.5093 4.16 47.808C4.16 48.2453 4.304 48.56 4.592 48.752C4.89067 48.944 5.29067 49.04 5.792 49.04C6.18667 49.04 6.52267 48.976 6.8 48.848C7.07733 48.7093 7.30133 48.5333 7.472 48.32C7.64267 48.1067 7.76533 47.872 7.84 47.616C7.91467 47.3493 7.952 47.088 7.952 46.832V46.352H7.184ZM11.4969 37.904H12.9369V50H11.4969V37.904ZM15.3406 37.904H16.7806V50H15.3406V37.904ZM23.5255 42.416H24.9655V43.504H24.9975C25.2748 43.0987 25.6535 42.784 26.1335 42.56C26.6242 42.336 27.1255 42.224 27.6375 42.224C28.2242 42.224 28.7522 42.3253 29.2215 42.528C29.7015 42.7307 30.1068 43.0133 30.4375 43.376C30.7788 43.7387 31.0402 44.1653 31.2215 44.656C31.4028 45.136 31.4935 45.6533 31.4935 46.208C31.4935 46.7733 31.4028 47.3013 31.2215 47.792C31.0402 48.272 30.7788 48.6933 30.4375 49.056C30.1068 49.408 29.7015 49.6853 29.2215 49.888C28.7522 50.0907 28.2242 50.192 27.6375 50.192C27.0935 50.192 26.5815 50.08 26.1015 49.856C25.6215 49.6213 25.2535 49.3067 24.9975 48.912H24.9655V54.512H23.5255V42.416ZM27.4615 43.568C27.0775 43.568 26.7308 43.6373 26.4215 43.776C26.1122 43.904 25.8508 44.0853 25.6375 44.32C25.4242 44.544 25.2588 44.8213 25.1415 45.152C25.0242 45.472 24.9655 45.824 24.9655 46.208C24.9655 46.592 25.0242 46.9493 25.1415 47.28C25.2588 47.6 25.4242 47.8773 25.6375 48.112C25.8508 48.336 26.1122 48.5173 26.4215 48.656C26.7308 48.784 27.0775 48.848 27.4615 48.848C27.8455 48.848 28.1922 48.784 28.5015 48.656C28.8108 48.5173 29.0722 48.336 29.2855 48.112C29.4988 47.8773 29.6642 47.6 29.7815 47.28C29.8988 46.9493 29.9575 46.592 29.9575 46.208C29.9575 45.824 29.8988 45.472 29.7815 45.152C29.6642 44.8213 29.4988 44.544 29.2855 44.32C29.0722 44.0853 28.8108 43.904 28.5015 43.776C28.1922 43.6373 27.8455 43.568 27.4615 43.568ZM33.3068 42.416H34.7468V43.584H34.7788C34.8748 43.3813 35.0028 43.2 35.1628 43.04C35.3228 42.8693 35.4988 42.7253 35.6908 42.608C35.8934 42.4907 36.1121 42.4 36.3468 42.336C36.5814 42.2613 36.8161 42.224 37.0508 42.224C37.2854 42.224 37.4988 42.256 37.6908 42.32L37.6268 43.872C37.5094 43.84 37.3921 43.8133 37.2748 43.792C37.1574 43.7707 37.0401 43.76 36.9227 43.76C36.2188 43.76 35.6801 43.9573 35.3068 44.352C34.9334 44.7467 34.7468 45.36 34.7468 46.192V50H33.3068V42.416ZM40.1154 46.208C40.1154 46.592 40.174 46.9493 40.2914 47.28C40.4087 47.6 40.574 47.8773 40.7874 48.112C41.0007 48.336 41.262 48.5173 41.5714 48.656C41.8807 48.784 42.2274 48.848 42.6114 48.848C42.9954 48.848 43.342 48.784 43.6514 48.656C43.9607 48.5173 44.222 48.336 44.4354 48.112C44.6487 47.8773 44.814 47.6 44.9314 47.28C45.0487 46.9493 45.1074 46.592 45.1074 46.208C45.1074 45.824 45.0487 45.472 44.9314 45.152C44.814 44.8213 44.6487 44.544 44.4354 44.32C44.222 44.0853 43.9607 43.904 43.6514 43.776C43.342 43.6373 42.9954 43.568 42.6114 43.568C42.2274 43.568 41.8807 43.6373 41.5714 43.776C41.262 43.904 41.0007 44.0853 40.7874 44.32C40.574 44.544 40.4087 44.8213 40.2914 45.152C40.174 45.472 40.1154 45.824 40.1154 46.208ZM38.5794 46.208C38.5794 45.6533 38.6807 45.136 38.8834 44.656C39.0967 44.176 39.3847 43.7547 39.7474 43.392C40.11 43.0293 40.5367 42.7467 41.0274 42.544C41.518 42.3307 42.046 42.224 42.6114 42.224C43.1767 42.224 43.7047 42.3307 44.1954 42.544C44.686 42.7467 45.1127 43.0293 45.4754 43.392C45.838 43.7547 46.1207 44.176 46.3234 44.656C46.5367 45.136 46.6434 45.6533 46.6434 46.208C46.6434 46.7627 46.5367 47.2853 46.3234 47.776C46.1207 48.256 45.838 48.6773 45.4754 49.04C45.1127 49.392 44.686 49.6747 44.1954 49.888C43.7047 50.0907 43.1767 50.192 42.6114 50.192C42.046 50.192 41.518 50.0907 41.0274 49.888C40.5367 49.6747 40.11 49.392 39.7474 49.04C39.3847 48.6773 39.0967 48.256 38.8834 47.776C38.6807 47.2853 38.5794 46.7627 38.5794 46.208ZM56.0474 50H54.6074V48.912H54.5754C54.298 49.3173 53.914 49.632 53.4234 49.856C52.9434 50.08 52.4474 50.192 51.9354 50.192C51.3487 50.192 50.8154 50.0907 50.3354 49.888C49.866 49.6853 49.4607 49.4027 49.1194 49.04C48.7887 48.6773 48.5327 48.256 48.3514 47.776C48.17 47.296 48.0794 46.7733 48.0794 46.208C48.0794 45.6427 48.17 45.12 48.3514 44.64C48.5327 44.1493 48.7887 43.728 49.1194 43.376C49.4607 43.0133 49.866 42.7307 50.3354 42.528C50.8154 42.3253 51.3487 42.224 51.9354 42.224C52.4794 42.224 52.9914 42.3413 53.4714 42.576C53.9514 42.8 54.3194 43.1093 54.5754 43.504H54.6074V37.904H56.0474V50ZM52.1114 48.848C52.4954 48.848 52.842 48.784 53.1514 48.656C53.4607 48.5173 53.722 48.336 53.9354 48.112C54.1487 47.8773 54.314 47.6 54.4314 47.28C54.5487 46.9493 54.6074 46.592 54.6074 46.208C54.6074 45.824 54.5487 45.472 54.4314 45.152C54.314 44.8213 54.1487 44.544 53.9354 44.32C53.722 44.0853 53.4607 43.904 53.1514 43.776C52.842 43.6373 52.4954 43.568 52.1114 43.568C51.7274 43.568 51.3807 43.6373 51.0714 43.776C50.762 43.904 50.5007 44.0853 50.2874 44.32C50.074 44.544 49.9087 44.8213 49.7914 45.152C49.674 45.472 49.6154 45.824 49.6154 46.208C49.6154 46.592 49.674 46.9493 49.7914 47.28C49.9087 47.6 50.074 47.8773 50.2874 48.112C50.5007 48.336 50.762 48.5173 51.0714 48.656C51.3807 48.784 51.7274 48.848 52.1114 48.848ZM64.9486 50H63.5086V48.832H63.4766C63.2953 49.2373 62.9806 49.568 62.5326 49.824C62.0846 50.0693 61.5673 50.192 60.9806 50.192C60.6073 50.192 60.2553 50.1333 59.9246 50.016C59.594 49.9093 59.3006 49.7387 59.0446 49.504C58.7993 49.2693 58.602 48.9707 58.4526 48.608C58.3033 48.2347 58.2286 47.7973 58.2286 47.296V42.416H59.6686V46.896C59.6686 47.248 59.7166 47.552 59.8126 47.808C59.9086 48.0533 60.0366 48.256 60.1966 48.416C60.3566 48.5653 60.538 48.6773 60.7406 48.752C60.954 48.816 61.1726 48.848 61.3966 48.848C61.6953 48.848 61.9726 48.8 62.2286 48.704C62.4846 48.608 62.7086 48.4587 62.9006 48.256C63.0926 48.0427 63.242 47.776 63.3486 47.456C63.4553 47.136 63.5086 46.7573 63.5086 46.32V42.416H64.9486V50ZM72.5433 44.432C72.2766 44.1547 71.9939 43.9467 71.6953 43.808C71.4073 43.6587 71.0606 43.584 70.6553 43.584C70.2606 43.584 69.9139 43.6587 69.6153 43.808C69.3273 43.9467 69.0819 44.144 68.8793 44.4C68.6873 44.6453 68.5379 44.9333 68.4313 45.264C68.3353 45.584 68.2873 45.92 68.2873 46.272C68.2873 46.624 68.3459 46.96 68.4633 47.28C68.5806 47.5893 68.7459 47.8613 68.9593 48.096C69.1726 48.3307 69.4286 48.5173 69.7273 48.656C70.0259 48.784 70.3619 48.848 70.7352 48.848C71.1406 48.848 71.4873 48.7787 71.7753 48.64C72.0633 48.4907 72.3299 48.2773 72.5753 48L73.5993 49.024C73.2259 49.44 72.7886 49.7387 72.2873 49.92C71.7966 50.1013 71.2739 50.192 70.7193 50.192C70.1326 50.192 69.5939 50.096 69.1033 49.904C68.6233 49.712 68.2073 49.4453 67.8553 49.104C67.5033 48.752 67.2313 48.336 67.0393 47.856C66.8473 47.3653 66.7513 46.8267 66.7513 46.24C66.7513 45.6533 66.8473 45.1147 67.0393 44.624C67.2313 44.1333 67.4979 43.712 67.8393 43.36C68.1913 43.008 68.6073 42.736 69.0873 42.544C69.5779 42.3413 70.1219 42.24 70.7193 42.24C71.2739 42.24 71.8019 42.3413 72.3033 42.544C72.8153 42.736 73.2579 43.0347 73.6313 43.44L72.5433 44.432ZM78.902 43.664H76.838V47.104C76.838 47.3173 76.8433 47.5307 76.854 47.744C76.8647 47.9467 76.902 48.1333 76.966 48.304C77.0407 48.464 77.1473 48.5973 77.286 48.704C77.4353 48.8 77.6487 48.848 77.926 48.848C78.0967 48.848 78.2727 48.832 78.454 48.8C78.6353 48.768 78.8007 48.7093 78.95 48.624V49.936C78.7793 50.032 78.5553 50.096 78.278 50.128C78.0113 50.1707 77.8033 50.192 77.654 50.192C77.0993 50.192 76.6673 50.1173 76.358 49.968C76.0593 49.808 75.8353 49.6053 75.686 49.36C75.5473 49.1147 75.462 48.8427 75.43 48.544C75.4087 48.2347 75.398 47.9253 75.398 47.616V43.664H73.734V42.416H75.398V40.288H76.838V42.416H78.902V43.664ZM84.7919 44.32C84.6212 44.1067 84.4079 43.9307 84.1519 43.792C83.9065 43.6427 83.6025 43.568 83.2399 43.568C82.8985 43.568 82.5999 43.6427 82.3439 43.792C82.0985 43.9307 81.9759 44.1387 81.9759 44.416C81.9759 44.64 82.0452 44.8213 82.1839 44.96C82.3332 45.0987 82.5039 45.2107 82.6959 45.296C82.8985 45.3813 83.1119 45.4453 83.3359 45.488C83.5599 45.5307 83.7519 45.568 83.9119 45.6C84.2212 45.6747 84.5092 45.7653 84.7759 45.872C85.0532 45.9787 85.2879 46.1173 85.4799 46.288C85.6825 46.4587 85.8372 46.6667 85.9439 46.912C86.0612 47.1573 86.1199 47.456 86.1199 47.808C86.1199 48.2347 86.0292 48.6027 85.8479 48.912C85.6665 49.2107 85.4319 49.456 85.1439 49.648C84.8559 49.84 84.5252 49.9787 84.1519 50.064C83.7892 50.1493 83.4212 50.192 83.0479 50.192C82.4185 50.192 81.8639 50.096 81.3839 49.904C80.9145 49.712 80.4932 49.36 80.1199 48.848L81.2079 47.952C81.4425 48.1867 81.7039 48.3947 81.9919 48.576C82.2799 48.7573 82.6319 48.848 83.0479 48.848C83.2292 48.848 83.4105 48.832 83.5919 48.8C83.7839 48.7573 83.9492 48.6987 84.0879 48.624C84.2372 48.5387 84.3545 48.4373 84.4399 48.32C84.5359 48.192 84.5839 48.048 84.5839 47.888C84.5839 47.6747 84.5145 47.4987 84.3759 47.36C84.2479 47.2213 84.0879 47.1147 83.8959 47.04C83.7145 46.9547 83.5172 46.8907 83.3039 46.848C83.1012 46.7947 82.9199 46.752 82.7599 46.72C82.4505 46.6453 82.1572 46.56 81.8799 46.464C81.6025 46.368 81.3572 46.24 81.1439 46.08C80.9305 45.92 80.7599 45.7173 80.6319 45.472C80.5039 45.2267 80.4399 44.9227 80.4399 44.56C80.4399 44.1653 80.5199 43.824 80.6799 43.536C80.8505 43.2373 81.0692 42.992 81.3359 42.8C81.6132 42.608 81.9225 42.464 82.2639 42.368C82.6159 42.272 82.9679 42.224 83.3199 42.224C83.8319 42.224 84.3225 42.32 84.7919 42.512C85.2612 42.704 85.6345 43.024 85.9119 43.472L84.7919 44.32ZM89.7413 46.736H88.2053V38.672H89.7413V46.736ZM87.9493 49.04C87.9493 48.752 88.0506 48.5067 88.2533 48.304C88.4666 48.0907 88.7173 47.984 89.0053 47.984C89.2933 47.984 89.5386 48.0907 89.7413 48.304C89.9546 48.5067 90.0613 48.752 90.0613 49.04C90.0613 49.328 89.9546 49.5787 89.7413 49.792C89.5386 49.9947 89.2933 50.096 89.0053 50.096C88.7173 50.096 88.4666 49.9947 88.2533 49.792C88.0506 49.5787 87.9493 49.328 87.9493 49.04Z" fill="#737373"/>
</g>
<defs>
<linearGradient id="paint0_linear_2513_6251" x1="111.713" y1="132.991" x2="111.713" y2="99.7996" gradientUnits="userSpaceOnUse">
<stop stop-color="#808080" stop-opacity="0.25"/>
<stop offset="0.54" stop-color="#808080" stop-opacity="0.12"/>
<stop offset="1" stop-color="#808080" stop-opacity="0.1"/>
</linearGradient>
<clipPath id="clip0_2513_6251">
<rect width="225" height="138" fill="white"/>
</clipPath>
</defs>
</svg>
