<svg width="222" height="167" viewBox="0 0 222 167" fill="none" xmlns="http://www.w3.org/2000/svg">
<g clip-path="url(#clip0_2513_6789)">
<path d="M109.253 37.9432H108.335V13.9099C108.335 10.2207 106.801 6.68271 104.071 4.07411C101.341 1.4655 97.6386 4.60006e-06 93.7777 0H40.4895C38.5778 -6.50756e-06 36.6849 0.359776 34.9187 1.05881C33.1525 1.75783 31.5477 2.78242 30.1959 4.07406C28.8441 5.36571 27.7718 6.89911 27.0403 8.58673C26.3087 10.2743 25.9321 12.0831 25.9321 13.9098V145.759C25.9321 147.585 26.3087 149.394 27.0402 151.082C27.7718 152.769 28.8441 154.303 30.1959 155.594C31.5476 156.886 33.1524 157.911 34.9186 158.61C36.6848 159.309 38.5778 159.668 40.4895 159.668H93.7777C95.6894 159.668 97.5824 159.309 99.3486 158.61C101.115 157.911 102.72 156.886 104.071 155.594C105.423 154.303 106.495 152.769 107.227 151.082C107.959 149.394 108.335 147.585 108.335 145.759V55.0505H109.253V37.9432Z" fill="#3F3D56"/>
<path d="M94.2555 3.94788H87.2996C87.6195 4.69724 87.7416 5.51027 87.6552 6.31535C87.5688 7.12043 87.2764 7.89285 86.804 8.56455C86.3316 9.23626 85.6935 9.78664 84.946 10.1672C84.1985 10.5478 83.3646 10.7469 82.5176 10.7469H51.9895C51.1425 10.7469 50.3085 10.5478 49.561 10.1672C48.8136 9.78664 48.1755 9.23626 47.7031 8.56455C47.2306 7.89284 46.9383 7.12043 46.8519 6.31535C46.7655 5.51027 46.8876 4.69724 47.2075 3.94788H40.7107C37.8274 3.94787 35.0623 5.04228 33.0235 6.99035C30.9847 8.93842 29.8394 11.5806 29.8394 14.3356V145.991C29.8394 147.355 30.1206 148.706 30.6669 149.966C31.2132 151.226 32.014 152.372 33.0235 153.336C34.033 154.301 35.2314 155.066 36.5504 155.588C37.8693 156.11 39.283 156.379 40.7106 156.379H94.2555C97.1387 156.379 99.9039 155.284 101.943 153.336C103.981 151.388 105.127 148.746 105.127 145.991V14.3356C105.127 12.9715 104.846 11.6207 104.299 10.3604C103.753 9.10009 102.952 7.95495 101.943 6.99036C100.933 6.02578 99.7347 5.26062 98.4158 4.73859C97.0968 4.21656 95.6831 3.94788 94.2555 3.94788ZM93.0869 65.0236C93.0847 65.7366 92.7873 66.4198 92.2597 66.9239C91.7321 67.428 91.0171 67.7122 90.271 67.7143H76.6609C75.9147 67.7122 75.1997 67.428 74.6721 66.9239C74.1445 66.4198 73.8472 65.7366 73.845 65.0236V64.351C73.8472 63.638 74.1445 62.9549 74.6721 62.4507C75.1997 61.9466 75.9147 61.6624 76.6609 61.6603H90.271C91.0171 61.6624 91.7321 61.9466 92.2597 62.4507C92.7873 62.9549 93.0847 63.638 93.0869 64.351V65.0236ZM94.6121 53.14C94.6099 53.853 94.3126 54.5361 93.785 55.0403C93.2574 55.5444 92.5424 55.8286 91.7962 55.8306H42.9876C42.2414 55.8286 41.5264 55.5444 40.9988 55.0403C40.4712 54.5361 40.1739 53.853 40.1717 53.14V52.4674C40.1739 51.7544 40.4712 51.0712 40.9988 50.5671C41.5264 50.063 42.2414 49.7788 42.9876 49.7767H91.7962C92.5424 49.7788 93.2574 50.063 93.785 50.5671C94.3126 51.0712 94.6099 51.7544 94.6121 52.4674V53.14ZM94.6121 41.2564C94.6099 41.9693 94.3126 42.6525 93.785 43.1566C93.2574 43.6608 92.5424 43.9449 91.7962 43.947H42.9876C42.2414 43.9449 41.5264 43.6608 40.9988 43.1566C40.4712 42.6525 40.1739 41.9693 40.1717 41.2564V40.5837C40.1739 39.8708 40.4712 39.1876 40.9988 38.6835C41.5264 38.1793 42.2414 37.8952 42.9876 37.8931H91.7962C92.5424 37.8952 93.2574 38.1793 93.785 38.6835C94.3126 39.1876 94.6099 39.8708 94.6121 40.5837V41.2564ZM94.6121 29.3728C94.6099 30.0857 94.3126 30.7689 93.785 31.273C93.2574 31.7772 92.5424 32.0613 91.7962 32.0634H42.9876C42.2414 32.0613 41.5264 31.7772 40.9988 31.273C40.4712 30.7689 40.1739 30.0857 40.1717 29.3728V28.7001C40.1739 27.9871 40.4712 27.304 40.9988 26.7998C41.5264 26.2957 42.2414 26.0116 42.9876 26.0095H91.7962C92.5424 26.0116 93.2574 26.2957 93.785 26.7998C94.3126 27.304 94.6099 27.9871 94.6121 28.7001V29.3728Z" fill="white"/>
<path d="M44.0435 54.4853C44.9507 54.4853 45.6861 53.7826 45.6861 52.9158C45.6861 52.049 44.9507 51.3463 44.0435 51.3463C43.1363 51.3463 42.4009 52.049 42.4009 52.9158C42.4009 53.7826 43.1363 54.4853 44.0435 54.4853Z" fill="white"/>
<path d="M49.4405 54.4853C50.3476 54.4853 51.083 53.7826 51.083 52.9158C51.083 52.049 50.3476 51.3463 49.4405 51.3463C48.5333 51.3463 47.7979 52.049 47.7979 52.9158C47.7979 53.7826 48.5333 54.4853 49.4405 54.4853Z" fill="white"/>
<path d="M54.8377 54.4853C55.7449 54.4853 56.4803 53.7826 56.4803 52.9158C56.4803 52.049 55.7449 51.3463 54.8377 51.3463C53.9305 51.3463 53.1951 52.049 53.1951 52.9158C53.1951 53.7826 53.9305 54.4853 54.8377 54.4853Z" fill="white"/>
<path d="M60.2349 54.4853C61.1421 54.4853 61.8775 53.7826 61.8775 52.9158C61.8775 52.049 61.1421 51.3463 60.2349 51.3463C59.3277 51.3463 58.5923 52.049 58.5923 52.9158C58.5923 53.7826 59.3277 54.4853 60.2349 54.4853Z" fill="white"/>
<path d="M77.834 66.3689C78.7412 66.3689 79.4766 65.6662 79.4766 64.7994C79.4766 63.9326 78.7412 63.2299 77.834 63.2299C76.9268 63.2299 76.1914 63.9326 76.1914 64.7994C76.1914 65.6662 76.9268 66.3689 77.834 66.3689Z" fill="white"/>
<path d="M83.2312 66.3689C84.1384 66.3689 84.8738 65.6662 84.8738 64.7994C84.8738 63.9326 84.1384 63.2299 83.2312 63.2299C82.324 63.2299 81.5886 63.9326 81.5886 64.7994C81.5886 65.6662 82.324 66.3689 83.2312 66.3689Z" fill="white"/>
<path d="M88.6282 66.3689C89.5354 66.3689 90.2708 65.6662 90.2708 64.7994C90.2708 63.9326 89.5354 63.2299 88.6282 63.2299C87.721 63.2299 86.9856 63.9326 86.9856 64.7994C86.9856 65.6662 87.721 66.3689 88.6282 66.3689Z" fill="white"/>
<path d="M94.9897 85.1356H39.3247C38.017 85.1356 36.7628 85.632 35.838 86.5156C34.9133 87.3992 34.3938 88.5976 34.3938 89.8472V115.762C34.3938 117.012 34.9133 118.21 35.838 119.094C36.7628 119.977 38.017 120.474 39.3247 120.474H94.9897C96.2975 120.474 97.5517 119.977 98.4764 119.094C99.4012 118.21 99.9207 117.012 99.9207 115.762V89.8472C99.9207 88.5976 99.4012 87.3992 98.4764 86.5156C97.5517 85.632 96.2975 85.1356 94.9897 85.1356ZM37.9475 88.3497C38.0574 88.3307 40.664 87.9068 42.8223 89.1478C44.9806 90.3885 45.8098 92.7877 45.844 92.8892L45.9312 93.1479L45.6511 93.1954C45.2516 93.255 44.8476 93.2833 44.4432 93.2801C43.1603 93.3036 41.8942 92.9987 40.7762 92.397C38.618 91.1565 37.7888 88.7573 37.7547 88.6558L37.6674 88.3971L37.9475 88.3497ZM50.0309 112.41H40.1026C39.3785 112.41 38.684 112.135 38.172 111.646C37.66 111.156 37.3723 110.493 37.3723 109.801C37.3723 109.109 37.66 108.446 38.172 107.956C38.684 107.467 39.3785 107.192 40.1026 107.192H50.0309C50.755 107.192 51.4495 107.467 51.9615 107.956C52.4735 108.446 52.7612 109.109 52.7612 109.801C52.7612 110.493 52.4735 111.156 51.9615 111.646C51.4495 112.135 50.755 112.41 50.0309 112.41ZM95.2047 111.936C95.2024 112.69 94.8879 113.412 94.3298 113.946C93.7717 114.479 93.0155 114.779 92.2262 114.782H84.78C83.9908 114.779 83.2345 114.479 82.6764 113.946C82.1184 113.412 81.8038 112.69 81.8015 111.936V107.667C81.8038 106.912 82.1184 106.19 82.6764 105.657C83.2345 105.123 83.9908 104.823 84.78 104.821H92.2262C93.0155 104.823 93.7717 105.123 94.3298 105.657C94.8879 106.19 95.2024 106.912 95.2047 107.667L95.2047 111.936Z" fill="#FFD682"/>
<path d="M87.1808 111.056H84.1869C83.9731 111.056 83.7681 111.137 83.6169 111.281C83.4658 111.426 83.3809 111.622 83.3809 111.826C83.3809 112.03 83.4658 112.226 83.6169 112.371C83.7681 112.515 83.9731 112.596 84.1869 112.596H87.1808C87.3946 112.596 87.5996 112.515 87.7508 112.371C87.902 112.226 87.9869 112.03 87.9869 111.826C87.9869 111.622 87.902 111.426 87.7508 111.281C87.5996 111.137 87.3946 111.056 87.1808 111.056Z" fill="#3F3D56"/>
<path d="M92.7079 111.056H89.714C89.5002 111.056 89.2952 111.137 89.144 111.281C88.9929 111.426 88.908 111.622 88.908 111.826C88.908 112.03 88.9929 112.226 89.144 112.371C89.2952 112.515 89.5002 112.596 89.714 112.596H92.7079C92.9217 112.596 93.1267 112.515 93.2779 112.371C93.4291 112.226 93.514 112.03 93.514 111.826C93.514 111.622 93.4291 111.426 93.2779 111.281C93.1267 111.137 92.9217 111.056 92.7079 111.056Z" fill="#3F3D56"/>
<path d="M87.1804 108.882H84.1864C83.9726 108.882 83.7676 108.963 83.6165 109.107C83.4653 109.252 83.3804 109.448 83.3804 109.652C83.3804 109.856 83.4653 110.052 83.6165 110.196C83.7676 110.341 83.9726 110.422 84.1864 110.422H87.1804C87.3941 110.422 87.5992 110.341 87.7503 110.196C87.9015 110.052 87.9864 109.856 87.9864 109.652C87.9864 109.448 87.9015 109.252 87.7503 109.107C87.5992 108.963 87.3941 108.882 87.1804 108.882Z" fill="#3F3D56"/>
<path d="M92.7075 108.882H89.7135C89.4998 108.882 89.2947 108.963 89.1436 109.107C88.9924 109.252 88.9075 109.448 88.9075 109.652C88.9075 109.856 88.9924 110.052 89.1436 110.196C89.2947 110.341 89.4998 110.422 89.7135 110.422H92.7075C92.9212 110.422 93.1263 110.341 93.2774 110.196C93.4286 110.052 93.5135 109.856 93.5135 109.652C93.5135 109.448 93.4286 109.252 93.2774 109.107C93.1263 108.963 92.9213 108.882 92.7075 108.882Z" fill="#3F3D56"/>
<path d="M87.1804 106.751H84.1864C83.9726 106.751 83.7676 106.833 83.6165 106.977C83.4653 107.121 83.3804 107.317 83.3804 107.522C83.3804 107.726 83.4653 107.922 83.6165 108.066C83.7676 108.211 83.9726 108.292 84.1864 108.292H87.1804C87.3941 108.292 87.5992 108.211 87.7503 108.066C87.9015 107.922 87.9864 107.726 87.9864 107.522C87.9864 107.317 87.9015 107.121 87.7503 106.977C87.5992 106.833 87.3941 106.751 87.1804 106.751Z" fill="#3F3D56"/>
<path d="M92.7075 106.751H89.7135C89.4998 106.751 89.2947 106.833 89.1436 106.977C88.9924 107.121 88.9075 107.317 88.9075 107.522C88.9075 107.726 88.9924 107.922 89.1436 108.066C89.2947 108.211 89.4998 108.292 89.7135 108.292H92.7075C92.9212 108.292 93.1263 108.211 93.2774 108.066C93.4286 107.922 93.5135 107.726 93.5135 107.522C93.5135 107.317 93.4286 107.121 93.2774 106.977C93.1263 106.833 92.9213 106.751 92.7075 106.751Z" fill="#3F3D56"/>
<path d="M133.544 94.8976H126.283V101.835H133.544V94.8976Z" fill="#E6E6E6"/>
<path d="M117.726 99.1098H129.655V110.507H117.726V99.1098ZM129.136 99.6054H118.245V110.012H129.136V99.6054Z" fill="#3F3D56"/>
<path d="M7.26065 37.6617H0V44.5994H7.26065V37.6617Z" fill="#E6E6E6"/>
<path d="M15.8179 40.3872H3.88965V28.9896H15.8179V40.3872ZM4.40827 39.8917H15.2992V29.4852H4.40827V39.8917Z" fill="#3F3D56"/>
<path d="M169.349 163.882H166.17L164.657 152.166H169.349L169.349 163.882Z" fill="#FFB8B8"/>
<path d="M163.899 163.014H170.03V166.703H160.038C160.038 165.725 160.445 164.786 161.169 164.095C161.893 163.403 162.875 163.014 163.899 163.014Z" fill="#2F2E41"/>
<path d="M185.167 163.882H181.987L180.475 152.166H185.167L185.167 163.882Z" fill="#FFB8B8"/>
<path d="M179.716 163.014H185.848V166.703H175.856C175.856 165.725 176.263 164.786 176.987 164.095C177.711 163.403 178.693 163.014 179.716 163.014Z" fill="#2F2E41"/>
<path d="M153.401 121.98C153.172 121.658 153.02 121.292 152.956 120.908C152.891 120.524 152.915 120.131 153.027 119.757C153.138 119.382 153.334 119.036 153.601 118.742C153.868 118.448 154.199 118.213 154.571 118.055L165.377 89.5937L170.695 92.3666L158.356 119.565C158.593 120.18 158.587 120.856 158.337 121.466C158.087 122.076 157.612 122.578 157.001 122.876C156.39 123.173 155.687 123.247 155.023 123.082C154.359 122.917 153.782 122.525 153.401 121.98Z" fill="#FFB8B8"/>
<path d="M183.543 127.328C183.189 127.135 182.885 126.869 182.65 126.551C182.416 126.233 182.257 125.87 182.186 125.486C182.114 125.103 182.132 124.71 182.236 124.334C182.341 123.958 182.531 123.608 182.792 123.31L179.445 93.2032L185.496 93.4674L186.888 123.081C187.383 123.534 187.687 124.145 187.743 124.798C187.799 125.451 187.601 126.101 187.189 126.624C186.777 127.148 186.178 127.509 185.506 127.638C184.834 127.768 184.135 127.658 183.543 127.328Z" fill="#FFB8B8"/>
<path d="M173.888 84.322C177.406 84.322 180.257 81.5973 180.257 78.2364C180.257 74.8754 177.406 72.1508 173.888 72.1508C170.371 72.1508 167.52 74.8754 167.52 78.2364C167.52 81.5973 170.371 84.322 173.888 84.322Z" fill="#FFB8B8"/>
<path d="M183.502 120.481H164.301L164.324 120.338C164.359 120.125 167.746 98.9208 165.248 91.9839C164.997 91.3022 165.019 90.556 165.31 89.8889C165.6 89.2218 166.139 88.6809 166.822 88.3705C170.393 86.7636 177.248 84.7849 183.034 89.5868C183.885 90.3051 184.55 91.2028 184.976 92.2089C185.401 93.215 185.576 94.3019 185.487 95.3838L183.502 120.481Z" fill="#CCCCCC"/>
<path d="M167.989 102.054L159.344 100.379L163.396 91.2036C163.639 90.3149 164.24 89.5544 165.069 89.0889C165.897 88.6234 166.885 88.4909 167.816 88.7205C168.746 88.95 169.544 89.5229 170.033 90.3135C170.522 91.104 170.663 92.0477 170.425 92.9374L167.989 102.054Z" fill="#CCCCCC"/>
<path d="M179.06 105.166L178.54 93.7828C178.146 91.6429 179.428 89.6201 181.4 89.2894C183.372 88.96 185.298 90.4441 185.694 92.5997L187.647 103.236L179.06 105.166Z" fill="#CCCCCC"/>
<path d="M182.863 119.118C185.953 130.361 186.29 144.656 185.456 160.249L181.307 159.753L173.787 130.02L169.638 160.249L164.971 160.001C163.576 143.64 162.219 129.595 164.452 120.357L182.863 119.118Z" fill="#2F2E41"/>
<path d="M178.085 82.9395C176.897 84.1488 174.69 83.4996 174.535 81.8475C174.523 81.7192 174.524 81.5901 174.538 81.462C174.618 80.7302 175.06 80.0658 174.954 79.2931C174.93 79.1008 174.855 78.9175 174.737 78.7607C173.79 77.5492 171.567 79.3025 170.674 78.2058C170.126 77.5334 170.77 76.4746 170.349 75.723C169.794 74.731 168.151 75.2204 167.12 74.6771C165.973 74.0727 166.042 72.3913 166.797 71.3687C167.717 70.1215 169.332 69.456 170.926 69.36C172.52 69.2641 174.103 69.6759 175.591 70.2301C177.282 70.8598 178.959 71.73 180 73.1507C181.265 74.8785 181.387 77.2013 180.754 79.2216C180.369 80.4506 179.055 81.9519 178.085 82.9395Z" fill="#2F2E41"/>
<path d="M221.741 167H122.944C122.875 167 122.809 166.974 122.761 166.927C122.712 166.881 122.685 166.818 122.685 166.752C122.685 166.687 122.712 166.623 122.761 166.577C122.809 166.531 122.875 166.504 122.944 166.504H221.741C221.81 166.504 221.875 166.531 221.924 166.577C221.973 166.623 222 166.687 222 166.752C222 166.818 221.973 166.881 221.924 166.927C221.875 166.974 221.81 167 221.741 167Z" fill="#3F3D56"/>
</g>
<defs>
<clipPath id="clip0_2513_6789">
<rect width="222" height="167" fill="white"/>
</clipPath>
</defs>
</svg>
