<svg width="255" height="183" viewBox="0 0 255 183" fill="none" xmlns="http://www.w3.org/2000/svg">
<g clip-path="url(#clip0_2510_884)">
<path d="M195.234 180.931C191.969 177.619 189.986 172.388 190.506 167.296C191.026 162.204 194.247 157.522 198.425 156.441C202.604 155.359 207.366 158.353 208.635 163.252C209.334 153.807 210.139 143.965 214.322 135.922C218.11 128.639 224.671 123.427 231.782 122.495C238.893 121.562 246.379 125.084 250.814 131.821C255.249 138.558 256.334 148.352 253.228 156.086C250.94 161.784 246.725 166.024 242.308 169.474C228.037 180.527 210.92 185.022 194.106 182.132L195.234 180.931Z" fill="#F2F2F2"/>
<path d="M243.782 125.279C237.915 131.015 232.533 137.431 227.713 144.433C220.169 155.354 214.065 167.599 209.613 180.74C209.287 181.699 210.584 182.116 210.906 181.168C218.191 159.811 229.82 140.987 244.731 126.417C245.4 125.763 244.446 124.63 243.782 125.279Z" fill="white"/>
<path d="M82.0886 180.031C86.5727 175.483 89.2963 168.298 88.5821 161.304C87.8678 154.309 83.4437 147.879 77.7051 146.394C71.9665 144.909 65.4248 149.02 63.6818 155.749C62.7225 142.776 61.6172 129.259 55.8711 118.211C50.6681 108.208 41.6565 101.05 31.89 99.7693C22.1235 98.4888 11.8406 103.325 5.74954 112.578C-0.341494 121.831 -1.83286 135.284 2.43314 145.907C5.57575 153.733 11.3656 159.557 17.4318 164.295C36.7853 179.411 60.7933 185.716 83.6372 181.68" fill="#F2F2F2"/>
<path d="M15.4075 103.593C23.4661 111.472 30.859 120.284 37.4793 129.902C44.1006 139.51 49.93 149.866 54.8855 160.824C57.6555 166.972 60.1437 173.296 62.3393 179.769C62.7869 181.086 61.0057 181.659 60.563 180.357C56.6741 168.945 51.8629 158.018 46.1983 147.733C40.5612 137.485 34.1092 127.917 26.933 119.165C22.8741 114.217 18.5916 109.54 14.1049 105.157C13.1853 104.258 14.4954 102.702 15.4075 103.593Z" fill="white"/>
<path d="M183.043 182.599H76.0603V50.8393C76.0603 22.8064 95.0599 0 118.414 0H140.69C164.043 0 183.043 22.8064 183.043 50.8393V182.599Z" fill="#F2F2F2"/>
<path d="M160.767 182.599H76.0603V50.8393C76.0369 40.0978 78.8706 29.6276 84.1487 20.9534C84.3433 20.6351 84.5374 20.3209 84.7375 20.0101C87.2905 15.9908 90.3286 12.4511 93.7517 9.50781C93.945 9.33894 94.1391 9.17299 94.3361 9.00704C97.2004 6.62777 100.299 4.68276 103.561 3.21628C103.754 3.12815 103.952 3.03985 104.149 2.95515C107.099 1.69141 110.157 0.825751 113.267 0.374162C113.46 0.34255 113.658 0.317813 113.856 0.293076C116.886 -0.0958609 119.942 -0.0958609 122.973 0.293076C123.17 0.317813 123.368 0.342547 123.563 0.3745C126.672 0.826119 129.729 1.69167 132.679 2.95517C132.876 3.03987 133.073 3.12816 133.267 3.21647C136.489 4.66444 139.551 6.58043 142.385 8.92167C142.582 9.08401 142.779 9.24996 142.973 9.41591C144.892 11.0599 146.694 12.8914 148.361 14.8918C149.698 16.4963 150.944 18.2066 152.091 20.0112C152.29 20.3209 152.484 20.6351 152.678 20.9529C157.957 29.6272 160.791 40.0975 160.767 50.8393V182.599Z" fill="#CCCCCC"/>
<path d="M153.879 123.668C156.469 123.668 158.569 121.148 158.569 118.039C158.569 114.93 156.469 112.409 153.879 112.409C151.289 112.409 149.19 114.93 149.19 118.039C149.19 121.148 151.289 123.668 153.879 123.668Z" fill="#FFD682"/>
<path d="M174.279 178.653H170.686L168.976 162.016L174.28 162.016L174.279 178.653Z" fill="#FFB8B8"/>
<path d="M168.119 177.42H175.049V182.658H163.755C163.755 181.97 163.868 181.289 164.088 180.654C164.307 180.018 164.628 179.441 165.033 178.954C165.439 178.468 165.92 178.082 166.449 177.819C166.978 177.556 167.546 177.42 168.119 177.42Z" fill="#2F2E41"/>
<path d="M192.158 178.653H188.565L186.855 162.016L192.159 162.016L192.158 178.653Z" fill="#FFB8B8"/>
<path d="M185.998 177.42H192.928V182.658H181.635C181.635 181.97 181.748 181.289 181.967 180.654C182.186 180.018 182.507 179.441 182.913 178.954C183.318 178.468 183.799 178.082 184.328 177.819C184.858 177.556 185.425 177.42 185.998 177.42Z" fill="#2F2E41"/>
<path d="M156.253 119.154C155.994 118.697 155.822 118.177 155.749 117.632C155.676 117.086 155.704 116.528 155.83 115.996C155.956 115.465 156.177 114.973 156.479 114.556C156.78 114.138 157.154 113.805 157.575 113.58L169.79 73.1664L175.801 77.1039L161.854 115.724C162.122 116.597 162.114 117.558 161.832 118.424C161.55 119.291 161.013 120.003 160.322 120.425C159.632 120.848 158.836 120.952 158.086 120.718C157.336 120.483 156.684 119.927 156.253 119.154Z" fill="#FFB8B8"/>
<path d="M190.323 126.748C189.923 126.473 189.579 126.096 189.314 125.645C189.049 125.193 188.87 124.677 188.789 124.133C188.708 123.589 188.728 123.03 188.846 122.496C188.965 121.962 189.179 121.466 189.475 121.042L185.691 78.2917L192.531 78.6669L194.104 120.718C194.664 121.361 195.008 122.228 195.071 123.155C195.133 124.083 194.911 125.005 194.445 125.749C193.979 126.492 193.302 127.004 192.542 127.188C191.782 127.372 190.993 127.216 190.323 126.748Z" fill="#FFB8B8"/>
<path d="M179.41 65.6808C183.386 65.6808 186.609 61.8119 186.609 57.0395C186.609 52.267 183.386 48.3982 179.41 48.3982C175.434 48.3982 172.211 52.267 172.211 57.0395C172.211 61.8119 175.434 65.6808 179.41 65.6808Z" fill="#FFB8B8"/>
<path d="M190.277 117.025H168.573L168.599 116.822C168.638 116.519 172.468 86.4105 169.643 76.5603C169.36 75.5924 169.385 74.5328 169.713 73.5855C170.042 72.6382 170.651 71.8703 171.422 71.4294C175.459 69.1477 183.207 66.3381 189.747 73.1566C190.71 74.1765 191.461 75.4512 191.942 76.8798C192.424 78.3084 192.621 79.8519 192.52 81.388L190.277 117.025Z" fill="#FFD682"/>
<path d="M172.742 90.8601L162.971 88.4806L167.551 75.4524C167.825 74.1906 168.505 73.1108 169.441 72.4498C170.378 71.7888 171.494 71.6007 172.546 71.9266C173.598 72.2526 174.499 73.066 175.052 74.1885C175.605 75.311 175.765 76.651 175.496 77.9144L172.742 90.8601Z" fill="#FFD682"/>
<path d="M185.256 95.2782L184.669 79.1147C184.223 76.0762 185.672 73.2039 187.901 72.7344C190.13 72.2666 192.307 74.3739 192.754 77.4348L194.962 92.538L185.256 95.2782Z" fill="#FFD682"/>
<path d="M189.555 115.09C193.047 131.055 193.428 151.353 192.486 173.494L187.796 172.79L179.296 130.57L174.606 173.494L169.331 173.142C167.754 149.911 166.22 129.967 168.744 116.849L189.555 115.09Z" fill="#2F2E41"/>
<path d="M184.154 63.7177C182.811 65.4349 180.317 64.5131 180.142 62.1671C180.128 61.985 180.129 61.8017 180.145 61.6198C180.235 60.5806 180.735 59.6372 180.615 58.54C180.588 58.2669 180.503 58.0067 180.369 57.784C179.299 56.0638 176.787 58.5534 175.777 56.9961C175.157 56.0413 175.885 54.5378 175.41 53.4706C174.783 52.062 172.925 52.7569 171.76 51.9855C170.463 51.1272 170.541 48.7398 171.394 47.2876C172.435 45.5167 174.26 44.5717 176.062 44.4355C177.863 44.2993 179.653 44.884 181.335 45.6709C183.247 46.565 185.142 47.8007 186.318 49.8181C187.749 52.2715 187.886 55.5698 187.171 58.4385C186.736 60.1836 185.25 62.3154 184.154 63.7177Z" fill="#2F2E41"/>
<path d="M246.202 182.826H29.805C29.7126 182.825 29.6241 182.781 29.5589 182.703C29.4937 182.624 29.457 182.518 29.457 182.407C29.457 182.296 29.4937 182.19 29.5589 182.111C29.6241 182.033 29.7126 181.988 29.805 181.988H246.202C246.294 181.988 246.382 182.033 246.448 182.111C246.513 182.19 246.55 182.296 246.55 182.407C246.55 182.518 246.513 182.624 246.448 182.703C246.382 182.781 246.294 182.825 246.202 182.826Z" fill="#3F3D56"/>
<path d="M137.466 144.426H99.3621C98.8603 144.429 98.3779 144.193 98.0207 143.77C97.6635 143.347 97.4608 142.771 97.4569 142.169V40.0787C97.4608 39.4764 97.6635 38.9005 98.0207 38.4773C98.3779 38.0542 98.8603 37.8184 99.3621 37.8216H137.466C137.967 37.8184 138.45 38.0542 138.807 38.4773C139.164 38.9005 139.367 39.4764 139.371 40.0787V142.169C139.367 142.771 139.164 143.347 138.807 143.77C138.45 144.193 137.967 144.429 137.466 144.426Z" fill="white"/>
<path d="M139.371 70.8548H97.4569V71.5584H139.371V70.8548Z" fill="#CCCCCC"/>
<path d="M139.517 111.002H97.6034V111.706H139.517V111.002Z" fill="#CCCCCC"/>
<path d="M111.233 37.8217H110.646V144.778H111.233V37.8217Z" fill="#CCCCCC"/>
<path d="M125.888 37.8217H125.302V144.778H125.888V37.8217Z" fill="#CCCCCC"/>
</g>
<defs>
<clipPath id="clip0_2510_884">
<rect width="255" height="183" fill="white"/>
</clipPath>
</defs>
</svg>
