<svg width="236" height="198" viewBox="0 0 236 198" fill="none" xmlns="http://www.w3.org/2000/svg">
<g clip-path="url(#clip0_2510_910)">
<path d="M192.203 95.5618C192.203 98.344 192.086 101.098 191.851 103.824C191.665 105.952 191.413 108.06 191.092 110.15C190.752 112.362 190.335 114.548 189.841 116.707V116.71C189.518 118.131 189.163 119.54 188.777 120.938C187.657 125.001 186.263 128.986 184.605 132.863C184.245 133.707 183.873 134.545 183.489 135.377C182.037 138.528 180.411 141.597 178.619 144.57C173.593 152.918 167.319 160.458 160.012 166.93C159.221 167.629 158.419 168.317 157.607 168.993C140.355 183.323 118.581 191.158 96.1017 191.124C43.0255 191.124 0 148.34 0 95.5618C0 42.7836 43.0255 -0.000308885 96.1017 -0.000308885C117.807 -0.0343407 138.879 7.27134 155.857 20.7172C156.653 21.3444 157.439 21.9856 158.215 22.6409C162.001 25.8337 165.534 29.3114 168.784 33.0433H168.786C183.921 50.3914 192.238 72.5956 192.203 95.5618Z" fill="#F2F2F2"/>
<path d="M28.3691 112.069C19.2143 106.651 12.3046 96.5253 13.2016 85.9693C21.5714 93.9349 32.5048 98.7 44.0675 99.4213C48.5278 99.6835 53.5162 99.5132 56.7994 102.527C58.8424 104.402 59.7934 107.225 59.9494 109.985C60.1053 112.745 59.5493 115.49 58.9961 118.2L59.1865 118.863C48.533 118.903 37.5239 117.487 28.3691 112.069Z" fill="#E6E6E6"/>
<path d="M13.4249 85.958C17.093 93.932 23.1945 100.554 30.8629 104.883C32.5114 105.801 34.264 106.589 36.1265 106.955C37.9446 107.297 39.8218 107.149 41.5631 106.526C43.1983 105.978 44.8072 105.229 46.548 105.085C48.383 104.934 50.0817 105.638 51.4164 106.871C53.0494 108.379 54.0399 110.381 54.9401 112.373C55.9396 114.584 56.9426 116.896 58.8589 118.486C59.0911 118.679 58.7769 119.026 58.5451 118.833C55.211 116.067 54.6667 111.434 52.0016 108.176C50.758 106.656 49.0461 105.499 47.0125 105.53C45.2341 105.556 43.5744 106.328 41.9235 106.897C40.19 107.495 38.4535 107.776 36.6234 107.513C34.7513 107.244 32.964 106.522 31.2991 105.65C27.5386 103.646 24.1184 101.066 21.1639 98.0048C17.7724 94.5299 15.0037 90.5036 12.9776 86.1003C12.8523 85.8277 13.3004 85.6872 13.4249 85.958Z" fill="white"/>
<path d="M28.3112 103.634C27.4061 104.815 26.1083 105.637 24.6497 105.954C23.1911 106.271 21.6666 106.062 20.3485 105.365C20.0823 105.223 20.2917 104.805 20.5583 104.947C21.7845 105.599 23.2046 105.793 24.5622 105.495C25.9199 105.197 27.1257 104.426 27.9619 103.322C28.144 103.082 28.4922 103.395 28.3112 103.634Z" fill="white"/>
<path d="M40.7708 106.913C40.3898 103.902 38.8815 101.144 36.5465 99.1894C36.315 98.9959 36.6292 98.6489 36.8604 98.8421C39.2864 100.881 40.8501 103.754 41.2396 106.888C41.2765 107.187 40.8075 107.21 40.7708 106.913Z" fill="white"/>
<path d="M18.3547 94.3107C18.8007 93.9264 19.1436 93.438 19.3529 92.8893C19.5621 92.3407 19.631 91.7489 19.5534 91.1672C19.5127 90.869 19.9818 90.8461 20.0222 91.1423C20.105 91.7854 20.0281 92.4388 19.7983 93.0456C19.5685 93.6523 19.1928 94.1938 18.704 94.6228C18.6613 94.6671 18.6033 94.6935 18.5417 94.6968C18.4801 94.7001 18.4196 94.6799 18.3724 94.6404C18.3264 94.5989 18.2987 94.5409 18.2954 94.4792C18.2921 94.4175 18.3134 94.3569 18.3547 94.3107Z" fill="white"/>
<path d="M42.8351 65.5185C42.8658 65.704 42.8966 65.8895 42.9309 66.0767C43.3572 68.568 43.9863 71.0207 44.8121 73.4107C44.873 73.5965 44.9375 73.7839 45.0036 73.9675C47.0548 79.7045 50.1593 85.0128 54.1592 89.6228C55.7526 91.4558 57.4839 93.1656 59.3381 94.7374C61.899 96.9079 64.8494 99.0587 66.4913 101.861C66.6659 102.152 66.8222 102.453 66.9594 102.762L59.9859 118.581C59.9519 118.609 59.9215 118.639 59.8874 118.667L59.638 119.311C59.5367 119.237 59.4332 119.157 59.3319 119.083C59.2729 119.04 59.2155 118.994 59.1565 118.951C59.1177 118.921 59.079 118.891 59.0422 118.866C59.0293 118.857 59.0164 118.847 59.0071 118.838C58.9703 118.814 58.9388 118.787 58.9057 118.764C58.3261 118.322 57.7485 117.875 57.1731 117.423C57.1695 117.422 57.1695 117.422 57.1674 117.417C52.7917 113.965 48.6674 110.119 45.2612 105.773C45.1587 105.642 45.0526 105.51 44.9534 105.372C43.4289 103.404 42.0688 101.316 40.8865 99.1286C40.2429 97.9286 39.6609 96.6969 39.1426 95.4384C37.8098 92.1839 37 88.7412 36.743 85.2365C36.2317 78.2498 37.9732 71.1784 42.4863 65.9171C42.6018 65.7826 42.7159 65.6515 42.8351 65.5185Z" fill="#E6E6E6"/>
<path d="M43.0213 65.6421C41.1221 74.205 41.9844 83.1452 45.4858 91.1929C46.2465 92.9125 47.1687 94.5911 48.4344 95.998C49.6787 97.36 51.2671 98.3658 53.0346 98.9108C54.6723 99.452 56.4105 99.817 57.8874 100.745C59.4441 101.722 60.3742 103.301 60.6933 105.085C61.0838 107.267 60.6625 109.459 60.1756 111.588C59.6349 113.951 59.0357 116.398 59.6031 118.815C59.6719 119.108 59.2109 119.197 59.1423 118.904C58.1551 114.699 60.5256 110.675 60.3702 106.478C60.2977 104.519 59.6313 102.571 57.9891 101.378C56.553 100.334 54.7609 99.9564 53.0979 99.4226C51.3518 98.8623 49.7952 98.0469 48.4932 96.7412C47.1614 95.4055 46.1713 93.7593 45.3697 92.0666C43.5809 88.2147 42.4122 84.107 41.9065 79.8941C41.3026 75.0891 41.5297 70.2168 42.578 65.488C42.643 65.1953 43.0859 65.3514 43.0213 65.6421Z" fill="white"/>
<path d="M44.205 88.6676C42.7674 89.0684 41.2333 88.9481 39.8767 88.3281C38.52 87.708 37.4292 86.6286 36.7991 85.2827C36.6725 85.0099 37.0928 84.8015 37.2196 85.0746C37.804 86.3291 38.8202 87.3344 40.0847 87.9092C41.3492 88.4841 42.7786 88.5905 44.1151 88.2093C44.4056 88.1268 44.4939 88.5856 44.205 88.6676Z" fill="white"/>
<path d="M52.1679 98.7452C53.6869 96.1128 54.1524 93.0078 53.4715 90.0493C53.4038 89.7563 53.8647 89.6672 53.9323 89.9599C54.6351 93.0399 54.1441 96.2702 52.5573 99.006C52.4059 99.2667 52.0172 99.0045 52.1679 98.7452Z" fill="white"/>
<path d="M41.9002 75.2627C42.4889 75.2229 43.0585 75.0383 43.5578 74.7254C44.057 74.4126 44.4703 73.9814 44.7605 73.4705C44.9086 73.208 45.2971 73.4706 45.15 73.7313C44.8267 74.2943 44.3697 74.77 43.8188 75.1168C43.268 75.4637 42.6401 75.6711 41.9901 75.721C41.9292 75.7308 41.8669 75.7172 41.8157 75.683C41.7646 75.6487 41.7285 75.5964 41.7147 75.5366C41.7031 75.4759 41.7161 75.413 41.7508 75.3618C41.7856 75.3105 41.8392 75.2749 41.9002 75.2627Z" fill="white"/>
<path d="M66.5704 22.1485L78.3329 159.069L54.808 160.828V23.8905C57.6112 22.046 61.6351 21.7575 66.5704 22.1485Z" fill="#CCCCCC"/>
<path d="M124.632 22.1485L112.869 159.069L136.394 160.828V23.8905C133.591 22.046 129.567 21.7575 124.632 22.1485Z" fill="#CCCCCC"/>
<path d="M132.872 166.487H58.0801C56.8808 166.486 55.7311 166.011 54.883 165.168C54.035 164.325 53.558 163.181 53.5567 161.989V25.9C53.558 24.7075 54.0351 23.5641 54.8831 22.7209C55.7311 21.8776 56.8809 21.4033 58.0801 21.4019H132.872C134.071 21.4033 135.221 21.8776 136.069 22.7209C136.917 23.5641 137.394 24.7075 137.395 25.9V161.989C137.394 163.181 136.917 164.325 136.069 165.168C135.221 166.011 134.071 166.486 132.872 166.487ZM58.0801 22.8951C57.279 22.896 56.5108 23.2128 55.9443 23.7762C55.3778 24.3395 55.0591 25.1033 55.0583 25.9V161.989C55.0591 162.786 55.3778 163.549 55.9443 164.113C56.5108 164.676 57.2789 164.993 58.0801 164.994H132.872C133.673 164.993 134.441 164.676 135.008 164.113C135.574 163.549 135.893 162.786 135.894 161.989V25.9C135.893 25.1033 135.574 24.3395 135.008 23.7762C134.441 23.2128 133.673 22.896 132.872 22.8951L58.0801 22.8951Z" fill="#CCCCCC"/>
<path d="M136.645 44.0481H54.3075V45.5413H136.645V44.0481Z" fill="#CCCCCC"/>
<path d="M136.645 68.9341H54.3075V70.4273H136.645V68.9341Z" fill="#CCCCCC"/>
<path d="M81.0267 22.1485H79.5251V90.0872H81.0267V22.1485Z" fill="#CCCCCC"/>
<path d="M111.427 22.1485H109.925V90.0872H111.427V22.1485Z" fill="#CCCCCC"/>
<path d="M146.03 170.593H47.4252C45.6331 170.593 43.9144 169.885 42.6472 168.625C41.3799 167.365 40.668 165.656 40.668 163.874C40.668 162.092 41.3799 160.383 42.6472 159.123C43.9144 157.863 45.6331 157.155 47.4252 157.155H146.03C147.822 157.155 149.54 157.863 150.808 159.123C152.075 160.383 152.787 162.092 152.787 163.874C152.787 165.656 152.075 167.365 150.808 168.625C149.54 169.885 147.822 170.593 146.03 170.593Z" fill="#CCCCCC"/>
<path d="M136.645 86.6031H54.808V91.5803H136.645V86.6031Z" fill="#CCCCCC"/>
<path d="M81.2597 102.443L81.1558 102.393C75.5771 99.7135 68.2715 99.716 57.4674 102.402L57.3521 102.431L57.3175 102.318C56.1746 98.5911 54.8799 94.3705 57.3121 92.2939C57.3462 86.2005 62.7214 81.2526 69.3237 81.2526C75.9247 81.2526 81.2992 86.1979 81.3352 92.2898C84.9534 95.0406 83.2291 99.1056 81.3181 102.344L81.2597 102.443Z" fill="#2F2E41"/>
<path d="M115.549 89.3954C115.449 89.8891 115.241 90.3551 114.94 90.7604C114.64 91.1657 114.253 91.5006 113.808 91.7413C113.363 91.9821 112.871 92.1229 112.365 92.1539C111.86 92.1848 111.353 92.1052 110.882 91.9206L91.167 111.621L89.408 105.504L108.989 87.2093C109.353 86.4426 109.988 85.8355 110.772 85.5029C111.557 85.1704 112.437 85.1355 113.245 85.405C114.054 85.6745 114.735 86.2295 115.16 86.965C115.584 87.7004 115.723 88.5652 115.549 89.3954Z" fill="#FFB6B6"/>
<path d="M66.8227 108.361C66.8227 108.361 65.034 112.392 69.4476 114.878C73.8612 117.364 89.2867 113.929 91.7897 113.45C94.2927 112.97 103.641 99.059 103.641 99.059L102.319 92.2365L89.921 102.939L66.8227 108.361Z" fill="#FFD682"/>
<path d="M63.5673 130.651L63.8175 135.38C63.8175 135.38 63.0789 139.568 63.6864 140.472C64.2893 141.371 80.742 141.485 80.742 141.485C80.742 141.485 81.8291 135.657 82.7655 130.557L63.5673 130.651Z" fill="#FFB6B6"/>
<path d="M110.871 193.17L114.31 192.479L113.326 178.664L108.25 179.684L110.871 193.17Z" fill="#FFB6B6"/>
<path d="M115.798 175.192L118.995 173.762L114.847 160.544L110.128 162.654L115.798 175.192Z" fill="#FFB6B6"/>
<path d="M118.583 167.744L112.562 171.134L97.7136 147.407C87.2897 154.39 77.0964 157.734 66.8207 159.519C63.3465 160.134 59.8044 159.822 59.1374 156.306C59.1063 156.142 59.0814 155.977 59.0629 155.81C58.6526 151.97 63.4571 147.047 64.0678 142.348L77.2168 141.563L78.8383 143.63L94.0447 134.334C97.1028 132.464 101.125 133.475 103.028 136.592C103.129 136.757 103.222 136.925 103.308 137.098L118.583 167.744Z" fill="#2F2E41"/>
<path d="M114.898 183.705L108.009 184.342L95.5172 158.938C83.1302 161.056 71.4442 161.735 61.3363 159.172C57.914 158.316 55.8221 154.803 56.6638 151.324C56.7032 151.161 56.7487 151 56.8003 150.841C58.01 147.171 61.1767 144.574 63.6715 140.537L81.895 140.813L79.8596 147.796L97.5625 145.518C101.123 145.06 104.374 147.622 104.825 151.241C104.848 151.433 104.864 151.624 104.871 151.817L114.898 183.705Z" fill="#2F2E41"/>
<path d="M70.6829 98.8315C74.7696 98.8315 78.0826 95.5371 78.0826 91.4733C78.0826 87.4094 74.7696 84.115 70.6829 84.115C66.5961 84.115 63.2831 87.4094 63.2831 91.4733C63.2831 95.5371 66.5961 98.8315 70.6829 98.8315Z" fill="#FFB6B6"/>
<path d="M66.3447 101.488L73.1296 102.282C73.4158 102.315 73.6843 102.436 73.8977 102.629C74.1112 102.821 74.2589 103.075 74.3205 103.355L75.3995 108.265L82.1257 116.141C82.1257 116.141 84.5411 120.645 83.6353 125.748C82.7296 130.852 82.3316 134.645 82.3316 134.645C82.3316 134.645 64.2884 141.372 63.6846 140.471C63.0808 139.57 62.8848 135.479 62.8848 135.479L60.4695 108.759C60.4695 108.759 63.1867 104.256 64.6963 104.256C65.6706 104.223 65.5456 102.043 66.3447 101.488Z" fill="#FFD682"/>
<path d="M82.515 136.287C83.4665 136.287 84.2378 135.367 84.2378 134.232C84.2378 133.096 83.4665 132.176 82.515 132.176C81.5635 132.176 80.7922 133.096 80.7922 134.232C80.7922 135.367 81.5635 136.287 82.515 136.287Z" fill="#FFD682"/>
<path d="M109.164 189.613L114.408 187L115.396 189.292L122.027 190.625C122.355 190.691 122.653 190.859 122.877 191.105C123.102 191.351 123.242 191.662 123.276 191.993C123.31 192.323 123.237 192.656 123.068 192.943C122.898 193.229 122.641 193.454 122.334 193.585L115.927 196.316L113.845 194.519L114.392 196.97L111.976 198L109.164 189.613Z" fill="#2F2E41"/>
<path d="M114.297 174.092L119.494 171.387L120.523 173.662L127.176 174.879C127.505 174.939 127.806 175.102 128.035 175.344C128.264 175.586 128.409 175.895 128.449 176.225C128.489 176.554 128.422 176.888 128.258 177.178C128.093 177.467 127.84 177.697 127.536 177.833L121.178 180.675L119.064 178.915L119.654 181.357L117.257 182.428L114.297 174.092Z" fill="#2F2E41"/>
<path d="M66.4551 89.1652C64.5001 89.1683 62.5921 88.5698 60.9929 87.4516L60.9395 87.4144V87.3497C60.9416 85.4693 61.6938 83.6665 63.0309 82.3369C64.3681 81.0072 66.181 80.2593 68.072 80.2572H71.0752C72.9662 80.2593 74.7792 81.0072 76.1163 82.3369C77.4535 83.6665 78.2056 85.4693 78.2078 87.3497C78.2058 87.78 78.0349 88.1926 77.7315 88.4996C77.4281 88.8065 77.0162 88.9836 76.5835 88.993L66.6238 89.1637C66.5676 89.1647 66.5112 89.1652 66.4551 89.1652Z" fill="#2F2E41"/>
<path d="M78.7083 85.9875C79.6659 85.4378 79.8259 83.9307 79.0657 82.6214C78.3055 81.3121 76.913 80.6963 75.9554 81.2461C74.9978 81.7959 74.8378 83.3029 75.598 84.6123C76.3581 85.9216 77.7507 86.5373 78.7083 85.9875Z" fill="#2F2E41"/>
<path d="M63.7317 84.5269C64.8067 83.4578 65.0444 81.9609 64.2626 81.1834C63.4807 80.4059 61.9753 80.6423 60.9002 81.7113C59.8252 82.7804 59.5875 84.2773 60.3694 85.0548C61.1512 85.8323 62.6566 85.5959 63.7317 84.5269Z" fill="#2F2E41"/>
<path d="M129.221 151.804H121.835C121.669 151.804 121.504 151.84 121.353 151.909C121.202 151.979 121.067 152.08 120.96 152.207C120.687 152.157 120.407 152.172 120.142 152.251C119.876 152.33 119.633 152.47 119.433 152.661C119.233 152.851 119.081 153.086 118.99 153.346C118.898 153.606 118.87 153.884 118.908 154.156C118.945 154.429 119.048 154.689 119.206 154.915C119.364 155.141 119.574 155.327 119.819 155.457C120.063 155.586 120.335 155.656 120.612 155.661C120.889 155.666 121.163 155.606 121.412 155.485L122.024 157.465C122.097 157.699 122.243 157.904 122.442 158.05C122.64 158.196 122.881 158.275 123.127 158.275H127.929C128.176 158.275 128.417 158.196 128.615 158.05C128.814 157.904 128.96 157.699 129.032 157.465L130.324 153.289C130.378 153.118 130.389 152.936 130.359 152.759C130.329 152.582 130.257 152.415 130.15 152.27C130.042 152.126 129.902 152.008 129.741 151.927C129.58 151.847 129.402 151.804 129.221 151.804ZM120.648 155.164C120.316 155.164 119.998 155.033 119.763 154.799C119.529 154.566 119.397 154.25 119.397 153.92C119.397 153.59 119.529 153.273 119.763 153.04C119.998 152.806 120.316 152.675 120.648 152.675C120.671 152.675 120.692 152.681 120.715 152.682C120.665 152.882 120.671 153.092 120.732 153.289L121.261 154.998C121.075 155.105 120.863 155.163 120.648 155.164Z" fill="#3F3D56"/>
<path d="M96.2399 146.402C95.7356 146.449 95.2271 146.384 94.7503 146.214C94.2736 146.044 93.8402 145.772 93.4806 145.417C93.121 145.063 92.844 144.634 92.6691 144.161C92.4942 143.688 92.4257 143.183 92.4683 142.681L67.8326 129.554L73.221 126.123L96.4638 139.526C97.307 139.653 98.0739 140.084 98.6194 140.735C99.1648 141.387 99.4508 142.215 99.4232 143.063C99.3956 143.911 99.0564 144.719 98.4697 145.334C97.8829 145.95 97.0896 146.33 96.2399 146.402Z" fill="#FFB6B6"/>
<path d="M63.9883 105.429C63.9883 105.429 59.5921 104.881 58.4637 109.799C57.3354 114.716 65.0697 128.425 66.2498 130.671C67.4299 132.918 83.5138 137.832 83.5138 137.832L89.7071 134.615L75.8398 125.876L63.9883 105.429Z" fill="#FFD682"/>
<path d="M94.9755 85.11H96.4771C97.2072 85.11 97.9074 85.3984 98.4237 85.9118C98.94 86.4251 99.23 87.1214 99.23 87.8474H92.2226C92.2226 87.1214 92.5126 86.4251 93.0289 85.9118C93.5452 85.3984 94.2454 85.11 94.9755 85.11Z" fill="#CCCCCC"/>
<path d="M47.3605 34.0354C55.5764 34.0354 62.2367 27.4125 62.2367 19.2427C62.2367 11.073 55.5764 4.45006 47.3605 4.45006C39.1446 4.45006 32.4843 11.073 32.4843 19.2427C32.4843 27.4125 39.1446 34.0354 47.3605 34.0354Z" fill="#FF6584"/>
<path d="M92.9079 18.4719C88.9709 14.3651 84.3986 10.6186 78.9857 8.6388C77.478 8.08498 75.9146 7.69431 74.3227 7.47356C74.3099 7.47182 74.2977 7.47439 74.285 7.47337C74.2591 7.46673 74.2329 7.46161 74.2064 7.45801C71.9799 7.17597 69.72 7.31164 67.5438 7.85799C66.4796 8.12355 65.4414 8.48318 64.4416 8.9326C63.4383 9.41933 62.4661 9.96718 61.5307 10.573C59.5507 11.7516 57.3707 12.5603 55.0982 12.9592C53.9576 13.1634 52.8022 13.2762 51.6434 13.2964C50.6379 13.3165 49.6897 13.3512 48.737 13.7124C47.7194 14.0929 46.8053 14.7047 46.0677 15.4989C45.33 16.2931 44.7893 17.2478 44.4886 18.2867C44.4654 18.3792 44.4724 18.4767 44.5085 18.565C44.5447 18.6533 44.6081 18.7279 44.6896 18.778C44.9473 18.9616 45.1986 19.1698 45.4693 19.3333C45.7102 19.4429 45.9674 19.5127 46.2309 19.5399C46.6614 19.6302 47.0924 19.7179 47.524 19.8029C49.1138 20.1162 50.7103 20.3934 52.3134 20.6348C55.5572 21.1231 58.8185 21.467 62.0973 21.6666C68.6658 22.0623 75.2567 21.8653 81.7894 21.0781C85.4608 20.6359 89.1073 20.0088 92.7148 19.199C92.7879 19.1778 92.8541 19.1382 92.9072 19.084C92.9603 19.0298 92.9985 18.9628 93.0179 18.8897C93.0373 18.8165 93.0374 18.7396 93.0181 18.6664C92.9989 18.5932 92.9609 18.5262 92.9079 18.4719Z" fill="#E6E6E6"/>
<path d="M48.0665 28.3624C46.5588 27.8086 44.9954 27.4179 43.4035 27.1971C43.3907 27.1954 43.3785 27.198 43.3658 27.1969C43.3399 27.1903 43.3137 27.1852 43.2872 27.1816C41.0607 26.8995 38.8008 27.0352 36.6246 27.5816C35.5604 27.8471 34.5222 28.2068 33.5224 28.6562C32.5191 29.1429 31.5469 29.6908 30.6115 30.2966C28.6315 31.4751 26.4515 32.2838 24.179 32.6828C23.0384 32.887 21.8831 32.9998 20.7242 33.02C19.7187 33.04 18.7705 33.0748 17.8178 33.436C16.8002 33.8165 15.8861 34.4283 15.1485 35.2225C14.4108 36.0167 13.8701 36.9713 13.5694 38.0103C13.5462 38.1028 13.5532 38.2002 13.5893 38.2885C13.6255 38.3768 13.6889 38.4515 13.7705 38.5016C14.0282 38.6851 14.2794 38.8934 14.5501 39.0569C14.791 39.1665 15.0482 39.2363 15.3117 39.2634C15.7422 39.3537 16.1732 39.4414 16.6048 39.5265C18.1946 39.8397 19.7911 40.117 21.3942 40.3583C24.638 40.8466 27.8993 41.1906 31.1781 41.3902C37.7466 41.7858 44.3376 41.5888 50.8702 40.8017C54.5417 40.3595 58.1881 39.7323 61.7956 38.9226C61.8687 38.9014 61.935 38.8617 61.988 38.8075C62.0411 38.7533 62.0793 38.6864 62.0987 38.6132C62.1181 38.5401 62.1182 38.4631 62.0989 38.3899C62.0797 38.3167 62.0417 38.2497 61.9887 38.1954C58.0517 34.0886 53.4794 30.3421 48.0665 28.3624Z" fill="#E6E6E6"/>
<path d="M155.345 138.639L143.905 123.695L134.878 128.77L154.006 151.357L155.345 138.639Z" fill="#3F3D56"/>
<path d="M181.697 114.346C181.951 120.609 182.927 126.822 184.605 132.864C184.245 133.707 183.873 134.545 183.489 135.377C182.037 138.528 180.411 141.597 178.619 144.57C173.593 152.918 167.319 160.458 160.012 166.93C159.221 167.629 158.419 168.317 157.607 168.993C152.974 162.642 150.474 155.634 149.486 148.422C149.361 147.507 149.258 146.581 149.18 145.66V145.655C148.991 143.417 148.93 141.171 148.998 138.926C149 138.747 149.005 138.565 149.013 138.383C149.1 135.984 149.318 133.58 149.646 131.199V131.196C149.683 130.923 149.721 130.649 149.763 130.375C149.884 129.554 150.019 128.733 150.166 127.916C151.026 123.209 152.225 118.569 153.755 114.032V114.03C153.798 113.898 153.84 113.769 153.888 113.639C154.053 113.146 154.221 112.659 154.393 112.171C154.404 112.133 154.417 112.095 154.433 112.059C154.656 111.422 154.884 110.79 155.117 110.163C155.179 109.988 155.244 109.814 155.312 109.64C155.575 108.941 155.842 108.246 156.115 107.562C156.2 107.343 156.288 107.124 156.375 106.908C156.443 106.741 156.508 106.574 156.578 106.41V106.407C156.976 105.429 157.379 104.47 157.787 103.531C158.931 100.888 160.107 98.4016 161.253 96.1096L161.256 96.1071C166.013 86.6181 170.338 80.4563 170.338 80.4563L186.577 85.6823C184.64 89.0992 183.141 94.1386 182.32 100.084C181.688 104.809 181.479 109.581 181.697 114.344L181.697 114.346Z" fill="#3F3D56"/>
<path d="M154.706 112.825C154.611 112.604 154.503 112.387 154.393 112.171C153.822 111.072 153.088 110.065 152.214 109.185C152.083 109.053 151.948 108.921 151.808 108.796C150.301 107.416 148.468 106.435 146.478 105.945C144.489 105.456 142.407 105.472 140.426 105.994L140.416 105.999L140.341 106.019L140.359 106.104C140.434 106.498 140.542 106.885 140.684 107.261C140.721 107.363 140.764 107.46 140.807 107.557C140.824 107.602 140.847 107.642 140.867 107.687C140.867 107.687 140.864 107.689 140.869 107.689C140.869 107.691 140.872 107.694 140.872 107.696C140.919 107.789 140.964 107.883 141.014 107.973C140.912 107.876 140.814 107.776 140.719 107.674C140.626 107.58 140.541 107.48 140.456 107.38C140.164 107.042 139.901 106.681 139.668 106.3L139.628 106.233L139.558 106.261C138.613 106.586 137.712 107.025 136.875 107.567L136.785 107.627C136.145 108.044 135.425 108.323 134.67 108.446C133.915 108.569 133.142 108.532 132.403 108.339C131.236 108.04 130.02 107.985 128.832 108.178C127.643 108.371 126.508 108.808 125.498 109.461C124.829 109.895 124.224 110.419 123.701 111.019C123.656 111.071 123.611 111.126 123.566 111.178C123.471 111.292 123.381 111.409 123.293 111.529C122.352 112.779 121.775 114.262 121.624 115.817L121.619 115.874L121.666 115.906C122.513 116.484 123.471 116.88 124.479 117.071C123.846 117.159 123.204 117.175 122.567 117.118H122.565C122.276 117.095 121.988 117.055 121.704 116.999L121.651 116.989H121.649L121.584 116.976L121.594 117.096C121.668 118.617 122.15 120.09 122.988 121.364L123.013 121.399C123.022 121.411 123.03 121.425 123.038 121.439C123.393 121.979 123.688 122.555 123.919 123.158C124.504 124.657 124.633 126.293 124.289 127.864C123.9 129.544 124.029 131.302 124.66 132.908C125.29 134.514 126.392 135.894 127.823 136.868C129.079 137.727 130.544 138.239 132.065 138.349C132.272 138.366 132.483 138.376 132.693 138.376C133.896 138.38 135.087 138.133 136.189 137.652L136.229 137.637L136.239 137.592C136.451 136.912 136.749 136.261 137.125 135.656C137.002 136.133 136.94 136.624 136.94 137.117V137.281L137.083 137.199C137.205 137.127 137.33 137.049 137.443 136.977C138.119 136.538 138.731 136.009 139.262 135.405C139.47 135.166 139.68 134.934 139.901 134.703L139.903 134.7C140.331 134.247 140.784 133.804 141.254 133.381C142.255 132.487 143.327 131.674 144.458 130.95C145.588 130.228 146.77 129.589 147.994 129.039H147.997C148.134 128.974 148.274 128.912 148.412 128.852C149.021 128.588 149.608 128.275 150.166 127.916C150.186 127.904 150.204 127.894 150.221 127.881C152.641 126.306 154.419 123.928 155.241 121.171C156.062 118.414 155.873 115.457 154.706 112.825Z" fill="#FFD682"/>
<path opacity="0.15" d="M124.701 131.397C124.633 131.7 124.581 132.006 124.546 132.314C124.08 130.85 124.013 129.289 124.351 127.791C124.403 127.561 124.442 127.33 124.472 127.096C124.935 128.484 125.014 129.969 124.701 131.397Z" fill="black"/>
<path opacity="0.15" d="M124.891 120.602C124.149 120.705 123.398 120.708 122.655 120.613C122.461 120.249 122.293 119.871 122.153 119.482C122.98 120.037 123.911 120.418 124.891 120.602Z" fill="black"/>
<path opacity="0.15" d="M122.596 117.038C122.322 117.734 122.14 118.462 122.055 119.205C121.827 118.498 121.692 117.764 121.654 117.023L121.648 116.903L121.766 116.926C122.041 116.977 122.318 117.015 122.596 117.038Z" fill="black"/>
<path opacity="0.15" d="M125.562 109.387C126.571 108.733 127.706 108.296 128.894 108.102C130.082 107.909 131.298 107.964 132.463 108.263C133.203 108.458 133.976 108.495 134.732 108.373C135.487 108.25 136.208 107.971 136.848 107.553L136.938 107.493C137.775 106.95 138.675 106.51 139.619 106.184L139.692 106.159L139.731 106.224C140.104 106.837 140.557 107.4 141.076 107.897C140.761 107.312 140.54 106.682 140.421 106.028L140.404 105.942L140.49 105.92C142.348 105.431 144.296 105.385 146.175 105.788C148.054 106.19 149.811 107.028 151.302 108.234C152.793 109.44 153.977 110.979 154.756 112.727C155.535 114.474 155.887 116.38 155.785 118.288C155.391 116.732 154.69 115.269 153.723 113.985C152.756 112.7 151.543 111.619 150.153 110.804C148.763 109.989 147.224 109.456 145.625 109.237C144.027 109.018 142.4 109.116 140.84 109.526L140.755 109.549L140.772 109.635C140.89 110.288 141.111 110.919 141.427 111.504C140.907 111.007 140.455 110.444 140.082 109.83L140.042 109.766L139.97 109.79C139.026 110.117 138.126 110.556 137.289 111.1L137.198 111.159C136.559 111.577 135.838 111.857 135.082 111.979C134.327 112.102 133.554 112.064 132.814 111.87C130.877 111.37 128.825 111.554 127.008 112.39C125.192 113.226 123.724 114.663 122.853 116.455C122.466 116.27 122.091 116.062 121.729 115.831L121.68 115.8L121.686 115.742C121.81 114.462 122.223 113.225 122.895 112.125C123.566 111.024 124.478 110.089 125.562 109.387Z" fill="black"/>
<path d="M218.601 45.8001L218.364 45.6433L218.191 45.8673C216.854 47.5405 215.791 49.4124 215.04 51.4144C215.144 49.1081 215.549 46.8251 216.246 44.623L216.321 44.3916L216.106 44.2696C213.306 42.6929 210.322 41.4627 207.222 40.6064L206.884 40.5168C204.508 39.8684 202.295 38.7293 200.392 37.1736C198.488 35.6179 196.935 33.6807 195.835 31.4882C193.278 26.4564 189.239 22.3197 184.256 19.63C179.273 16.9403 173.584 15.8256 167.948 16.4347H167.945C167.885 16.4397 167.823 16.4471 167.763 16.4546C167.66 16.4646 167.56 16.477 167.46 16.4894C167.255 16.5168 167.054 16.5442 166.854 16.5741C166.684 16.5989 166.511 16.6263 166.341 16.6562C166.251 16.6686 166.163 16.6835 166.076 16.701C165.988 16.7159 165.898 16.7308 165.81 16.7483H165.808C164.128 17.0643 162.48 17.535 160.888 18.1543H160.885V18.1568L160.482 18.3136C160.067 18.4828 159.655 18.662 159.246 18.8511C159.153 18.8934 159.063 18.9382 158.971 18.9805C158.946 18.993 158.918 19.0054 158.893 19.0203C158.63 19.1448 158.37 19.2742 158.112 19.411C158.075 19.4285 158.037 19.4484 158 19.4683L157.759 19.5952C157.231 19.8789 156.713 20.18 156.203 20.4986C156.16 20.5234 156.12 20.5483 156.078 20.5757C156.033 20.6056 155.985 20.6354 155.94 20.6653C155.912 20.6802 155.885 20.7001 155.857 20.7176C155.78 20.7648 155.705 20.8146 155.63 20.8669C155.48 20.9639 155.329 21.0635 155.182 21.1655C155.029 21.2675 154.879 21.3745 154.729 21.4815L154.579 21.5886L154.606 21.7727C154.631 21.9245 154.654 22.0763 154.681 22.2256C154.706 22.375 154.731 22.5218 154.759 22.6686C154.801 22.915 154.849 23.1589 154.896 23.3953C154.929 23.5521 154.959 23.7064 154.994 23.8582C155.027 24.0149 155.062 24.1717 155.099 24.3285C155.172 24.652 155.249 24.9656 155.332 25.2742C155.372 25.4285 155.414 25.5828 155.46 25.7346C155.485 25.8266 155.51 25.9187 155.537 26.0083C155.557 26.0705 155.577 26.1327 155.597 26.1949C155.602 26.2149 155.607 26.2373 155.615 26.2597C155.62 26.2807 155.627 26.3015 155.635 26.3219C155.662 26.414 155.69 26.5035 155.717 26.5906C155.732 26.6379 155.747 26.6852 155.765 26.73C155.8 26.837 155.837 26.9465 155.875 27.051C155.915 27.1705 155.958 27.2899 156 27.4069C156.01 27.4368 156.02 27.4641 156.03 27.494C156.038 27.5164 156.045 27.5388 156.055 27.5612C156.065 27.5861 156.075 27.6134 156.085 27.6383C156.128 27.7503 156.17 27.8648 156.215 27.9768C156.23 28.0166 156.245 28.0589 156.263 28.0987C156.669 29.1125 157.167 30.0872 157.752 31.0104C157.104 30.4579 156.48 29.8723 155.88 29.2534C154.954 28.2966 154.101 27.2726 153.327 26.19C153.265 26.1054 153.202 26.0183 153.145 25.9312C153.027 25.7644 152.912 25.5977 152.799 25.4285C152.679 25.2543 152.564 25.0726 152.451 24.8934C152.376 24.774 152.301 24.652 152.229 24.5326C152.156 24.4181 152.088 24.3061 152.023 24.1916L151.828 23.8582H151.826V23.8606L151.55 24.1294C151.44 24.2364 151.33 24.3434 151.223 24.4504C147.859 27.8158 145.422 31.9851 144.148 36.5574L144.11 36.6943L144.073 36.8362C144 37.09 143.927 37.3364 143.85 37.5877V37.5902C143.775 37.8391 143.695 38.0879 143.61 38.3318C143.532 38.5633 143.452 38.7922 143.367 39.0212C143.339 39.0983 143.309 39.1755 143.277 39.2526C143.224 39.4019 143.167 39.5487 143.109 39.6981C143.081 39.7652 143.054 39.8349 143.026 39.9021C142.959 40.0664 142.891 40.2306 142.824 40.3924C142.814 40.4173 142.801 40.4446 142.789 40.4695C142.769 40.5193 142.746 40.5691 142.726 40.6163C142.674 40.7358 142.618 40.8577 142.566 40.9772C142.528 41.0543 142.493 41.134 142.458 41.2111C142.443 41.246 142.426 41.2808 142.411 41.3156C142.318 41.5147 142.223 41.7113 142.123 41.9055C142.01 42.1344 141.895 42.3634 141.773 42.5873C141.665 42.7964 141.552 43.0004 141.435 43.2045C141.232 43.5653 141.019 43.9237 140.799 44.2721C140.714 44.4065 140.629 44.5409 140.541 44.6753C140.521 44.7076 140.501 44.74 140.481 44.7698C140.409 44.8868 140.334 44.9988 140.256 45.1133C140.203 45.1904 140.151 45.2675 140.098 45.3422C140.011 45.4766 139.918 45.606 139.823 45.7329C139.798 45.7727 139.77 45.8101 139.743 45.8474C139.603 46.0415 139.463 46.2306 139.32 46.4198C139.315 46.4223 139.315 46.4247 139.312 46.4272C139.307 46.4272 139.307 46.4297 139.305 46.4322C139.242 46.5143 139.18 46.5965 139.115 46.6761C139.03 46.7931 138.937 46.9075 138.844 47.0195C138.694 47.2087 138.537 47.4003 138.376 47.5869C138.371 47.5919 138.369 47.5969 138.364 47.5994C137.535 48.5682 136.636 49.4764 135.676 50.3169C135.659 50.3318 135.646 50.3468 135.629 50.3592C135.493 50.4762 135.358 50.5931 135.218 50.7076C135.161 50.7549 135.103 50.8022 135.045 50.8495C134.95 50.9291 134.853 51.0087 134.758 51.0809C134.746 51.0923 134.734 51.1024 134.72 51.1108C134.635 51.1804 134.552 51.2452 134.467 51.3099C134.365 51.392 134.262 51.4691 134.157 51.5463C133.661 51.9196 133.153 52.2721 132.63 52.6039C132.553 52.6562 132.47 52.7085 132.39 52.7582C132.343 52.7881 132.295 52.8179 132.25 52.8428C132.06 52.9598 131.87 53.0743 131.679 53.1838C131.489 53.2958 131.294 53.4028 131.101 53.5073C130.688 53.7313 130.28 53.9652 129.882 54.2091C129.682 54.3335 129.482 54.4579 129.284 54.5849C128.499 55.0925 127.742 55.6359 127.014 56.2149C126.287 56.7942 125.59 57.4097 124.925 58.0589C124.842 58.1386 124.76 58.2207 124.677 58.3053C124.512 58.4671 124.352 58.6313 124.199 58.7956C123.954 59.0469 123.718 59.3057 123.486 59.567C122.258 60.9518 121.172 62.4539 120.242 64.0515C119.775 64.8492 119.351 65.6707 118.971 66.5127C118.683 67.1423 118.42 67.7869 118.183 68.4389C118.025 68.8744 117.877 69.314 117.74 69.7578C117.672 69.9793 117.607 70.2033 117.544 70.4272C117.332 71.1863 117.154 71.9527 117.009 72.7217C116.891 73.3389 116.796 73.9569 116.724 74.5757C116.686 74.8868 116.656 75.1979 116.628 75.5065C116.564 76.2649 116.531 77.0241 116.53 77.7841C116.525 80.0639 116.804 82.3356 117.359 84.5475C117.482 85.0353 117.618 85.5206 117.767 86.0034C117.842 86.2448 117.922 86.4837 118.002 86.7226C118.205 87.3198 118.43 87.9113 118.676 88.4969C118.823 88.8478 118.978 89.1962 119.141 89.5421C120.175 91.7412 121.494 93.7961 123.065 95.6541C123.323 95.9602 123.589 96.2614 123.864 96.5575C123.866 96.5575 123.864 96.56 123.864 96.56C124.545 97.2986 125.266 97.9997 126.023 98.6604H126.026C126.329 98.9266 126.637 99.1846 126.949 99.4343C126.952 99.4318 126.952 99.4343 126.952 99.4343C127.267 99.6881 127.585 99.932 127.91 100.168C128.073 100.285 128.238 100.402 128.406 100.519C128.734 100.751 129.068 100.974 129.409 101.189H129.412C129.752 101.408 130.098 101.617 130.448 101.816C131.151 102.217 131.872 102.592 132.613 102.933L132.738 102.991L132.866 102.933C134.053 102.402 135.278 101.955 136.53 101.597C136.805 101.517 137.083 101.445 137.358 101.375C138.054 101.204 138.754 101.059 139.46 100.942C138.772 101.285 138.109 101.674 137.473 102.105C136.98 102.436 136.494 102.796 136.006 103.195C135.844 103.326 135.681 103.463 135.518 103.603L135.113 103.951L135.621 104.118C135.806 104.178 135.991 104.237 136.177 104.292C136.429 104.372 136.68 104.444 136.925 104.511C137.46 104.66 137.999 104.792 138.542 104.907C138.674 104.934 138.804 104.961 138.937 104.989C139.195 105.039 139.455 105.088 139.715 105.133C139.726 105.136 139.737 105.138 139.748 105.138C140.018 105.183 140.291 105.225 140.561 105.263C141.064 105.335 141.567 105.392 142.07 105.434C142.125 105.442 142.181 105.444 142.238 105.447C142.361 105.457 142.481 105.467 142.603 105.474C142.874 105.492 143.147 105.504 143.419 105.514C143.439 105.514 143.457 105.516 143.477 105.516C143.615 105.521 143.752 105.526 143.89 105.529C143.89 105.529 143.89 105.531 143.892 105.529C144.03 105.531 144.168 105.534 144.305 105.534H145.066C145.209 105.534 145.351 105.536 145.497 105.536C145.697 105.536 145.899 105.539 146.1 105.541C146.152 105.541 146.207 105.544 146.262 105.544C146.583 105.549 146.903 105.556 147.223 105.564C147.243 105.564 147.263 105.566 147.283 105.566C147.604 105.576 147.924 105.586 148.244 105.601C148.315 105.604 148.385 105.606 148.457 105.611C148.765 105.623 149.073 105.638 149.381 105.656C149.468 105.661 149.558 105.668 149.648 105.673C149.881 105.686 150.116 105.701 150.349 105.718C150.487 105.725 150.622 105.735 150.76 105.748C151.315 105.79 151.868 105.837 152.424 105.892C152.609 105.907 152.794 105.927 152.979 105.947C153.475 105.999 153.972 106.056 154.471 106.119C154.694 106.144 154.916 106.173 155.139 106.203C155.164 106.206 155.189 106.208 155.214 106.213C155.49 106.251 155.762 106.288 156.038 106.328C156.218 106.353 156.398 106.38 156.578 106.407C156.763 106.435 156.949 106.462 157.134 106.494C157.234 106.509 157.334 106.527 157.437 106.544C157.677 106.582 157.92 106.621 158.162 106.666C158.184 106.668 158.206 106.672 158.227 106.676C158.743 106.766 159.261 106.86 159.777 106.962C160.079 107.02 160.38 107.079 160.68 107.141C160.915 107.189 161.151 107.239 161.386 107.288C161.426 107.296 161.466 107.306 161.506 107.316C161.515 107.318 161.524 107.32 161.533 107.321C161.889 107.398 162.247 107.477 162.602 107.562C163.836 107.846 165.068 108.161 166.299 108.508C166.581 108.585 166.864 108.667 167.147 108.749C167.267 108.784 167.385 108.819 167.502 108.854C167.748 108.926 167.99 108.998 168.236 109.075C168.451 109.14 168.669 109.207 168.884 109.277C169.019 109.319 169.154 109.361 169.289 109.406C169.499 109.471 169.71 109.538 169.917 109.61C170.095 109.665 170.27 109.722 170.445 109.784C170.696 109.867 170.948 109.951 171.199 110.041C171.271 110.066 171.346 110.09 171.419 110.118C171.724 110.222 172.03 110.329 172.335 110.441C172.633 110.548 172.931 110.658 173.226 110.767C173.431 110.845 173.636 110.919 173.839 110.999C174.067 111.086 174.294 111.173 174.52 111.263C174.845 111.39 175.173 111.519 175.498 111.651C175.799 111.77 176.096 111.892 176.397 112.019C176.452 112.042 176.509 112.064 176.564 112.089C176.825 112.196 177.085 112.308 177.343 112.42C177.51 112.489 177.676 112.562 177.841 112.634C178.561 112.947 179.281 113.272 180.001 113.607H180.003C180.454 113.818 180.911 114.02 181.372 114.212C181.48 114.256 181.587 114.301 181.697 114.343C181.88 114.421 182.065 114.493 182.25 114.567C182.371 114.615 182.491 114.662 182.613 114.707C182.791 114.777 182.971 114.844 183.151 114.908C183.342 114.978 183.529 115.048 183.722 115.112C183.79 115.137 183.857 115.16 183.927 115.185C184.15 115.259 184.373 115.334 184.598 115.406C184.62 115.414 184.643 115.421 184.668 115.429C184.903 115.503 185.138 115.578 185.376 115.648C185.395 115.654 185.414 115.66 185.434 115.665C185.689 115.742 185.949 115.817 186.207 115.889C186.588 115.993 186.97 116.093 187.353 116.185C187.423 116.202 187.493 116.22 187.564 116.235C187.769 116.285 187.971 116.332 188.177 116.377C188.394 116.426 188.615 116.471 188.832 116.516C189.053 116.561 189.273 116.606 189.491 116.645C189.608 116.668 189.726 116.69 189.841 116.71L190.149 116.762C190.361 116.8 190.574 116.832 190.789 116.867C190.795 116.867 190.801 116.868 190.807 116.869C191.05 116.907 191.29 116.942 191.533 116.971C191.765 117.004 191.998 117.031 192.231 117.059C192.279 117.064 192.329 117.069 192.379 117.073C192.571 117.096 192.764 117.118 192.957 117.136C193.012 117.141 193.067 117.146 193.122 117.151C193.312 117.168 193.502 117.185 193.693 117.198C193.731 117.203 193.769 117.205 193.808 117.205C193.978 117.22 194.148 117.233 194.318 117.24C194.438 117.25 194.556 117.255 194.676 117.263C194.739 117.265 194.799 117.268 194.861 117.27C195.026 117.28 195.192 117.285 195.359 117.29C195.562 117.297 195.765 117.302 195.965 117.307C196.208 117.312 196.453 117.315 196.696 117.315H196.701C196.938 117.315 197.179 117.312 197.416 117.307H197.507L197.769 117.3C197.905 117.297 198.04 117.292 198.172 117.288C198.428 117.278 198.68 117.265 198.933 117.25C199.033 117.245 199.136 117.238 199.236 117.233C199.281 117.23 199.329 117.225 199.374 117.223C199.531 117.213 199.686 117.203 199.844 117.19C200.007 117.178 200.172 117.163 200.335 117.146C200.545 117.126 200.755 117.103 200.965 117.081C201.13 117.064 201.296 117.044 201.458 117.024C201.48 117.022 201.502 117.018 201.523 117.014C201.681 116.996 201.839 116.976 201.994 116.954C202.179 116.929 202.362 116.902 202.544 116.874C202.564 116.872 202.582 116.869 202.602 116.867C202.917 116.817 203.235 116.767 203.553 116.71C203.886 116.65 204.219 116.586 204.549 116.519C204.672 116.494 204.792 116.466 204.914 116.441C204.982 116.426 205.052 116.414 205.117 116.399C205.22 116.377 205.32 116.354 205.42 116.329C205.438 116.327 205.458 116.322 205.475 116.319C205.615 116.29 205.753 116.255 205.893 116.22C206.173 116.153 206.449 116.083 206.724 116.008C206.846 115.979 206.969 115.946 207.087 115.914C207.122 115.904 207.157 115.894 207.189 115.884C207.697 115.742 208.201 115.592 208.701 115.434C208.921 115.364 209.139 115.292 209.357 115.215C209.825 115.055 210.288 114.888 210.748 114.712C210.871 114.667 210.993 114.617 211.116 114.57C211.296 114.498 211.476 114.426 211.654 114.353C211.814 114.286 211.974 114.219 212.137 114.149C212.217 114.117 212.297 114.082 212.377 114.047C212.618 113.943 212.858 113.836 213.096 113.729C213.256 113.654 213.413 113.582 213.571 113.507C213.821 113.388 214.069 113.266 214.317 113.144C214.379 113.112 214.44 113.079 214.5 113.049C214.657 112.97 214.815 112.888 214.975 112.808C215.228 112.674 215.481 112.539 215.731 112.4C215.816 112.355 215.899 112.308 215.984 112.261C216.259 112.106 216.532 111.949 216.802 111.79C217.4 111.434 217.99 111.063 218.571 110.675C218.717 110.581 218.862 110.481 219.004 110.384C219.275 110.2 219.54 110.011 219.805 109.822C219.833 109.802 219.858 109.782 219.885 109.764C220.018 109.667 220.151 109.57 220.283 109.471C220.559 109.264 220.831 109.055 221.104 108.841C221.109 108.839 221.117 108.831 221.124 108.826C221.247 108.729 221.369 108.632 221.489 108.535C221.862 108.234 222.23 107.928 222.591 107.612C222.768 107.46 222.944 107.303 223.116 107.146C223.246 107.03 223.377 106.913 223.504 106.793C223.762 106.552 224.015 106.313 224.265 106.069C224.39 105.949 224.513 105.825 224.638 105.701C224.76 105.576 224.886 105.452 225.008 105.325C225.051 105.283 225.093 105.238 225.136 105.193C225.261 105.061 225.386 104.927 225.511 104.795C225.619 104.68 225.724 104.561 225.832 104.441C226.012 104.242 226.194 104.043 226.372 103.842C226.382 103.83 226.392 103.819 226.402 103.809C226.412 103.797 226.422 103.787 226.43 103.777H226.427C230.065 99.594 232.768 94.6905 234.357 89.391C235.946 84.0915 236.385 78.5169 235.645 73.0359C234.906 67.555 233.004 62.2928 230.065 57.5976C227.127 52.9024 223.22 48.8811 218.601 45.8001Z" fill="#FFD682"/>
<g opacity="0.15">
<path d="M167.946 16.4327C168.445 18.2147 169.195 19.9172 170.175 21.4895C168.535 20.0883 167.069 18.4968 165.81 16.7489C166.517 16.6159 167.229 16.5105 167.946 16.4327Z" fill="black"/>
<path d="M143.526 43.9907C141.673 44.9959 139.941 46.2065 138.363 47.5992C141.028 44.4655 142.976 40.793 144.071 36.8362C144.084 36.7887 144.098 36.7408 144.111 36.6932L144.148 36.5585C145.464 31.836 148.019 27.546 151.549 24.1271L151.827 23.8582L152.023 24.1905C153.105 26.0206 154.4 27.7176 155.882 29.2465C153.612 35.6158 149.195 40.9168 143.526 43.9907Z" fill="black"/>
<path d="M156.571 27.0396L156.534 27.1743C156.521 27.2219 156.508 27.2697 156.495 27.3173C156.422 27.5791 156.344 27.839 156.264 28.0978C155.472 26.0587 154.916 23.9368 154.607 21.7728L154.577 21.5891L154.729 21.4812C156.634 20.1205 158.702 19.0024 160.886 18.1531C158.925 20.835 157.464 23.8448 156.571 27.0396Z" fill="black"/>
<path d="M131.102 53.5096C132.741 52.6174 134.276 51.5464 135.677 50.3166C132.878 53.5564 130.872 57.3966 129.816 61.5362C128.76 65.6758 128.682 70.0024 129.588 74.177C130.495 78.3516 132.361 82.2607 135.041 85.5981C137.721 88.9354 141.142 91.6104 145.035 93.4133L145.162 93.4714L145.288 93.4148C147.391 92.47 149.608 91.8004 151.884 91.4229C150.464 92.1425 149.139 93.0365 147.943 94.084L147.538 94.4321L148.046 94.5989C148.484 94.7431 148.923 94.8757 149.349 94.9934C151.853 95.6871 154.443 96.0316 157.043 96.017C168.856 95.9418 180.76 98.6575 192.426 104.089C194.426 105.019 196.501 105.781 198.629 106.368C207.903 108.936 217.803 108.012 226.434 103.775C221.568 109.371 215.205 113.48 208.084 115.624C200.963 117.768 193.377 117.859 186.206 115.887C184.078 115.3 182.003 114.537 180.002 113.607C168.337 108.176 156.432 105.461 144.619 105.536C142.019 105.55 139.43 105.206 136.925 104.512C136.499 104.395 136.061 104.262 135.622 104.118L135.114 103.951L135.519 103.603C136.716 102.555 138.04 101.661 139.461 100.942C137.185 101.319 134.967 101.989 132.864 102.934L132.738 102.99L132.612 102.932C127.936 100.768 123.957 97.3548 121.119 93.073C118.281 88.7912 116.695 83.8094 116.539 78.6835C116.382 73.5577 117.661 68.4894 120.232 64.0442C122.804 59.599 126.567 55.9518 131.102 53.5096Z" fill="black"/>
</g>
</g>
<defs>
<clipPath id="clip0_2510_910">
<rect width="236" height="198" fill="white"/>
</clipPath>
</defs>
</svg>
