<svg width="258" height="174" viewBox="0 0 258 174" fill="none" xmlns="http://www.w3.org/2000/svg">
<g clip-path="url(#clip0_2510_2610)">
<path d="M6.8313 173.616C6.8313 173.829 7.01324 174 7.2398 174H257.591C257.818 174 258 173.829 258 173.616C258 173.403 257.818 173.232 257.591 173.232H7.2398C7.01324 173.232 6.8313 173.403 6.8313 173.616Z" fill="#3F3D58"/>
<path d="M86.9978 30.6924H6.70426C3.64219 30.6924 1.14996 28.3506 1.14996 25.4733C1.14996 22.5959 3.64219 20.2541 6.70426 20.2541H86.9978C90.0598 20.2541 92.5521 22.5959 92.5521 25.4733C92.5521 28.3506 90.0598 30.6924 86.9978 30.6924ZM6.70426 20.8992C4.0198 20.8992 1.83653 22.9508 1.83653 25.4733C1.83653 27.9957 4.0198 30.0473 6.70426 30.0473H86.9978C89.6822 30.0473 91.8655 27.9957 91.8655 25.4733C91.8655 22.9508 89.6822 20.8992 86.9978 20.8992H6.70426Z" fill="#E2E3E4"/>
<path d="M86.9978 91.7708H6.70431C3.73492 91.7708 1.32166 89.5031 1.32166 86.7129C1.32166 83.9227 3.73492 81.655 6.70431 81.655H86.9978C89.9672 81.655 92.3805 83.9227 92.3805 86.7129C92.3805 89.5031 89.9672 91.7708 86.9978 91.7708Z" fill="#FFD682"/>
<path d="M60.6853 10.1158H5.38265C2.41327 10.1158 0 7.8481 0 5.05788C0 2.26766 2.41327 0 5.38265 0H60.6853C63.6547 0 66.0679 2.26766 66.0679 5.05788C66.0679 7.8481 63.6547 10.1158 60.6853 10.1158Z" fill="#E2E3E4"/>
<path d="M86.9978 51.1046H6.70426C3.64219 51.1046 1.14996 48.7627 1.14996 45.8854C1.14996 43.0081 3.64219 40.6662 6.70426 40.6662H86.9978C90.0598 40.6662 92.5521 43.0081 92.5521 45.8854C92.5521 48.7627 90.0598 51.1046 86.9978 51.1046ZM6.70426 41.3114C4.0198 41.3114 1.83653 43.3629 1.83653 45.8854C1.83653 48.4079 4.0198 50.4594 6.70426 50.4594H86.9978C89.6822 50.4594 91.8655 48.4079 91.8655 45.8854C91.8655 43.3629 89.6822 41.3114 86.9978 41.3114H6.70426Z" fill="#E2E3E4"/>
<path d="M86.9978 71.5199H6.70426C3.64219 71.5199 1.14996 69.1781 1.14996 66.3008C1.14996 63.4235 3.64219 61.0816 6.70426 61.0816H86.9978C90.0598 61.0816 92.5521 63.4235 92.5521 66.3008C92.5521 69.1781 90.0598 71.5199 86.9978 71.5199ZM6.70426 61.7267C4.0198 61.7267 1.83653 63.7783 1.83653 66.3008C1.83653 68.8233 4.0198 70.8748 6.70426 70.8748H86.9978C89.6822 70.8748 91.8655 68.8233 91.8655 66.3008C91.8655 63.7783 89.6822 61.7267 86.9978 61.7267H6.70426Z" fill="#E2E3E4"/>
<path d="M3.9443 16.5058H24.9875C25.4886 16.5058 25.8972 16.8865 25.8972 17.3607C25.8972 17.8316 25.4886 18.2155 24.9875 18.2155H3.9443C3.44311 18.2155 3.03461 17.8348 3.03461 17.3607C3.03461 16.8897 3.44311 16.5058 3.9443 16.5058Z" fill="#E2E3E4"/>
<path d="M3.9443 37.4018H24.9875C25.4886 37.4018 25.8972 37.7825 25.8972 38.2534C25.8972 38.7244 25.4886 39.1082 24.9875 39.1082H3.9443C3.44311 39.1082 3.03461 38.7276 3.03461 38.2566C3.03461 37.7857 3.44311 37.4018 3.9443 37.4018Z" fill="#E2E3E4"/>
<path d="M3.9443 58.3011H24.9875C25.4886 58.3011 25.8972 58.6817 25.8972 59.1559C25.8972 59.6268 25.4886 60.0075 24.9875 60.0075H3.9443C3.44311 60.0075 3.03461 59.6268 3.03461 59.1527C3.03461 58.6817 3.44311 58.3011 3.9443 58.3011Z" fill="#E2E3E4"/>
<path d="M153.474 42.6629L145.798 45.037V34.6536H152.764L153.474 42.6629Z" fill="#9F616A"/>
<path d="M146.749 37.5277C150.973 37.5277 154.398 34.31 154.398 30.3408C154.398 26.3716 150.973 23.154 146.749 23.154C142.525 23.154 139.101 26.3716 139.101 30.3408C139.101 34.31 142.525 37.5277 146.749 37.5277Z" fill="#9F616A"/>
<path d="M148.85 29.6279C147.57 29.5925 146.729 28.3764 146.231 27.2667C145.733 26.1571 145.222 24.883 144.034 24.4249C143.062 24.0507 141.35 26.5829 140.584 25.9087C139.784 25.2055 140.563 21.596 141.411 20.9476C142.259 20.2993 143.42 20.1735 144.511 20.1251C147.175 20.0089 149.856 20.2122 152.468 20.725C154.085 21.0412 155.747 21.5186 156.914 22.6153C158.39 24.0088 158.768 26.1087 158.874 28.0732C158.984 30.0828 158.86 32.1859 157.82 33.9439C156.78 35.7019 154.604 36.9986 152.516 36.5503C152.307 35.4858 152.52 34.3923 152.602 33.3084C152.681 32.2278 152.599 31.0601 151.895 30.1989C151.195 29.3376 149.691 28.9957 148.874 29.7602" fill="#2F2E43"/>
<path d="M158.26 32.1182C159.025 31.5924 159.942 31.1505 160.882 31.2601C161.898 31.3763 162.76 32.1633 163.021 33.0955C163.282 34.0278 162.99 35.0535 162.358 35.8148C161.73 36.5761 160.793 37.0793 159.804 37.3309C159.231 37.476 158.603 37.5373 158.057 37.318C157.254 36.9922 156.818 36.0277 157.134 35.26" fill="#2F2E43"/>
<path d="M128.991 99.7383C128.48 102.099 129.417 104.257 131.079 104.557C132.74 104.857 134.501 103.183 135.009 100.822C135.225 99.8802 135.191 98.906 134.91 97.977L141.236 60.9623L133.324 59.5623L130.268 97.1416C129.62 97.9028 129.184 98.7931 128.991 99.7415V99.7383Z" fill="#9F616A"/>
<path d="M145.716 40.2727H140.316C136.499 40.8178 135.462 42.7307 134.594 46.266C133.269 51.6594 131.576 58.8398 131.913 58.9462C132.452 59.1139 141.645 63.1783 146.331 62.2493L145.716 40.2727Z" fill="#E2E3E4"/>
<path d="M150.937 158.175H143.749V167.758H150.937V158.175Z" fill="#9F616A"/>
<path d="M136.75 173.558C135.994 173.558 135.322 173.542 134.813 173.497C132.905 173.332 131.082 172.007 130.165 171.232C129.753 170.884 129.623 170.329 129.836 169.852C129.99 169.51 130.296 169.252 130.677 169.152L135.723 167.797L143.893 162.617L143.986 162.771C144.02 162.829 144.824 164.187 145.091 165.104C145.194 165.452 145.167 165.742 145.012 165.968C144.906 166.123 144.755 166.213 144.635 166.265C144.782 166.41 145.246 166.707 146.674 166.92C148.758 167.229 149.197 165.2 149.214 165.116L149.228 165.049L149.29 165.01C150.282 164.41 150.893 164.136 151.102 164.194C151.233 164.229 151.452 164.294 152.046 169.82C152.105 169.994 152.52 171.265 152.238 172.481C151.933 173.803 145.781 173.348 144.549 173.245C144.515 173.248 139.908 173.558 136.753 173.558H136.75Z" fill="#2F2E43"/>
<path d="M171.406 150.645L165.307 154.22L170.704 162.351L176.803 158.777L171.406 150.645Z" fill="#9F616A"/>
<path d="M163.306 172.245C162.461 172.245 161.686 172.148 161.133 172.058C160.59 171.968 160.165 171.561 160.076 171.052C160.014 170.684 160.127 170.313 160.395 170.039L163.913 166.381L167.93 157.923L168.095 158.007C168.156 158.039 169.602 158.791 170.347 159.436C170.631 159.681 170.772 159.942 170.765 160.21C170.762 160.397 170.686 160.546 170.611 160.652C170.817 160.704 171.376 160.723 172.708 160.194C174.651 159.423 173.882 157.481 173.848 157.401L173.821 157.336L173.851 157.275C174.356 156.272 174.717 155.736 174.929 155.681C175.063 155.646 175.283 155.591 178.898 159.988C179.045 160.104 180.113 160.978 180.559 162.149C181.043 163.423 175.568 166.097 174.466 166.62C174.432 166.645 168.702 170.558 166.347 171.671C165.414 172.113 164.308 172.248 163.302 172.248L163.306 172.245Z" fill="#2F2E43"/>
<path d="M156.231 78.0326H136.104L134.278 95.6255L142.27 160.63H152.544L148.435 123.086L165.101 156.981L174.232 150.975L161.219 119.331C161.219 119.331 165.867 91.7643 162.214 84.8969C158.562 78.0326 156.231 78.0326 156.231 78.0326Z" fill="#2F2E43"/>
<path d="M166.244 79.1035H134.278L143.869 40.2727H157.796L166.244 79.1035Z" fill="#E2E3E4"/>
<path d="M169.121 99.7383C169.633 102.099 168.695 104.257 167.034 104.557C165.372 104.857 163.611 103.183 163.103 100.822C162.887 99.8802 162.921 98.906 163.203 97.977L156.876 60.9623L164.789 59.5623L167.844 97.1416C168.493 97.9028 168.929 98.7931 169.121 99.7415V99.7383Z" fill="#9F616A"/>
<path d="M152.396 40.2727H157.796C161.613 40.8178 162.65 42.7307 163.519 46.266C164.844 51.6594 166.536 58.8398 166.2 58.9462C165.661 59.1139 156.468 63.1783 151.782 62.2493L152.396 40.2727Z" fill="#E2E3E4"/>
</g>
<defs>
<clipPath id="clip0_2510_2610">
<rect width="258" height="174" fill="white"/>
</clipPath>
</defs>
</svg>
