<svg width="213" height="231" viewBox="0 0 213 231" fill="none" xmlns="http://www.w3.org/2000/svg">
<g clip-path="url(#clip0_2510_2569)">
<path d="M20.4833 194.597L18.6074 186.598C15.2813 185.073 11.8784 183.753 8.41479 182.643L8.17801 186.361L7.21774 182.265C2.92227 180.938 0 180.353 0 180.353C0 180.353 3.9463 196.583 12.2261 208.991L21.8728 210.823L14.3786 211.992C15.4201 213.347 16.5394 214.63 17.7298 215.833C29.7732 227.92 43.1875 233.466 47.6911 228.22C52.1948 222.973 46.0826 208.922 34.0392 196.835C30.3057 193.088 25.6155 190.081 20.9206 187.714L20.4833 194.597Z" fill="#F2F2F2"/>
<path d="M38.3235 185.908L40.542 178.012C38.4236 174.848 36.1418 171.816 33.7075 168.93L31.7275 171.98L32.8633 167.937C29.8204 164.401 27.5981 162.268 27.5981 162.268C27.5981 162.268 23.2186 178.367 24.3739 193.616L31.7561 200.576L24.7808 197.388C25.0249 199.13 25.3701 200.854 25.8143 202.55C30.3457 219.628 39.1777 231.873 45.541 229.899C51.9043 227.925 53.3896 212.48 48.8582 195.402C47.4535 190.107 44.8758 184.911 41.9885 180.261L38.3235 185.908Z" fill="#F2F2F2"/>
<path d="M148.63 54.724H147.46V20.0622C147.46 17.4276 146.98 14.8188 146.048 12.3847C145.115 9.95065 143.749 7.73901 142.026 5.87607C140.303 4.01313 138.257 2.53536 136.006 1.52714C133.755 0.518921 131.342 0 128.906 0H60.9873C56.0664 0 51.3471 2.11369 47.8675 5.87607C44.3879 9.63845 42.4331 14.7413 42.4331 20.0622V210.223C42.4331 212.858 42.913 215.467 43.8455 217.901C44.7779 220.335 46.1446 222.546 47.8675 224.409C49.5904 226.272 51.6358 227.75 53.8869 228.758C56.138 229.766 58.5508 230.285 60.9873 230.285H128.906C133.827 230.285 138.546 228.172 142.026 224.409C145.505 220.647 147.46 215.544 147.46 210.223V79.3971H148.63L148.63 54.724Z" fill="#E6E6E6"/>
<path d="M129.655 5.21753H120.79C121.197 6.29838 121.353 7.47107 121.243 8.63228C121.133 9.79349 120.76 10.9076 120.158 11.8764C119.556 12.8452 118.742 13.639 117.789 14.1878C116.837 14.7367 115.774 15.0237 114.694 15.0237H75.7843C74.7048 15.0236 73.6418 14.7365 72.6891 14.1876C71.7364 13.6387 70.9231 12.8449 70.321 11.8761C69.7188 10.9073 69.3462 9.79329 69.2361 8.63213C69.1259 7.47097 69.2815 6.29834 69.6892 5.21753H61.4089C57.734 5.21753 54.2096 6.79601 51.6111 9.60572C49.0126 12.4154 47.5527 16.2262 47.5527 20.1998V210.085C47.5527 214.058 49.0126 217.869 51.6111 220.679C54.2096 223.488 57.734 225.067 61.4089 225.067H129.655C133.329 225.067 136.854 223.488 139.452 220.679C142.051 217.869 143.511 214.058 143.511 210.085V20.1994C143.511 16.226 142.051 12.4153 139.452 9.60561C136.854 6.79596 133.329 5.21753 129.655 5.21753Z" fill="white"/>
<path d="M86.8354 80.8581C86.8352 79.5308 87.1583 78.2268 87.7723 77.0775C88.3862 75.9282 89.2694 74.974 90.3328 74.3109C89.2699 73.6472 88.0641 73.2977 86.8367 73.2975C85.6093 73.2974 84.4035 73.6466 83.3405 74.3101C82.2775 74.9736 81.3947 75.928 80.781 77.0773C80.1672 78.2267 79.8441 79.5304 79.8441 80.8576C79.8441 82.1848 80.1672 83.4885 80.781 84.6379C81.3947 85.7872 82.2775 86.7416 83.3405 87.4051C84.4035 88.0686 85.6093 88.4178 86.8367 88.4177C88.0641 88.4175 89.2699 88.068 90.3328 87.4042C89.2694 86.7414 88.3863 85.7873 87.7724 84.6382C87.1584 83.489 86.8353 82.1852 86.8354 80.8581Z" fill="#CCCCCC"/>
<path d="M95.6251 80.8581C95.6249 79.5308 95.948 78.2268 96.5619 77.0775C97.1759 75.9281 98.059 74.9739 99.1224 74.3109C98.0596 73.6472 96.8538 73.2977 95.6264 73.2975C94.399 73.2974 93.1932 73.6466 92.1302 74.3101C91.0672 74.9736 90.1844 75.928 89.5706 77.0773C88.9569 78.2267 88.6338 79.5304 88.6338 80.8576C88.6338 82.1848 88.9569 83.4885 89.5706 84.6379C90.1844 85.7872 91.0672 86.7416 92.1302 87.4051C93.1932 88.0686 94.399 88.4178 95.6264 88.4177C96.8538 88.4175 98.0596 88.068 99.1224 87.4042C98.0591 86.7414 97.176 85.7873 96.5621 84.6382C95.9481 83.489 95.6249 82.1852 95.6251 80.8581Z" fill="#CCCCCC"/>
<path d="M104.215 88.4178C108.077 88.4178 111.207 85.0331 111.207 80.8577C111.207 76.6824 108.077 73.2977 104.215 73.2977C100.354 73.2977 97.2233 76.6824 97.2233 80.8577C97.2233 85.0331 100.354 88.4178 104.215 88.4178Z" fill="#FFD682"/>
<path d="M115.9 104.471H75.1503C74.7623 104.47 74.3904 104.303 74.1161 104.007C73.8418 103.71 73.6875 103.308 73.687 102.889V58.8269C73.6875 58.4074 73.8418 58.0053 74.1161 57.7086C74.3904 57.412 74.7623 57.2452 75.1503 57.2447H115.9C116.288 57.2452 116.66 57.412 116.934 57.7086C117.209 58.0053 117.363 58.4074 117.364 58.8269V102.889C117.363 103.308 117.209 103.71 116.934 104.007C116.66 104.303 116.288 104.47 115.9 104.471ZM75.1503 57.8779C74.9175 57.8782 74.6944 57.9783 74.5298 58.1562C74.3652 58.3342 74.2726 58.5755 74.2724 58.8272V102.889C74.2726 103.141 74.3652 103.382 74.5298 103.56C74.6944 103.738 74.9175 103.838 75.1503 103.838H115.9C116.133 103.838 116.356 103.738 116.521 103.56C116.685 103.382 116.778 103.141 116.778 102.889V58.8272C116.778 58.5755 116.685 58.3342 116.521 58.1562C116.356 57.9783 116.133 57.8782 115.9 57.8779H75.1503Z" fill="#CCCCCC"/>
<path d="M124.999 138.246H62.501V138.879H124.999V138.246Z" fill="#CCCCCC"/>
<path d="M64.4747 134.295C65.5648 134.295 66.4484 133.339 66.4484 132.16C66.4484 130.982 65.5648 130.026 64.4747 130.026C63.3846 130.026 62.501 130.982 62.501 132.16C62.501 133.339 63.3846 134.295 64.4747 134.295Z" fill="#FFD682"/>
<path d="M124.999 159.586H62.501V160.219H124.999V159.586Z" fill="#CCCCCC"/>
<path d="M64.4747 155.635C65.5648 155.635 66.4484 154.679 66.4484 153.501C66.4484 152.322 65.5648 151.367 64.4747 151.367C63.3846 151.367 62.501 152.322 62.501 153.501C62.501 154.679 63.3846 155.635 64.4747 155.635Z" fill="#FFD682"/>
<path d="M123.855 183.887H104.104C103.763 183.887 103.436 183.74 103.195 183.479C102.953 183.219 102.818 182.865 102.817 182.496V175.011C102.818 174.642 102.953 174.288 103.195 174.027C103.436 173.766 103.763 173.62 104.104 173.619H123.855C124.196 173.62 124.524 173.766 124.765 174.027C125.006 174.288 125.142 174.642 125.142 175.011V182.496C125.142 182.865 125.006 183.219 124.765 183.479C124.524 183.74 124.196 183.887 123.855 183.887Z" fill="#FFD682"/>
<path d="M70.9129 134.295C72.003 134.295 72.8867 133.339 72.8867 132.16C72.8867 130.982 72.003 130.026 70.9129 130.026C69.8229 130.026 68.9392 130.982 68.9392 132.16C68.9392 133.339 69.8229 134.295 70.9129 134.295Z" fill="#FFD682"/>
<path d="M77.351 134.295C78.4411 134.295 79.3248 133.339 79.3248 132.16C79.3248 130.982 78.4411 130.026 77.351 130.026C76.261 130.026 75.3773 130.982 75.3773 132.16C75.3773 133.339 76.261 134.295 77.351 134.295Z" fill="#FFD682"/>
<path d="M70.9129 155.635C72.003 155.635 72.8867 154.679 72.8867 153.501C72.8867 152.322 72.003 151.367 70.9129 151.367C69.8229 151.367 68.9392 152.322 68.9392 153.501C68.9392 154.679 69.8229 155.635 70.9129 155.635Z" fill="#FFD682"/>
<path d="M77.351 155.635C78.4411 155.635 79.3248 154.679 79.3248 153.501C79.3248 152.322 78.4411 151.367 77.351 151.367C76.261 151.367 75.3773 152.322 75.3773 153.501C75.3773 154.679 76.261 155.635 77.351 155.635Z" fill="#FFD682"/>
<path d="M212.204 231H6.88601C6.44648 231 6.09045 230.831 6.09045 230.623C6.09045 230.416 6.44648 230.246 6.88601 230.246H212.204C212.644 230.246 213 230.415 213 230.623C213 230.831 212.644 231 212.204 231Z" fill="#3F3D56"/>
<path d="M161.477 151.344C161.618 151.413 161.753 151.495 161.881 151.587L174.707 145.668L175.165 142.015L180.29 141.981L179.987 150.36L163.058 155.201C163.022 155.328 162.98 155.453 162.93 155.574C162.685 156.139 162.292 156.613 161.798 156.937C161.305 157.26 160.735 157.419 160.159 157.393C159.582 157.368 159.026 157.158 158.559 156.792C158.093 156.425 157.737 155.918 157.536 155.333C157.335 154.748 157.299 154.112 157.431 153.505C157.563 152.898 157.859 152.347 158.28 151.921C158.701 151.495 159.229 151.213 159.798 151.11C160.367 151.007 160.951 151.089 161.477 151.344Z" fill="#FFB8B8"/>
<path d="M182.154 227.272H178.648L176.98 212.651L182.154 212.651L182.154 227.272Z" fill="#FFB8B8"/>
<path d="M176.143 226.189H182.905V230.792H171.886C171.886 229.571 172.335 228.4 173.133 227.537C173.932 226.674 175.014 226.189 176.143 226.189Z" fill="#2F2E41"/>
<path d="M195.788 226.201L192.299 226.573L189.314 212.198L194.463 211.65L195.788 226.201Z" fill="#FFB8B8"/>
<path d="M189.709 225.76L196.438 225.044L196.855 229.625L185.89 230.792C185.835 230.191 185.89 229.583 186.053 229.005C186.215 228.427 186.481 227.888 186.836 227.421C187.19 226.954 187.627 226.567 188.12 226.282C188.613 225.997 189.153 225.819 189.709 225.76Z" fill="#2F2E41"/>
<path d="M183.129 126.507C187.008 126.507 190.153 123.106 190.153 118.912C190.153 114.718 187.008 111.318 183.129 111.318C179.25 111.318 176.106 114.718 176.106 118.912C176.106 123.106 179.25 126.507 183.129 126.507Z" fill="#FFB8B8"/>
<path d="M177.864 224.315C177.563 224.316 177.271 224.202 177.04 223.993C176.809 223.784 176.654 223.493 176.602 223.172C174.787 212.28 168.856 176.666 168.714 175.679C168.711 175.657 168.709 175.634 168.709 175.611V172.956C168.709 172.859 168.737 172.764 168.789 172.686L169.573 171.499C169.61 171.442 169.659 171.395 169.715 171.362C169.772 171.328 169.835 171.309 169.9 171.306C174.367 171.079 188.998 170.416 189.704 171.371C190.414 172.33 190.164 175.238 190.106 175.811L190.109 175.871L196.682 221.322C196.733 221.685 196.651 222.055 196.452 222.352C196.253 222.649 195.954 222.849 195.619 222.91L191.514 223.641C191.208 223.694 190.895 223.627 190.631 223.452C190.368 223.276 190.171 223.004 190.077 222.685C188.807 218.298 184.55 203.54 183.074 197.829C183.065 197.793 183.044 197.762 183.015 197.741C182.986 197.72 182.951 197.712 182.916 197.717C182.882 197.722 182.851 197.741 182.828 197.77C182.805 197.798 182.793 197.834 182.794 197.872C182.867 203.316 183.045 217.204 183.107 222.001L183.114 222.518C183.116 222.868 182.998 223.206 182.781 223.466C182.564 223.725 182.265 223.888 181.943 223.921L177.984 224.31C177.944 224.313 177.904 224.315 177.864 224.315Z" fill="#2F2E41"/>
<path d="M178.672 129.493C177.446 130.281 176.713 131.728 176.292 133.202C175.513 135.929 175.044 138.749 174.895 141.599L174.45 150.134L168.944 172.758C173.716 177.124 176.469 176.132 182.894 172.561C189.318 168.989 190.052 173.751 190.052 173.751L191.337 154.501L193.172 133.465C192.76 132.928 192.294 132.444 191.782 132.02C190.085 130.593 188.111 129.602 186.009 129.12C183.907 128.638 181.731 128.679 179.645 129.238L178.672 129.493Z" fill="#FFD682"/>
<path d="M176.883 155.913C177.032 155.973 177.175 156.046 177.313 156.131L189.995 149.267L190.205 145.549L195.436 145.159L195.717 153.635L178.769 159.695C178.631 160.337 178.315 160.918 177.864 161.361C177.412 161.804 176.847 162.088 176.243 162.175C175.639 162.263 175.024 162.149 174.482 161.849C173.939 161.55 173.493 161.078 173.204 160.498C172.915 159.918 172.796 159.257 172.863 158.602C172.93 157.947 173.18 157.329 173.579 156.832C173.978 156.334 174.509 155.979 175.099 155.815C175.689 155.651 176.312 155.685 176.883 155.913Z" fill="#FFB8B8"/>
<path d="M193.08 133.561C196.2 134.752 196.75 147.653 196.75 147.653C193.079 145.47 188.674 149.042 188.674 149.042C188.674 149.042 187.756 145.668 186.655 141.302C186.322 140.074 186.283 138.775 186.539 137.526C186.796 136.276 187.341 135.118 188.123 134.157C188.123 134.157 189.96 132.37 193.08 133.561Z" fill="#FFD682"/>
<path d="M189.427 120.921C188.552 120.163 187.358 121.539 187.358 121.539L186.658 114.727C186.658 114.727 182.283 115.293 179.482 114.537C176.682 113.782 176.244 117.282 176.244 117.282C176.1 115.868 176.071 114.443 176.157 113.024C176.332 111.32 178.607 109.617 182.633 108.482C186.658 107.346 188.758 112.267 188.758 112.267C191.559 113.78 190.302 121.678 189.427 120.921Z" fill="#2F2E41"/>
</g>
<defs>
<clipPath id="clip0_2510_2569">
<rect width="213" height="231" fill="white"/>
</clipPath>
</defs>
</svg>
